<?xml version="1.0" encoding="UTF-8" standalone="no"?>
<!-- Created with Inkscape (http://www.inkscape.org/) -->

<svg
   width="200mm"
   height="200mm"
   viewBox="0 0 200 200"
   version="1.1"
   id="svg1"
   xmlns="http://www.w3.org/2000/svg"
   xmlns:svg="http://www.w3.org/2000/svg">
  <defs
     id="defs1" />
  <g
     id="layer1"
     transform="translate(-5,-48.5)">
    <path
       style="font-weight:bold;font-size:85.3333px;font-family:'Amio Trial';-inkscape-font-specification:'Amio Trial Bold';white-space:pre;fill:#f2f2f2;fill-opacity:1;stroke-width:1.10749"
       d="m 52.469341,179.28191 c 13.037208,0 22.830417,-4.12414 33.088311,-11.50921 l -4.050191,-7.48104 c -8.259163,5.08329 -15.861479,8.2483 -24.987529,8.2483 -5.680492,0 -9.247067,-1.82227 -10.234108,-5.46687 14.603641,-0.76722 27.163117,-5.08321 31.268147,-17.07201 3.579579,-10.45416 -2.644832,-16.20882 -14.471459,-16.20882 -12.105974,0 -25.40409,7.28919 -30.921276,23.40211 -5.648499,16.49657 2.428491,26.08754 20.308105,26.08754 z m -5.326113,-25.51206 c 0.03905,-0.38355 0.202326,-0.86322 0.399571,-1.43871 2.901176,-7.38506 7.315273,-11.0296 11.878302,-11.0296 3.818031,0 5.209959,1.91815 4.159093,4.98728 -1.57636,4.60369 -7.415225,6.42599 -16.436887,7.48103 z M 97.669798,111.1857 74.68166,178.32282 H 89.7676 l 4.761838,-13.90699 c 1.3145,-0.57544 2.4756,-1.24681 3.60387,-1.8223 l 1.26685,5.27509 c 1.349622,7.481 5.218082,11.41329 12.574802,11.41329 5.77364,0 11.83929,-1.6835 17.88504,-7.9176 l -0.86518,-10.78487 c -3.44463,3.26095 -7.40768,5.57589 -10.48075,5.57589 -3.91115,0 -6.00597,-1.48734 -7.3293,-4.48999 -1.3233,-3.00264 -0.52201,-7.25235 -0.52201,-7.25235 8.08909,-5.94647 15.56576,-13.49516 21.5611,-23.66162 h -15.0859 c -4.46765,8.15237 -10.00416,13.71514 -17.255582,18.03112 L 112.75574,111.1857 Z m 30.600302,43.35138 c -5.91125,17.26387 3.41916,23.40219 16.39102,24.74483 15.5351,1.6079 27.33228,-7.48096 33.24353,-24.74483 1.24791,-3.64457 1.80575,-6.90547 1.70087,-9.591 -0.14647,-2.56153 -1.29907,-8.21968 -4.14425,-10.74179 -3.26562,-2.97324 -8.17416,-4.41191 -13.85465,-4.41191 -13.03721,0 -27.39251,7.3851 -33.3366,24.74486 z m 29.39573,-13.23554 c 5.68053,0 8.27268,4.12409 5.1857,13.13965 -3.08697,9.01556 -8.56905,13.33151 -14.24958,13.33151 -5.68048,0 -8.30009,-4.31595 -5.21312,-13.33151 3.08698,-9.01556 8.59651,-13.13965 14.277,-13.13965 z"
       id="text1"
       aria-label="eko" />
  </g>
</svg>
