<?xml version="1.0" encoding="UTF-8" standalone="no"?>
<!-- Created with Inkscape (http://www.inkscape.org/) -->

<svg
   width="210mm"
   height="297mm"
   viewBox="0 0 210 297"
   version="1.1"
   id="svg1"
   inkscape:version="1.4.1 (93de688d07, 2025-03-30)"
   sodipodi:docname="eko.svg"
   xmlns:inkscape="http://www.inkscape.org/namespaces/inkscape"
   xmlns:sodipodi="http://sodipodi.sourceforge.net/DTD/sodipodi-0.dtd"
   xmlns:xlink="http://www.w3.org/1999/xlink"
   xmlns="http://www.w3.org/2000/svg"
   xmlns:svg="http://www.w3.org/2000/svg">
  <sodipodi:namedview
     id="namedview1"
     pagecolor="#ffffff"
     bordercolor="#000000"
     borderopacity="0.25"
     inkscape:showpageshadow="2"
     inkscape:pageopacity="0.0"
     inkscape:pagecheckerboard="0"
     inkscape:deskcolor="#d1d1d1"
     inkscape:document-units="mm"
     showguides="true"
     inkscape:zoom="1.0114777"
     inkscape:cx="418.69437"
     inkscape:cy="583.30502"
     inkscape:window-width="1906"
     inkscape:window-height="1034"
     inkscape:window-x="0"
     inkscape:window-y="0"
     inkscape:window-maximized="1"
     inkscape:current-layer="layer1" />
  <defs
     id="defs1">
    <linearGradient
       id="linearGradient5"
       inkscape:collect="always">
      <stop
         style="stop-color:#000000;stop-opacity:1;"
         offset="0"
         id="stop5" />
      <stop
         style="stop-color:#0b0b0b;stop-opacity:1;"
         offset="1"
         id="stop6" />
    </linearGradient>
    <rect
       x="96.112205"
       y="353.44488"
       width="632.48031"
       height="373.59744"
       id="rect1" />
    <linearGradient
       inkscape:collect="always"
       xlink:href="#linearGradient5"
       id="linearGradient6"
       x1="35.066189"
       y1="78.696579"
       x2="42.887917"
       y2="128.08104"
       gradientUnits="userSpaceOnUse" />
    <linearGradient
       inkscape:collect="always"
       xlink:href="#linearGradient5"
       id="linearGradient7"
       gradientUnits="userSpaceOnUse"
       x1="35.066189"
       y1="78.696579"
       x2="42.887917"
       y2="128.08104"
       gradientTransform="translate(68.837526,121.63619)" />
  </defs>
  <g
     inkscape:label="Layer 1"
     inkscape:groupmode="layer"
     id="layer1">
    <rect
       style="fill:url(#linearGradient6);fill-opacity:1;stroke-width:0.265;stroke-dasharray:none"
       id="rect4"
       width="50"
       height="50"
       x="13.977057"
       y="78.388809"
       rx="10"
       inkscape:export-filename="eko_draft.png"
       inkscape:export-xdpi="548.64001"
       inkscape:export-ydpi="548.64001" />
    <path
       style="font-weight:bold;font-size:85.3333px;font-family:'Amio Trial';-inkscape-font-specification:'Amio Trial Bold';white-space:pre;fill:#ffffff;fill-opacity:1;stroke-width:0.30032"
       d="m 24.520696,112.46214 c 3.587823,0 6.282896,-1.10197 9.105852,-3.07527 l -1.114602,-1.99894 c -2.272908,1.35826 -4.365055,2.20395 -6.87653,2.20395 -1.563268,0 -2.544783,-0.48691 -2.816408,-1.46075 4.018901,-0.20501 7.475243,-1.35824 8.60494,-4.56166 0.985096,-2.79337 -0.727851,-4.331022 -3.982519,-4.331022 -3.331549,0 -6.991173,1.947682 -8.509485,6.253072 -1.554464,4.4079 0.668312,6.97062 5.588752,6.97062 z m -1.46573,-6.81685 c 0.01056,-0.1025 0.05572,-0.23065 0.109954,-0.38442 0.7984,-1.9733 2.013156,-2.94713 3.268895,-2.94713 1.050717,0 1.433772,0.51254 1.144568,1.33261 -0.433803,1.23011 -2.040649,1.71703 -4.523402,1.99894 z M 36.959798,94.266756 30.633497,112.20588 h 4.151624 l 1.31045,-3.71597 c 0.361755,-0.15376 0.681286,-0.33315 0.991784,-0.48692 l 0.348635,1.40951 c 0.371416,1.99893 1.436008,3.04964 3.460565,3.04964 1.588891,0 3.258149,-0.44983 4.921936,-2.11559 l -0.238101,-2.88173 c -0.947957,0.87133 -2.038581,1.48989 -2.884283,1.48989 -1.076347,0 -1.652835,-0.39742 -2.017008,-1.19973 -0.364173,-0.80231 -0.143665,-1.93784 -0.143665,-1.93784 2.226107,-1.58891 4.283674,-3.60592 5.933589,-6.322416 h -4.151621 c -1.229486,2.178326 -2.753129,3.664706 -4.748711,4.817936 l 3.542727,-10.045904 z m 8.421147,11.583544 c -1.626764,4.61292 0.940954,6.25309 4.510795,6.61184 4.275232,0.42964 7.521793,-1.99892 9.148557,-6.61184 0.343428,-0.97384 0.49694,-1.84516 0.468087,-2.56273 -0.04028,-0.68445 -0.357509,-2.19631 -1.140494,-2.87022 -0.898694,-0.794454 -2.249514,-1.178868 -3.812779,-1.178868 -3.587821,0 -7.53838,1.973308 -9.174183,6.611858 z m 8.089671,-3.53656 c 1.563265,0 2.276626,1.10197 1.427094,3.51093 -0.849531,2.40897 -2.358197,3.5622 -3.921463,3.5622 -1.563264,0 -2.28417,-1.15323 -1.43464,-3.5622 0.849532,-2.40896 2.365745,-3.51093 3.929009,-3.51093 z"
       id="text1"
       aria-label="eko"
       sodipodi:nodetypes="sccscssssscssssccccccsccszcccccccssccsccsssss" />
    <rect
       style="display:inline;fill:url(#linearGradient7);fill-opacity:1;stroke-width:0.265;stroke-dasharray:none"
       id="rect4-3"
       width="50"
       height="50"
       x="82.814583"
       y="200.02499"
       rx="10"
       inkscape:export-filename="eko_draft.png"
       inkscape:export-xdpi="548.64001"
       inkscape:export-ydpi="548.64001" />
    <path
       style="font-weight:bold;font-size:85.3333px;font-family:'Amio Trial';-inkscape-font-specification:'Amio Trial Bold';white-space:pre;fill:#404040;fill-opacity:1;stroke-width:0.293325"
       d="m 94.401403,232.5965 c 3.32891,0 5.829497,-1.13299 8.448747,-3.16181 l -1.03416,-2.0552 c -2.108897,1.39648 -4.050067,2.26598 -6.380307,2.26598 -1.45047,0 -2.36116,-0.50061 -2.61318,-1.50187 3.72889,-0.21078 6.93582,-1.39645 7.983997,-4.69003 0.91401,-2.87199 -0.67533,-4.45291 -3.695127,-4.45291 -3.09115,0 -6.4867,2.0025 -7.89545,6.42905 -1.442295,4.53195 0.620087,7.16679 5.18548,7.16679 z m -1.35998,-7.00869 c 0.01,-0.10533 0.0518,-0.23715 0.10206,-0.39525 0.74079,-2.02883 1.86789,-3.03006 3.03301,-3.03006 0.9749,0 1.33032,0.52696 1.06198,1.37012 -0.4025,1.26472 -1.8934,1.76535 -4.19699,2.05519 z m 12.901457,-11.69877 -5.86979,18.44399 h 3.85204 l 1.21589,-3.82054 c 0.33565,-0.15809 0.63212,-0.34254 0.92021,-0.50063 l 0.32349,1.44917 c 0.34461,2.0552 1.33237,3.13547 3.21085,3.13547 1.47422,0 3.02303,-0.46249 4.56677,-2.17513 l -0.22092,-2.96284 c -0.87956,0.89587 -1.89149,1.53183 -2.67616,1.53183 -0.99867,0 -1.53357,-0.40859 -1.87146,-1.23349 -0.33789,-0.82489 -0.1333,-1.99238 -0.1333,-1.99238 2.06548,-1.63363 3.97456,-3.7074 5.50542,-6.50035 h -3.85203 c -1.14077,2.23964 -2.55447,3.76785 -4.40605,4.95353 l 3.28708,-10.32863 z m 7.81349,11.90955 c -1.50939,4.74274 0.87305,6.42907 4.1853,6.79791 3.96673,0.44173 6.97901,-2.05517 8.48839,-6.79791 0.31865,-1.00125 0.46107,-1.89709 0.43431,-2.63486 -0.0373,-0.70371 -0.33172,-2.25812 -1.05819,-2.95101 -0.83384,-0.8168 -2.0872,-1.21203 -3.53765,-1.21203 -3.32893,0 -6.99441,2.02885 -8.51219,6.79794 z m 7.50592,-3.63609 c 1.45047,0 2.11235,1.13298 1.32413,3.60973 -0.78825,2.47677 -2.18805,3.66246 -3.63852,3.66246 -1.45045,0 -2.11934,-1.18569 -1.33112,-3.66246 0.78825,-2.47675 2.19506,-3.60973 3.64551,-3.60973 z"
       id="text1-6-1"
       aria-label="eko"
       sodipodi:nodetypes="sccscssssscssssccccccsccszcccccccssccsccsssss" />
    <path
       style="font-weight:bold;font-size:85.3333px;font-family:'Amio Trial';-inkscape-font-specification:'Amio Trial Bold';white-space:pre;fill:#b3b3b3;fill-opacity:1;stroke-width:0.287573"
       d="m 94.922258,232.5965 c 3.199651,0 5.603132,-1.13299 8.120672,-3.16181 l -0.99401,-2.0552 c -2.02701,1.39648 -3.89279,2.26598 -6.132548,2.26598 -1.394136,0 -2.269462,-0.50061 -2.511704,-1.50187 3.58409,-0.21078 6.666482,-1.39645 7.673962,-4.69003 0.87852,-2.87199 -0.6491,-4.45291 -3.551635,-4.45291 -2.971115,0 -6.23481,2.0025 -7.588856,6.42905 -1.38628,4.53195 0.596015,7.16679 4.984119,7.16679 z m -1.307156,-7.00869 c 0.0096,-0.10533 0.04963,-0.23715 0.09809,-0.39525 0.712017,-2.02883 1.795343,-3.03006 2.915238,-3.03006 0.937031,0 1.278646,0.52696 1.020724,1.37012 -0.386861,1.26472 -1.819871,1.76535 -4.034011,2.05519 z m 12.400468,-11.69877 -5.64187,18.44399 h 3.70247 l 1.16868,-3.82054 c 0.32261,-0.15809 0.60757,-0.34254 0.88447,-0.50063 l 0.31093,1.44917 c 0.33123,2.0552 1.28063,3.13547 3.08617,3.13547 1.41698,0 2.90564,-0.46249 4.38944,-2.17513 l -0.21235,-2.96284 c -0.84541,0.89587 -1.81803,1.53183 -2.57223,1.53183 -0.9599,0 -1.47402,-0.40859 -1.7988,-1.23349 -0.32477,-0.82489 -0.12812,-1.99238 -0.12812,-1.99238 1.98527,-1.63363 3.82022,-3.7074 5.29164,-6.50035 h -3.70245 c -1.09648,2.23964 -2.45528,3.76785 -4.23496,4.95353 l 3.15943,-10.32863 z m 7.51007,11.90955 c -1.45077,4.74274 0.83915,6.42907 4.02279,6.79791 3.81269,0.44173 6.708,-2.05517 8.15877,-6.79791 0.30627,-1.00125 0.44316,-1.89709 0.41744,-2.63486 -0.0359,-0.70371 -0.31884,-2.25812 -1.0171,-2.95101 -0.80146,-0.8168 -2.00615,-1.21203 -3.40027,-1.21203 -3.19967,0 -6.72281,2.02885 -8.18165,6.79794 z m 7.21445,-3.63609 c 1.39415,0 2.03033,1.13298 1.27271,3.60973 -0.75763,2.47677 -2.10307,3.66246 -3.49722,3.66246 -1.39413,0 -2.03704,-1.18569 -1.27943,-3.66246 0.75764,-2.47675 2.10982,-3.60973 3.50394,-3.60973 z"
       id="text1-6-4"
       aria-label="eko"
       sodipodi:nodetypes="sccscssssscssssccccccsccszcccccccssccsccsssss" />
    <path
       style="font-weight:bold;font-size:85.3333px;font-family:'Amio Trial';-inkscape-font-specification:'Amio Trial Bold';white-space:pre;fill:#ffffff;fill-opacity:1;stroke-width:0.278348"
       d="m 95.7361,232.5965 c 2.997667,0 5.24943,-1.13299 7.60805,-3.16181 l -0.93126,-2.0552 c -1.89905,1.39648 -3.647054,2.26598 -5.745427,2.26598 -1.306135,0 -2.126206,-0.50061 -2.353153,-1.50187 3.357846,-0.21078 6.24566,-1.39645 7.18954,-4.69003 0.82306,-2.87199 -0.60813,-4.45291 -3.32744,-4.45291 -2.783557,0 -5.841226,2.0025 -7.109796,6.42905 -1.298777,4.53195 0.558384,7.16679 4.669486,7.16679 z m -1.224643,-7.00869 c 0.0088,-0.10533 0.04655,-0.23715 0.09187,-0.39525 0.667076,-2.02883 1.682019,-3.03006 2.731211,-3.03006 0.877883,0 1.197937,0.52696 0.956296,1.37012 -0.362447,1.26472 -1.70499,1.76535 -3.779363,2.05519 z m 11.617673,-11.69877 -5.28571,18.44399 h 3.46874 l 1.0949,-3.82054 c 0.30225,-0.15809 0.56922,-0.34254 0.82864,-0.50063 l 0.2913,1.44917 c 0.31032,2.0552 1.19979,3.13547 2.89135,3.13547 1.32753,0 2.72222,-0.46249 4.11235,-2.17513 l -0.19894,-2.96284 c -0.79204,0.89587 -1.70327,1.53183 -2.40986,1.53183 -0.8993,0 -1.38097,-0.40859 -1.68524,-1.23349 -0.30427,-0.82489 -0.12004,-1.99238 -0.12004,-1.99238 1.85995,-1.63363 3.57907,-3.7074 4.9576,-6.50035 h -3.46873 c -1.02726,2.23964 -2.30028,3.76785 -3.96762,4.95353 l 2.95999,-10.32863 z m 7.03599,11.90955 c -1.35919,4.74274 0.78618,6.42907 3.76884,6.79791 3.57201,0.44173 6.28455,-2.05517 7.64374,-6.79791 0.28694,-1.00125 0.41519,-1.89709 0.39109,-2.63486 -0.0336,-0.70371 -0.29871,-2.25812 -0.95289,-2.95101 -0.75087,-0.8168 -1.87951,-1.21203 -3.18563,-1.21203 -2.99768,0 -6.29842,2.02885 -7.66517,6.79794 z m 6.75903,-3.63609 c 1.30614,0 1.90216,1.13298 1.19237,3.60973 -0.70981,2.47677 -1.97032,3.66246 -3.27646,3.66246 -1.30612,0 -1.90845,-1.18569 -1.19866,-3.66246 0.70981,-2.47675 1.97663,-3.60973 3.28275,-3.60973 z"
       id="text1-6"
       aria-label="eko"
       sodipodi:nodetypes="sccscssssscssssccccccsccszcccccccssccsccsssss" />
    <path
       style="font-weight:bold;font-size:85.3333px;font-family:'Amio Trial';-inkscape-font-specification:'Amio Trial Bold';white-space:pre;fill:#000000;fill-opacity:1;stroke-width:0.264583"
       d="m 77.327774,54.417414 c 3.160888,0 5.53526,-0.97084 8.022297,-2.70933 l -0.98197,-1.76107 c -2.002442,1.19663 -3.845633,1.94169 -6.058254,1.94169 -1.377246,0 -2.241965,-0.42897 -2.481268,-1.28693 3.54067,-0.18062 6.585723,-1.19662 7.580991,-4.01884 0.867874,-2.46098 -0.64124,-3.81565 -3.508617,-3.81565 -2.93511,0 -6.159255,1.71591 -7.496895,5.50898 -1.36949,3.88338 0.588786,6.14115 4.923716,6.14115 z m -1.291315,-6.00568 c 0.0093,-0.0903 0.04909,-0.2032 0.09687,-0.33867 0.703394,-1.73849 1.7736,-2.59644 2.879911,-2.59644 0.925687,0 1.26316,0.45155 1.00837,1.17404 -0.382182,1.08373 -1.797821,1.51271 -3.985138,1.76107 z m 12.25022,-10.024533 -5.5735,15.804443 h 3.6576 l 1.154512,-3.27378 c 0.318708,-0.13547 0.600216,-0.29351 0.873767,-0.42898 l 0.307149,1.24178 c 0.327219,1.76107 1.265129,2.68675 3.048773,2.68675 1.39982,0 2.870444,-0.3963 4.336248,-1.86385 l -0.209768,-2.53881 c -0.835154,0.76764 -1.795999,1.3126 -2.541066,1.3126 -0.948267,0 -1.456156,-0.35013 -1.776994,-1.05697 -0.320838,-0.70684 -0.126569,-1.70725 -0.126569,-1.70725 1.96121,-1.39983 3.773936,-3.17683 5.227519,-5.57007 h -3.657597 c -1.083183,1.91911 -2.425519,3.22862 -4.183636,4.24462 l 3.121158,-8.850483 z m 7.419069,10.205153 c -1.433186,4.064 0.828985,5.509 3.974031,5.82506 3.766501,0.37851 6.626731,-1.76106 8.059921,-5.82506 0.30256,-0.85796 0.43781,-1.6256 0.41239,-2.25778 -0.0355,-0.603 -0.31497,-1.93496 -1.00478,-2.52868 -0.79176,-0.69991 -1.98184,-1.03858 -3.35908,-1.03858 -3.16089,0 -6.641347,1.73849 -8.082497,5.82507 z m 7.127042,-3.11573 c 1.37724,0 2.00571,0.97084 1.25727,3.09315 -0.74844,2.12231 -2.07758,3.13831 -3.45482,3.13831 -1.377248,0 -2.01237,-1.016 -1.26393,-3.13831 0.74844,-2.12231 2.08423,-3.09315 3.46148,-3.09315 z"
       id="text1-3"
       aria-label="eko"
       sodipodi:nodetypes="sccscssssscssssccccccsccszcccccccssccsccsssss" />
    <text
       xml:space="preserve"
       style="font-style:normal;font-variant:normal;font-weight:bold;font-stretch:normal;font-size:22.5778px;font-family:'Amio Trial';-inkscape-font-specification:'Amio Trial Bold';text-align:start;writing-mode:lr-tb;direction:ltr;text-anchor:start;fill:#ffffff;fill-opacity:1;stroke-width:0.264999;stroke-dasharray:none"
       x="112.59839"
       y="120.80869"
       id="text6"><tspan
         sodipodi:role="line"
         id="tspan6"
         style="fill:#000000;fill-opacity:1;stroke-width:0.265"
         x="112.59839"
         y="120.80869">eko</tspan></text>
    <path
       style="fill:#ffffff;fill-opacity:1;stroke-width:0.264999;stroke-dasharray:none"
       id="path7"
       d="m 140.81413,215.79709 c 1.39608,-0.0697 2.78859,-0.20051 4.18281,-0.3017 0.76987,-0.10165 1.51393,-0.24677 2.13508,-0.74326 0.357,-0.28536 0.44209,-0.59912 0.71009,-0.9812 0.0716,-0.10209 0.16629,-0.18587 0.24944,-0.2788 -0.0391,-0.50599 0.54429,-0.45268 0.71847,-0.7526 0.68681,-1.1826 -0.26637,-0.45081 0.55273,-1.54623 1.07001,-1.431 0.40298,0.62717 0.87766,-1.81006 0.22421,-0.56831 0.92229,-0.62134 1.26446,-1.04891 0.24801,-0.3099 0.28503,-0.76845 0.56846,-1.04633 0.48343,-0.47396 1.3478,-0.27127 1.89265,-0.44229 0.35317,-0.11084 0.65273,-0.3493 0.9791,-0.52395 0.69103,-0.21465 1.4204,0.16621 2.10936,0.0256 0.32924,-0.0672 0.57758,-0.35903 0.89968,-0.45476 0.31115,-0.0925 0.66437,0.0127 0.9686,-0.10047 1.45928,-0.54287 -0.17639,-0.63556 1.3546,-0.38168 1.88958,0.33197 -0.16951,0.0571 1.47843,0.0449 0.26014,-0.002 0.51964,0.0402 0.77565,0.0865 0.22157,0.04 0.42917,0.19283 0.65331,0.17153 0.65481,-0.37094 0.3057,-0.28162 1.04468,-0.27811 0.11447,-0.13045 0.22895,-0.2609 0.34342,-0.39135 0.0881,-0.0568 0.19388,-0.0928 0.26425,-0.17056 0.13972,-0.15429 0.23808,-0.50891 0.49508,-0.58393 0.82064,-0.23957 -0.46015,0.43825 0.70156,-0.2619 0.0854,-0.0201 0.18284,-0.0122 0.25624,-0.0603 0.14049,-0.0921 0.22626,-0.2529 0.36542,-0.34695 0.0667,-0.0451 0.15624,-0.0389 0.23436,-0.0584 0.13707,-0.0548 0.29403,-0.0747 0.4112,-0.16446 1.16808,-0.89513 -0.4527,0.0464 0.49708,-0.47865 0.56819,-0.35077 0.25756,-0.081 0.66833,-0.70612 0.0532,-0.081 0.12703,-0.14841 0.17326,-0.23362 0.0981,-0.18083 0.15156,-0.38458 0.25776,-0.56078 0.0546,-0.0906 0.14727,-0.15182 0.21872,-0.22977 0.11545,-0.12592 0.22795,-0.25451 0.34192,-0.38177 0.0889,-0.0591 0.17646,-0.12012 0.26654,-0.17733 0.0908,-0.0576 0.18982,-0.10269 0.27591,-0.16711 0.11616,-0.0869 0.44461,-0.37755 0.56806,-0.51424 0.52202,-0.57801 0.0676,-0.13885 0.45759,-0.50374 0.0528,-0.0895 0.0745,-0.20729 0.15841,-0.26858 0.0718,-0.0524 0.19325,0.0143 0.26388,-0.0397 0.0846,-0.0648 0.0806,-0.20291 0.154,-0.28015 0.0725,-0.0762 0.18718,-0.0988 0.26901,-0.16487 0.0691,-0.0558 0.11577,-0.13492 0.1792,-0.19704 0.086,-0.0842 0.17896,-0.16085 0.26844,-0.24127 0.29972,-0.33454 -0.0157,-0.0349 0.46114,-0.2943 0.0894,-0.0486 0.55021,-0.4272 0.60191,-0.48833 0.0404,-0.0478 0.0496,-0.11506 0.0744,-0.17258 0.6873,-0.19352 -0.3864,0.16906 0.26652,-0.32853 0.0614,-0.0468 -0.056,0.16501 -0.0161,0.23111 0.0326,0.0539 0.12119,0.0559 0.18329,0.0456 0.0515,-0.009 0.0797,-0.0678 0.1233,-0.0966 0.0579,-0.0383 0.12018,-0.0694 0.18027,-0.1041 -0.001,0.0483 -0.0307,0.18497 -0.003,0.14506 0.0122,-0.0179 0.2535,-0.43351 0.21128,-0.59132 -0.0237,-0.0886 -0.0923,-0.15926 -0.12622,-0.24448 -0.0653,-0.16403 0.0487,-0.23288 -0.15088,0.0433 -0.009,-0.33853 0.26217,0.0816 0.3181,-0.0933 0.0479,-0.14973 0.0498,-0.31078 0.0626,-0.46747 7.9e-4,-0.009 -0.0203,-0.0216 -0.0233,-0.0132 -0.0425,0.12051 -0.0683,0.2463 -0.10245,0.36945 0.52616,-0.30633 0.0518,-0.13542 0.29776,0.12908 0.0361,0.0388 0.0975,-0.0448 0.13743,-0.0796 0.0445,-0.0388 0.0641,-0.10244 0.11159,-0.1374 0.23206,-0.1707 0.0491,0.3537 0.15973,-0.33836 -0.0424,-0.0164 -0.29602,0.35883 -0.15859,0.40221 0.0797,0.0252 0.0809,-0.20538 0.16319,-0.19051 0.0734,0.0132 0.0841,0.25622 0.0172,0.22312 -1.10945,-0.5494 -4.31668,-2.42685 -3.23854,-1.8183 1.17173,0.66138 2.34622,1.31786 3.51933,1.97679 0.45403,0.42879 -0.1581,-0.0805 0.26288,0.0859 0.0558,0.0221 0.0791,0.0903 0.11862,0.13546 0.0766,0.0196 0.15319,0.0392 0.22978,0.0588 0,0 -3.02872,-2.44507 -3.02872,-2.44507 v 0 c -0.54045,-0.0864 -0.0179,0.0363 -0.41709,-0.15678 -0.022,-0.0106 -0.0487,0.002 -0.0731,0.003 -0.05,-0.0401 -0.1,-0.0801 -0.14999,-0.1202 1.05393,0.62409 4.26275,2.40913 3.16181,1.87228 -1.20764,-0.58887 -2.3002,-1.39125 -3.48285,-2.02883 -0.0706,-0.0381 -0.16114,0.0381 -0.23975,0.0219 -0.0265,-0.005 0.0819,-0.063 0.055,-0.0599 -0.0846,0.01 -0.19155,0.0133 -0.24199,0.082 -0.0656,0.0893 -0.0392,0.21813 -0.0587,0.3272 0.45947,-0.5611 0.10186,-0.0731 0.0329,-0.13096 -0.0403,-0.0338 0.1455,-0.11624 0.094,-0.12666 -0.34981,-0.0708 -0.19465,-0.0165 -0.37336,-0.0852 -0.12464,0.1024 -0.45693,0.32705 -0.30353,0.37689 0.0587,0.0191 0.11721,-0.0394 0.17706,-0.0546 0.0328,-0.008 -0.0639,0.0223 -0.0957,0.0339 -0.17799,0.0649 -0.12485,0.10457 -0.1939,0.0172 -0.0862,0.23439 -0.21916,0.37497 -0.0928,0.60552 0.0215,0.0393 0.0849,0.0402 0.10992,0.0774 0.0178,0.0265 -0.0241,0.0863 0.006,0.0957 0.0384,0.0118 0.11233,-0.0228 0.1034,-0.0619 -0.009,-0.0375 -0.0765,0.008 -0.11477,0.0121 -0.0354,0.004 -0.0707,0.0129 -0.10615,0.0107 -0.006,-2.7e-4 0.004,-0.0181 -0.002,-0.0174 -0.15669,0.0221 -0.369,0.0477 -0.47693,0.19237 -0.0164,0.022 0.0706,0.043 0.0524,0.0636 -0.0601,0.0678 -0.15524,0.0934 -0.23286,0.14012 -0.0248,0.065 -0.0307,0.14082 -0.0743,0.19502 -0.0424,0.0527 -0.11822,0.067 -0.17083,0.10956 -0.23614,0.19087 -0.0729,0.12605 -0.31801,0.26616 -0.46791,0.26747 -0.23244,0.0392 -0.54058,0.4366 -0.43591,0.26264 0.0458,-0.0541 -0.40002,0.34313 -0.0972,0.0866 -0.22235,0.14036 -0.31262,0.2342 -0.055,0.0572 -0.0515,0.16003 -0.11388,0.20915 -0.088,0.0693 -0.22358,0.0566 -0.31155,0.12602 -0.065,0.0513 -0.0816,0.14417 -0.12245,0.21626 -0.20994,0.24259 -0.41689,0.5112 -0.65397,0.728 -0.30312,0.27718 -0.28001,0.19439 -0.59205,0.44682 -0.10601,0.0858 -0.20287,0.18222 -0.30431,0.27334 -0.13774,0.15327 -0.46866,0.50426 -0.58454,0.69455 -0.0938,0.1541 -0.14837,0.32969 -0.23965,0.48531 -0.0572,0.0975 -0.13732,0.17969 -0.20396,0.27104 -0.31901,0.43725 -0.0906,0.22911 -0.60386,0.5384 -0.0983,0.0713 -0.20502,0.13228 -0.29485,0.214 -0.0596,0.0542 -0.0821,0.14546 -0.14915,0.18994 -0.13566,0.0899 -0.29801,0.13124 -0.44397,0.20326 -0.30777,0.15187 -0.56547,0.37445 -0.89139,0.49138 -0.19989,0.0787 -0.58624,0.22163 -0.74052,0.33299 -0.11647,0.0841 -0.34258,0.42734 -0.45246,0.53208 -0.0863,0.0822 -0.19674,0.13598 -0.28466,0.21648 -0.0704,0.0645 -0.12521,0.14409 -0.18781,0.21613 -0.20302,0.0209 -0.41077,0.0146 -0.60906,0.0629 -0.1125,0.0274 -0.19217,0.16018 -0.30795,0.16073 -0.22601,10e-4 -0.4357,-0.12686 -0.65981,-0.15615 -0.279,-0.0365 -0.56187,-0.0471 -0.84316,-0.0403 -1.56916,0.0383 0.82288,0.21614 -1.43049,-0.0179 -2.54965,0.19165 0.45894,-0.18876 -1.37712,0.44575 -0.31735,0.10967 -0.67572,0.045 -0.99732,0.14148 -0.27139,0.0814 -0.47962,0.33115 -0.75778,0.38512 -0.7346,0.14254 -1.51336,-0.19582 -2.24343,0.0812 -2.47195,1.27299 0.85567,-0.33221 -2.09618,0.69395 -1.28398,0.44635 -0.62376,0.43044 -1.44344,1.37705 -0.40224,0.46453 -1.09618,0.63429 -1.3323,1.27405 -0.48046,2.0826 0.15706,0.24097 -0.92593,1.7071 -0.17031,0.23055 -0.24191,0.51973 -0.36287,0.7796 -0.0604,0.18745 -0.0675,0.40153 -0.18118,0.56235 -0.11484,0.16248 -0.33853,0.21732 -0.47335,0.36366 -0.1323,0.14361 -0.21069,0.3288 -0.31604,0.4932 -0.0861,0.10377 -0.17946,0.20192 -0.25831,0.3113 -0.17435,0.24188 -0.36445,0.63083 -0.61688,0.82693 -0.54312,0.42191 -1.28066,0.50321 -1.93033,0.60773 -1.43737,0.10992 -2.88135,0.21352 -4.32353,0.17082 z" />
    <path
       style="fill:#ffffff;fill-opacity:1;stroke-width:0.264999;stroke-dasharray:none"
       id="path8"
       d="m 153.29763,199.54963 c 0.12221,-0.20825 0.45615,-0.72811 0.4692,-0.72569 0.20938,0.0388 0.73793,0.40072 0.52938,0.35765 -1.52645,-0.31529 -5.8098,-2.97 2.42717,1.63386 0.36691,0.22631 1.25399,1.10916 1.86637,0.52929 0.0257,-0.0243 0.4602,-1.5804 0.47194,-1.62934 0.0588,-0.24498 -0.10518,-0.72091 0.1459,-0.74158 0.42743,-0.0352 0.74503,0.42506 1.11754,0.63759 1.94599,1.16642 1.88261,1.16704 3.98852,2.2589 0.76922,0.39882 1.5351,0.80625 2.32465,1.16316 0.65793,0.29742 1.4162,1.20327 2.01376,0.79798 0.60109,-0.40768 0.23506,-1.48441 0.0222,-2.17882 -0.39928,-1.30244 -1.20864,-2.44179 -1.81296,-3.66268 -0.5997,-1.3076 1.54189,-0.99605 1.57327,-1.78974 0.14633,-3.70077 -1.91843,-2.00662 -2.24181,-5.96817 -0.0542,-0.66397 2.56415,-0.57384 2.60173,-0.57507 0.14081,-0.49073 0.28162,-0.98146 0.42244,-1.47219 -0.18799,-0.80756 -0.77841,-1.62173 -0.56397,-2.42268 0.11147,-0.41634 0.84217,-0.21817 1.27311,-0.22608 1.57697,-0.029 2.33976,1.00743 1.94169,-1.60711 -0.14004,-0.91979 -0.62308,-1.75336 -0.93462,-2.63005 0.33375,-0.27085 0.5966,-0.6676 1.00126,-0.81254 0.34408,-0.12325 2.84006,0.027 3.03914,0.0366 0.58124,0.0278 1.36048,0.52677 1.74346,0.0887 0.934,-1.0684 -1.40429,-4.71337 -1.51744,-4.93948 0.42444,-1.11375 0.41562,-1.12733 0.86296,-2.16969 0.30786,-0.71734 0.6475,-1.19167 0.5643,-2.01271 -0.10079,-0.99465 -0.62789,-2.07569 -0.99877,-2.97515 -0.67269,-1.2266 -0.89672,-1.69291 -1.64055,-2.83779 -0.25432,-0.39144 -0.53128,-0.7677 -0.79693,-1.15155 0,0 -2.95333,-1.28648 -2.95333,-1.28648 v 0 c 0.28824,0.38861 0.58872,0.76844 0.86472,1.16584 0.91966,1.32416 0.86919,1.33384 1.63655,2.77622 0.3168,0.82073 0.76173,1.7907 0.84953,2.68986 0.0854,0.87453 -0.23251,1.15219 -0.4951,1.97102 -0.47637,1.48544 -0.32074,1.08566 -0.0995,2.81692 0.31534,0.86058 0.68236,1.70395 0.94603,2.58174 0.15137,0.50395 0.66249,1.17383 0.29528,1.55071 -0.40202,0.41261 -1.15108,-0.0505 -1.72631,-0.082 -0.425,-0.0233 -2.98459,-0.2887 -3.46395,0.0651 -0.39735,0.29327 -0.32371,0.93316 -0.48557,1.39974 0.17514,0.77116 0.39357,1.53375 0.52543,2.31348 0.0796,0.47062 0.51158,1.17417 0.10729,1.42787 -0.57832,0.36291 -1.367,-0.34977 -2.03674,-0.2171 -1.7669,0.35001 -0.82837,1.87151 -0.78794,2.95592 0.0143,0.38417 -0.088,0.76383 -0.13195,1.14574 -0.58037,0.0589 -1.2661,-0.1618 -1.74111,0.17684 -0.36747,0.26197 -0.41675,0.86414 -0.34381,1.3095 0.0948,0.57853 1.62509,3.98279 1.42779,5.0732 -0.0759,0.41932 -0.60184,0.60344 -0.90276,0.90516 0.0649,0.6025 0.12975,1.205 0.19463,1.80751 0.35622,1.07358 0.74405,2.13718 1.06866,3.22074 0.17079,0.5701 0.89711,1.38545 0.41631,1.73619 -0.52954,0.38632 -1.24057,-0.42934 -1.83799,-0.69906 -0.80046,-0.3614 -1.57249,-0.78304 -2.34989,-1.19169 -2.1874,-1.14985 -2.26204,-1.23804 -4.39861,-2.52606 -0.56748,-0.111 -1.13881,-0.46221 -1.70243,-0.33303 -0.25312,0.058 -0.0928,0.51201 -0.16578,0.76123 -0.0725,0.24763 -0.19064,0.47995 -0.26955,0.72561 -0.0144,0.0447 -0.051,0.77529 -0.41492,0.63057 -0.40461,-0.16093 -0.74054,-0.4583 -1.11081,-0.68745 0.52022,0.35044 2.08681,1.39283 1.56067,1.05133 -0.66224,-0.42984 -3.24262,-3.05831 -5.13565,-2.86776 -0.0898,0.009 -0.11231,0.14141 -0.17258,0.20858 -0.16252,0.18113 -0.26519,0.27664 -0.43202,0.43909 z" />
    <path
       style="fill:#ffffff;fill-opacity:1;stroke-width:0.264999;stroke-dasharray:none"
       id="path9"
       d="m 153.38464,184.84977 c -0.0922,-0.14752 -0.18345,-0.29563 -0.27658,-0.44256 -0.47223,-0.74505 -0.74066,-1.13184 -1.186,-1.93918 -0.28448,-0.51571 -0.55625,-1.03852 -0.81926,-1.56551 -0.24701,-0.49493 -0.4924,-0.99131 -0.71047,-1.49964 -0.25743,-0.60007 -0.47681,-1.21575 -0.71522,-1.82362 -0.80682,-2.01204 -0.7591,-1.771 -1.38614,-3.80431 -0.18747,-0.60793 -0.76571,-1.24188 -0.53101,-1.83318 0.14806,-0.37303 0.80253,0.0716 1.19239,0.16689 0.7531,0.18406 2.65053,0.92557 3.28675,1.16454 1.42704,0.38167 2.62771,1.27209 3.98166,1.8144 0.57809,0.23154 1.18063,0.40994 1.79211,0.52782 0.67008,0.12918 1.65716,0.0872 2.34116,-0.0555 0.31812,-0.0664 0.62124,-0.19099 0.93185,-0.28648 -0.15928,-0.65282 -0.25385,-1.32492 -0.47784,-1.95847 -0.47689,-1.34891 -1.57498,-3.30569 -2.15477,-4.59976 -0.30026,-0.67017 -0.81504,-1.31042 -0.82007,-2.04476 -0.004,-0.636 1.70495,-0.29928 1.77032,-0.29288 0.18517,-0.28596 0.45947,-0.53102 0.5555,-0.85788 0.0151,-0.0515 0.0427,-2.09086 0.0467,-2.1865 0.0143,-0.34439 0.0585,-0.68726 0.0683,-1.0318 0.0691,-2.42655 -0.1095,0.18896 0.0717,-2.09441 0.3299,0.0633 0.65648,0.14739 0.9897,0.1898 0.42239,0.0538 0.85484,0.0212 1.2736,0.0983 1.77224,0.32622 1.48089,0.54124 3.31515,1.12565 1.13405,0.36132 2.00424,0.45305 3.15502,0.62821 0.18872,-0.28278 0.50421,-0.51407 0.56614,-0.84835 0.0799,-0.43131 -0.27427,-0.8799 -0.16718,-1.30527 0.10449,-0.41506 1.18758,-0.3195 1.34907,-0.40286 0.62647,-0.32338 0.54648,-0.76578 0.62959,-1.34217 0.0416,-0.12205 0.22935,-0.75929 0.37034,-0.87848 0.0794,-0.0671 0.20827,-0.0209 0.3076,-0.0515 0.52142,-0.16104 0.14168,-0.23454 0.67491,0.0183 0,0 -3.01312,-2.2213 -3.01312,-2.2213 v 0 c -0.16363,-0.0146 -0.32904,-0.072 -0.49089,-0.0439 -0.12274,0.0213 -0.21963,0.11821 -0.32434,0.18571 -0.13798,0.089 -0.3023,0.15347 -0.40298,0.28314 -0.13776,0.17743 -0.26106,0.86638 -0.29885,1.03776 -0.0178,0.25545 0.024,0.84042 -0.29516,1.01434 -0.28679,0.15628 -0.68128,0.0367 -0.9565,0.21254 -0.79649,0.50898 -0.41771,1.03301 -0.42651,1.77847 -0.003,0.21964 -0.0653,0.43443 -0.0979,0.65165 -0.92431,-0.0983 -1.89725,-0.16265 -2.78997,-0.44409 -0.6543,-0.20628 -1.26017,-0.5452 -1.90616,-0.77619 -1.11968,-0.40037 -2.03595,-0.71373 -3.21935,-0.68371 -0.42585,0.0108 -0.84188,0.13076 -1.26282,0.19614 -0.0671,1.41562 -0.0486,0.7051 -0.0547,2.13157 -0.0136,0.33978 -0.0634,0.6774 -0.0788,1.0171 -0.0231,0.51195 0.0119,1.4843 -0.0752,2.00649 -0.0367,0.21987 -0.13694,0.42427 -0.2054,0.6364 -0.43247,0.0304 -0.95158,-0.17022 -1.2974,0.0912 -0.28203,0.21324 -0.28415,0.69791 -0.20084,1.04153 0.18331,0.75606 0.64279,1.41696 0.96823,2.12359 0.34831,0.7563 0.74529,1.49146 1.05302,2.26516 0.49994,1.25699 0.6918,2.14782 1.00422,3.39297 -0.28199,0.0917 -0.55679,0.20951 -0.84596,0.27511 -0.44336,0.10059 -1.54953,0.20725 -1.98432,0.15767 -0.48573,-0.0554 -0.97677,-0.13548 -1.43359,-0.30961 -1.41632,-0.53987 -2.64379,-1.51412 -4.1289,-1.90499 -0.41983,-0.16274 -3.41154,-1.36426 -3.87459,-1.37492 -0.36422,-0.008 -0.87026,0.21013 -0.93318,0.56898 -0.1095,0.62455 0.32346,1.22665 0.51223,1.83198 0.20276,0.65017 1.09206,3.14813 1.32149,3.79744 0.19949,0.59231 0.37376,1.19372 0.59849,1.77693 0.1964,0.50967 0.45124,0.99499 0.66355,1.49824 0.20447,0.48465 0.37888,0.9817 0.58659,1.46496 0.15253,0.3549 0.33847,0.69472 0.4937,1.04846 0.16186,0.36887 0.28443,0.75403 0.44086,1.12518 z" />
  </g>
</svg>
