<svg xmlns="http://www.w3.org/2000/svg" width="59.376" height="32.064" viewBox="0 -30.72 59.376 32.064"><title>eko</title><g transform=""><path d="M 14.64 1.344 L 14.64 1.344 L 0.72 -2.448 L 1.536 -5.52 L 1.536 -18.816 L 5.712 -18.816 L 4.848 -19.536 L 9.504 -25.104 L 18.432 -17.52 L 13.776 -12 L 14.544 -9.216 L 9.024 -7.68 L 16.512 -5.664 Z M 8.784 -16.176 L 8.784 -16.176 L 8.784 -13.008 L 11.616 -13.776 Z " /><path d="M 28.32 0 L 28.32 0 L 19.872 -2.304 L 21.36 -7.872 L 21.36 -27.792 L 28.608 -30.72 L 28.608 -22.56 L 38.352 -28.32 L 38.352 -19.92 L 35.088 -18 L 32.016 -18.72 L 38.352 -14.976 L 38.352 -14.976 L 38.352 -14.976 L 38.352 -2.928 L 31.104 0 L 31.104 -10.848 L 28.608 -12.288 L 28.608 -7.44 L 30.192 -7.008 Z " /><path d="M 39.744 -2.352 L 39.744 -2.352 L 40.272 -4.32 L 40.272 -18.816 L 42.48 -18.816 L 44.208 -25.296 L 58.656 -21.312 L 57.552 -17.232 L 57.552 -4.128 L 52.416 -4.128 L 51.12 0.72 Z M 47.52 -7.776 L 47.52 -7.776 L 50.304 -7.008 L 50.304 -16.08 L 47.52 -16.848 Z " /></g></svg>