<svg xmlns="http://www.w3.org/2000/svg" width="81.888" height="36.672" viewBox="0 -36.144 81.888 36.672"><title>eko</title><g transform=""><path d="M 15.984 -6.912 L 15.984 -6.912 Q 15.888 -6.144 15.24 -5.568 Q 14.592 -4.992 13.776 -4.992 Q 13.056 -4.992 12.552 -5.448 Q 12.048 -5.904 12.048 -6.72 Q 12.048 -7.584 12.912 -8.208 Q 13.776 -8.832 15.12 -8.832 Q 16.56 -8.832 17.376 -7.872 Q 18.192 -6.912 18.192 -5.472 Q 18.192 -2.88 16.248 -1.176 Q 14.304 0.528 10.944 0.528 Q 6.912 0.528 4.224 -2.016 Q 1.536 -4.56 1.536 -9.36 Q 1.536 -12.768 3 -16.008 Q 4.464 -19.248 7.32 -21.432 Q 10.176 -23.616 13.68 -23.616 Q 17.088 -23.616 18.984 -22.008 Q 20.88 -20.4 20.88 -18.096 Q 20.88 -14.688 17.808 -12.72 Q 14.736 -10.752 10.704 -10.752 Q 7.008 -10.752 4.656 -12.336 Q 4.176 -10.896 4.176 -9.024 Q 4.176 -5.568 6.048 -3.6 Q 7.92 -1.632 11.328 -1.632 Q 13.104 -1.632 14.712 -2.616 Q 16.32 -3.6 16.32 -5.28 Q 16.32 -6.24 15.984 -6.912 Z M 5.328 -14.112 L 5.328 -14.112 Q 7.104 -12.864 10.272 -12.864 Q 13.536 -12.864 16.008 -14.28 Q 18.48 -15.696 18.48 -18.336 Q 18.48 -21.456 14.352 -21.456 Q 11.136 -21.456 8.64 -19.296 Q 6.144 -17.136 5.328 -14.112 Z " /><path d="M 47.808 -31.296 L 47.808 -31.296 Q 47.808 -29.664 46.872 -28.56 Q 45.936 -27.456 44.256 -27.456 Q 43.2 -27.456 42.456 -27.984 Q 41.712 -28.512 41.712 -29.568 Q 41.712 -30.288 42.144 -30.768 Q 42.576 -31.248 43.344 -31.248 Q 44.544 -31.248 44.928 -29.712 Q 45.84 -29.952 45.84 -31.776 Q 45.84 -32.64 45.144 -33.288 Q 44.448 -33.936 43.344 -33.936 Q 42.336 -33.936 41.52 -33.624 Q 40.704 -33.312 40.104 -32.568 Q 39.504 -31.824 39.048 -31.056 Q 38.592 -30.288 38.28 -28.968 Q 37.968 -27.648 37.752 -26.616 Q 37.536 -25.584 37.368 -23.832 Q 37.2 -22.08 37.128 -20.976 Q 37.056 -19.872 36.936 -17.88 Q 36.816 -15.888 36.72 -14.832 Q 38.448 -15.984 40.944 -16.224 Q 41.28 -17.856 41.64 -18.96 Q 42 -20.064 42.696 -21.216 Q 43.392 -22.368 44.616 -22.968 Q 45.84 -23.568 47.568 -23.568 Q 49.632 -23.568 51.192 -22.416 Q 52.752 -21.264 52.752 -19.2 Q 52.752 -18.24 52.128 -17.424 Q 51.504 -16.608 50.592 -16.608 Q 49.776 -16.608 49.272 -17.16 Q 48.768 -17.712 48.768 -18.48 Q 48.768 -19.872 49.92 -20.496 Q 49.104 -21.6 47.76 -21.6 Q 45.504 -21.6 44.568 -20.184 Q 43.632 -18.768 43.152 -16.128 Q 44.736 -15.744 45.624 -14.592 Q 46.512 -13.44 46.512 -11.712 Q 46.512 -10.032 46.104 -7.656 Q 45.696 -5.28 45.696 -4.32 Q 45.696 -3.12 46.512 -2.4 Q 47.328 -1.68 48.288 -1.68 Q 49.68 -1.68 50.856 -2.544 Q 52.032 -3.408 52.128 -4.656 Q 49.872 -4.656 49.728 -6.576 Q 49.776 -7.44 50.328 -8.016 Q 50.88 -8.592 51.792 -8.592 Q 52.992 -8.592 53.76 -7.464 Q 54.528 -6.336 54.528 -4.992 Q 54.528 -2.688 52.704 -1.08 Q 50.88 0.528 48.528 0.528 Q 46.32 0.528 44.808 -0.768 Q 43.296 -2.064 43.296 -4.56 Q 43.296 -5.28 43.656 -7.992 Q 44.016 -10.704 44.016 -11.76 Q 44.016 -12.912 43.224 -13.464 Q 42.432 -14.016 41.376 -14.016 Q 39.216 -14.016 36.528 -12.432 Q 36.288 -9.552 35.832 -7.464 Q 35.376 -5.376 34.536 -3.456 Q 33.696 -1.536 32.256 -0.528 Q 30.816 0.48 28.752 0.528 Q 26.352 0.528 24.96 -0.72 Q 23.568 -1.968 23.568 -4.464 Q 23.568 -6.48 24.984 -7.656 Q 26.4 -8.832 27.984 -8.832 Q 28.896 -8.832 29.52 -8.208 Q 30.144 -7.584 30.144 -6.672 Q 30.144 -5.76 29.52 -5.136 Q 28.896 -4.512 27.984 -4.512 Q 26.784 -4.512 26.16 -5.472 Q 25.872 -4.896 25.872 -4.08 Q 25.872 -3.072 26.52 -2.472 Q 27.168 -1.872 28.464 -1.872 Q 30.768 -1.872 32.088 -3.72 Q 33.408 -5.568 33.864 -8.568 Q 34.32 -11.568 34.464 -15.168 Q 34.608 -18.768 34.896 -22.392 Q 35.184 -26.016 35.856 -29.064 Q 36.528 -32.112 38.328 -34.056 Q 40.128 -36 43.008 -36.144 Q 45.312 -36.144 46.56 -34.776 Q 47.808 -33.408 47.808 -31.296 Z " /><path d="M 67.392 0.432 L 67.392 0.432 Q 62.496 0.432 59.88 -2.328 Q 57.264 -5.088 57.264 -9.504 Q 57.264 -11.088 57.672 -12.864 Q 58.08 -14.64 59.04 -16.56 Q 60 -18.48 61.44 -19.992 Q 62.88 -21.504 65.136 -22.488 Q 67.392 -23.472 70.128 -23.472 Q 75.024 -23.472 77.664 -20.712 Q 80.304 -17.952 80.304 -13.536 Q 80.304 -11.952 79.896 -10.152 Q 79.488 -8.352 78.48 -6.456 Q 77.472 -4.56 76.056 -3.048 Q 74.64 -1.536 72.384 -0.552 Q 70.128 0.432 67.392 0.432 Z M 67.392 -1.584 L 67.392 -1.584 Q 70.608 -1.584 73.056 -3.432 Q 75.504 -5.28 76.656 -7.872 Q 77.808 -10.464 77.808 -13.152 Q 77.808 -15.216 77.184 -16.968 Q 76.56 -18.72 74.784 -20.088 Q 73.008 -21.456 70.224 -21.456 Q 67.008 -21.456 64.536 -19.608 Q 62.064 -17.76 60.912 -15.168 Q 59.76 -12.576 59.76 -9.888 Q 59.76 -7.824 60.384 -6.072 Q 61.008 -4.32 62.808 -2.952 Q 64.608 -1.584 67.392 -1.584 Z M 67.104 -12.768 L 67.104 -12.768 Q 66.144 -13.632 66.144 -14.016 Q 66.144 -14.448 66.72 -14.808 Q 67.296 -15.168 67.824 -15.168 Q 68.064 -15.168 68.208 -14.856 Q 68.352 -14.544 68.4 -13.968 Q 68.448 -13.392 68.448 -13.344 Q 68.88 -13.344 69.264 -13.248 Q 69.312 -13.296 69.48 -13.872 Q 69.648 -14.448 69.84 -14.712 Q 70.032 -14.976 70.272 -14.976 Q 70.848 -14.976 71.424 -14.496 Q 72 -14.016 72 -13.488 Q 72 -13.2 70.512 -12.528 Q 70.752 -12.288 70.8 -12.048 Q 71.952 -12.624 72.24 -12.624 Q 73.152 -12.624 73.152 -11.568 Q 73.152 -10.08 71.952 -10.08 Q 71.808 -10.08 70.752 -10.512 Q 70.704 -10.368 70.272 -9.936 Q 71.376 -8.832 71.376 -8.448 Q 71.376 -7.968 70.872 -7.656 Q 70.368 -7.344 69.792 -7.344 Q 69.264 -7.344 69.024 -9.408 Q 68.688 -9.312 68.352 -9.408 Q 68.304 -9.36 68.064 -8.664 Q 67.824 -7.968 67.584 -7.632 Q 67.344 -7.296 67.104 -7.296 Q 66.576 -7.296 66 -7.776 Q 65.424 -8.256 65.424 -8.784 Q 65.424 -8.976 66.912 -10.08 Q 66.72 -10.272 66.528 -10.656 Q 66.288 -10.416 65.184 -10.416 Q 64.416 -10.416 64.416 -11.472 Q 64.416 -12.384 65.232 -12.384 Q 66.336 -12.384 66.576 -12.192 Q 66.768 -12.576 67.104 -12.768 Z M 67.632 -12.24 L 67.632 -12.24 Q 67.248 -11.856 67.248 -11.328 Q 67.248 -10.8 67.656 -10.392 Q 68.064 -9.984 68.592 -9.984 Q 69.12 -9.984 69.528 -10.392 Q 69.936 -10.8 69.936 -11.328 Q 69.936 -11.856 69.528 -12.264 Q 69.12 -12.672 68.592 -12.672 Q 68.064 -12.672 67.632 -12.24 Z " /></g></svg>