<svg xmlns="http://www.w3.org/2000/svg" width="86.4" height="33.12" viewBox="0 -33.36 86.4 33.12"><title>eko</title><g transform=""><path d="M 5.088 -23.76 L 5.088 -23.76 L 5.088 -23.76 Q 5.04 -23.76 5.04 -23.76 Q 5.04 -23.76 5.04 -23.712 L 5.04 -19.488 Q 5.04 -19.44 5.04 -19.44 Q 5.04 -19.44 5.088 -19.44 L 9.312 -19.44 Q 9.36 -19.44 9.36 -19.44 Q 9.36 -19.44 9.36 -19.488 L 9.36 -23.712 Q 9.36 -23.76 9.36 -23.76 Q 9.36 -23.76 9.312 -23.76 Z M 9.888 -23.76 L 9.888 -23.76 L 9.888 -23.76 Q 9.84 -23.76 9.84 -23.76 Q 9.84 -23.76 9.84 -23.712 L 9.84 -19.488 Q 9.84 -19.44 9.84 -19.44 Q 9.84 -19.44 9.888 -19.44 L 14.112 -19.44 Q 14.16 -19.44 14.16 -19.44 Q 14.16 -19.44 14.16 -19.488 L 14.16 -23.712 Q 14.16 -23.76 14.16 -23.76 Q 14.16 -23.76 14.112 -23.76 Z M 14.688 -23.76 L 14.688 -23.76 L 14.688 -23.76 Q 14.64 -23.76 14.64 -23.76 Q 14.64 -23.76 14.64 -23.712 L 14.64 -19.488 Q 14.64 -19.44 14.64 -19.44 Q 14.64 -19.44 14.688 -19.44 L 18.912 -19.44 Q 18.96 -19.44 18.96 -19.44 Q 18.96 -19.44 18.96 -19.488 L 18.96 -23.712 Q 18.96 -23.76 18.96 -23.76 Q 18.96 -23.76 18.912 -23.76 Z M 0.288 -18.96 L 0.288 -18.96 L 0.288 -18.96 Q 0.24 -18.96 0.24 -18.96 Q 0.24 -18.96 0.24 -18.912 L 0.24 -14.688 Q 0.24 -14.64 0.24 -14.64 Q 0.24 -14.64 0.288 -14.64 L 4.512 -14.64 Q 4.56 -14.64 4.56 -14.64 Q 4.56 -14.64 4.56 -14.688 L 4.56 -18.912 Q 4.56 -18.96 4.56 -18.96 Q 4.56 -18.96 4.512 -18.96 Z M 19.488 -18.96 L 19.488 -18.96 L 19.488 -18.96 Q 19.44 -18.96 19.44 -18.96 Q 19.44 -18.96 19.44 -18.912 L 19.44 -14.688 Q 19.44 -14.64 19.44 -14.64 Q 19.44 -14.64 19.488 -14.64 L 23.712 -14.64 Q 23.76 -14.64 23.76 -14.64 Q 23.76 -14.64 23.76 -14.688 L 23.76 -18.912 Q 23.76 -18.96 23.76 -18.96 Q 23.76 -18.96 23.712 -18.96 Z M 0.288 -14.16 L 0.288 -14.16 L 0.288 -14.16 Q 0.24 -14.16 0.24 -14.16 Q 0.24 -14.16 0.24 -14.112 L 0.24 -9.888 Q 0.24 -9.84 0.24 -9.84 Q 0.24 -9.84 0.288 -9.84 L 4.512 -9.84 Q 4.56 -9.84 4.56 -9.84 Q 4.56 -9.84 4.56 -9.888 L 4.56 -14.112 Q 4.56 -14.16 4.56 -14.16 Q 4.56 -14.16 4.512 -14.16 Z M 5.088 -14.16 L 5.088 -14.16 L 5.088 -14.16 Q 5.04 -14.16 5.04 -14.16 Q 5.04 -14.16 5.04 -14.112 L 5.04 -9.888 Q 5.04 -9.84 5.04 -9.84 Q 5.04 -9.84 5.088 -9.84 L 9.312 -9.84 Q 9.36 -9.84 9.36 -9.84 Q 9.36 -9.84 9.36 -9.888 L 9.36 -14.112 Q 9.36 -14.16 9.36 -14.16 Q 9.36 -14.16 9.312 -14.16 Z M 9.888 -14.16 L 9.888 -14.16 L 9.888 -14.16 Q 9.84 -14.16 9.84 -14.16 Q 9.84 -14.16 9.84 -14.112 L 9.84 -9.888 Q 9.84 -9.84 9.84 -9.84 Q 9.84 -9.84 9.888 -9.84 L 14.112 -9.84 Q 14.16 -9.84 14.16 -9.84 Q 14.16 -9.84 14.16 -9.888 L 14.16 -14.112 Q 14.16 -14.16 14.16 -14.16 Q 14.16 -14.16 14.112 -14.16 Z M 14.688 -14.16 L 14.688 -14.16 L 14.688 -14.16 Q 14.64 -14.16 14.64 -14.16 Q 14.64 -14.16 14.64 -14.112 L 14.64 -9.888 Q 14.64 -9.84 14.64 -9.84 Q 14.64 -9.84 14.688 -9.84 L 18.912 -9.84 Q 18.96 -9.84 18.96 -9.84 Q 18.96 -9.84 18.96 -9.888 L 18.96 -14.112 Q 18.96 -14.16 18.96 -14.16 Q 18.96 -14.16 18.912 -14.16 Z M 19.488 -14.16 L 19.488 -14.16 L 19.488 -14.16 Q 19.44 -14.16 19.44 -14.16 Q 19.44 -14.16 19.44 -14.112 L 19.44 -9.888 Q 19.44 -9.84 19.44 -9.84 Q 19.44 -9.84 19.488 -9.84 L 23.712 -9.84 Q 23.76 -9.84 23.76 -9.84 Q 23.76 -9.84 23.76 -9.888 L 23.76 -14.112 Q 23.76 -14.16 23.76 -14.16 Q 23.76 -14.16 23.712 -14.16 Z M 0.288 -9.36 L 0.288 -9.36 L 0.288 -9.36 Q 0.24 -9.36 0.24 -9.36 Q 0.24 -9.36 0.24 -9.312 L 0.24 -5.088 Q 0.24 -5.04 0.24 -5.04 Q 0.24 -5.04 0.288 -5.04 L 4.512 -5.04 Q 4.56 -5.04 4.56 -5.04 Q 4.56 -5.04 4.56 -5.088 L 4.56 -9.312 Q 4.56 -9.36 4.56 -9.36 Q 4.56 -9.36 4.512 -9.36 Z M 5.088 -4.56 L 5.088 -4.56 L 5.088 -4.56 Q 5.04 -4.56 5.04 -4.56 Q 5.04 -4.56 5.04 -4.512 L 5.04 -0.288 Q 5.04 -0.24 5.04 -0.24 Q 5.04 -0.24 5.088 -0.24 L 9.312 -0.24 Q 9.36 -0.24 9.36 -0.24 Q 9.36 -0.24 9.36 -0.288 L 9.36 -4.512 Q 9.36 -4.56 9.36 -4.56 Q 9.36 -4.56 9.312 -4.56 Z M 9.888 -4.56 L 9.888 -4.56 L 9.888 -4.56 Q 9.84 -4.56 9.84 -4.56 Q 9.84 -4.56 9.84 -4.512 L 9.84 -0.288 Q 9.84 -0.24 9.84 -0.24 Q 9.84 -0.24 9.888 -0.24 L 14.112 -0.24 Q 14.16 -0.24 14.16 -0.24 Q 14.16 -0.24 14.16 -0.288 L 14.16 -4.512 Q 14.16 -4.56 14.16 -4.56 Q 14.16 -4.56 14.112 -4.56 Z M 14.688 -4.56 L 14.688 -4.56 L 14.688 -4.56 Q 14.64 -4.56 14.64 -4.56 Q 14.64 -4.56 14.64 -4.512 L 14.64 -0.288 Q 14.64 -0.24 14.64 -0.24 Q 14.64 -0.24 14.688 -0.24 L 18.912 -0.24 Q 18.96 -0.24 18.96 -0.24 Q 18.96 -0.24 18.96 -0.288 L 18.96 -4.512 Q 18.96 -4.56 18.96 -4.56 Q 18.96 -4.56 18.912 -4.56 Z " /><path d="M 29.088 -33.36 L 29.088 -33.36 L 29.088 -33.36 Q 29.04 -33.36 29.04 -33.36 Q 29.04 -33.36 29.04 -33.312 L 29.04 -29.088 Q 29.04 -29.04 29.04 -29.04 Q 29.04 -29.04 29.088 -29.04 L 33.312 -29.04 Q 33.36 -29.04 33.36 -29.04 Q 33.36 -29.04 33.36 -29.088 L 33.36 -33.312 Q 33.36 -33.36 33.36 -33.36 Q 33.36 -33.36 33.312 -33.36 Z M 29.088 -28.56 L 29.088 -28.56 L 29.088 -28.56 Q 29.04 -28.56 29.04 -28.56 Q 29.04 -28.56 29.04 -28.512 L 29.04 -24.288 Q 29.04 -24.24 29.04 -24.24 Q 29.04 -24.24 29.088 -24.24 L 33.312 -24.24 Q 33.36 -24.24 33.36 -24.24 Q 33.36 -24.24 33.36 -24.288 L 33.36 -28.512 Q 33.36 -28.56 33.36 -28.56 Q 33.36 -28.56 33.312 -28.56 Z M 29.088 -23.76 L 29.088 -23.76 L 29.088 -23.76 Q 29.04 -23.76 29.04 -23.76 Q 29.04 -23.76 29.04 -23.712 L 29.04 -19.488 Q 29.04 -19.44 29.04 -19.44 Q 29.04 -19.44 29.088 -19.44 L 33.312 -19.44 Q 33.36 -19.44 33.36 -19.44 Q 33.36 -19.44 33.36 -19.488 L 33.36 -23.712 Q 33.36 -23.76 33.36 -23.76 Q 33.36 -23.76 33.312 -23.76 Z M 48.288 -23.76 L 48.288 -23.76 L 48.288 -23.76 Q 48.24 -23.76 48.24 -23.76 Q 48.24 -23.76 48.24 -23.712 L 48.24 -19.488 Q 48.24 -19.44 48.24 -19.44 Q 48.24 -19.44 48.288 -19.44 L 52.512 -19.44 Q 52.56 -19.44 52.56 -19.44 Q 52.56 -19.44 52.56 -19.488 L 52.56 -23.712 Q 52.56 -23.76 52.56 -23.76 Q 52.56 -23.76 52.512 -23.76 Z M 29.088 -18.96 L 29.088 -18.96 L 29.088 -18.96 Q 29.04 -18.96 29.04 -18.96 Q 29.04 -18.96 29.04 -18.912 L 29.04 -14.688 Q 29.04 -14.64 29.04 -14.64 Q 29.04 -14.64 29.088 -14.64 L 33.312 -14.64 Q 33.36 -14.64 33.36 -14.64 Q 33.36 -14.64 33.36 -14.688 L 33.36 -18.912 Q 33.36 -18.96 33.36 -18.96 Q 33.36 -18.96 33.312 -18.96 Z M 43.488 -18.96 L 43.488 -18.96 L 43.488 -18.96 Q 43.44 -18.96 43.44 -18.96 Q 43.44 -18.96 43.44 -18.912 L 43.44 -14.688 Q 43.44 -14.64 43.44 -14.64 Q 43.44 -14.64 43.488 -14.64 L 47.712 -14.64 Q 47.76 -14.64 47.76 -14.64 Q 47.76 -14.64 47.76 -14.688 L 47.76 -18.912 Q 47.76 -18.96 47.76 -18.96 Q 47.76 -18.96 47.712 -18.96 Z M 29.088 -14.16 L 29.088 -14.16 L 29.088 -14.16 Q 29.04 -14.16 29.04 -14.16 Q 29.04 -14.16 29.04 -14.112 L 29.04 -9.888 Q 29.04 -9.84 29.04 -9.84 Q 29.04 -9.84 29.088 -9.84 L 33.312 -9.84 Q 33.36 -9.84 33.36 -9.84 Q 33.36 -9.84 33.36 -9.888 L 33.36 -14.112 Q 33.36 -14.16 33.36 -14.16 Q 33.36 -14.16 33.312 -14.16 Z M 33.888 -14.16 L 33.888 -14.16 L 33.888 -14.16 Q 33.84 -14.16 33.84 -14.16 Q 33.84 -14.16 33.84 -14.112 L 33.84 -9.888 Q 33.84 -9.84 33.84 -9.84 Q 33.84 -9.84 33.888 -9.84 L 38.112 -9.84 Q 38.16 -9.84 38.16 -9.84 Q 38.16 -9.84 38.16 -9.888 L 38.16 -14.112 Q 38.16 -14.16 38.16 -14.16 Q 38.16 -14.16 38.112 -14.16 Z M 38.688 -14.16 L 38.688 -14.16 L 38.688 -14.16 Q 38.64 -14.16 38.64 -14.16 Q 38.64 -14.16 38.64 -14.112 L 38.64 -9.888 Q 38.64 -9.84 38.64 -9.84 Q 38.64 -9.84 38.688 -9.84 L 42.912 -9.84 Q 42.96 -9.84 42.96 -9.84 Q 42.96 -9.84 42.96 -9.888 L 42.96 -14.112 Q 42.96 -14.16 42.96 -14.16 Q 42.96 -14.16 42.912 -14.16 Z M 29.088 -9.36 L 29.088 -9.36 L 29.088 -9.36 Q 29.04 -9.36 29.04 -9.36 Q 29.04 -9.36 29.04 -9.312 L 29.04 -5.088 Q 29.04 -5.04 29.04 -5.04 Q 29.04 -5.04 29.088 -5.04 L 33.312 -5.04 Q 33.36 -5.04 33.36 -5.04 Q 33.36 -5.04 33.36 -5.088 L 33.36 -9.312 Q 33.36 -9.36 33.36 -9.36 Q 33.36 -9.36 33.312 -9.36 Z M 43.488 -9.36 L 43.488 -9.36 L 43.488 -9.36 Q 43.44 -9.36 43.44 -9.36 Q 43.44 -9.36 43.44 -9.312 L 43.44 -5.088 Q 43.44 -5.04 43.44 -5.04 Q 43.44 -5.04 43.488 -5.04 L 47.712 -5.04 Q 47.76 -5.04 47.76 -5.04 Q 47.76 -5.04 47.76 -5.088 L 47.76 -9.312 Q 47.76 -9.36 47.76 -9.36 Q 47.76 -9.36 47.712 -9.36 Z M 29.088 -4.56 L 29.088 -4.56 L 29.088 -4.56 Q 29.04 -4.56 29.04 -4.56 Q 29.04 -4.56 29.04 -4.512 L 29.04 -0.288 Q 29.04 -0.24 29.04 -0.24 Q 29.04 -0.24 29.088 -0.24 L 33.312 -0.24 Q 33.36 -0.24 33.36 -0.24 Q 33.36 -0.24 33.36 -0.288 L 33.36 -4.512 Q 33.36 -4.56 33.36 -4.56 Q 33.36 -4.56 33.312 -4.56 Z M 48.288 -4.56 L 48.288 -4.56 L 48.288 -4.56 Q 48.24 -4.56 48.24 -4.56 Q 48.24 -4.56 48.24 -4.512 L 48.24 -0.288 Q 48.24 -0.24 48.24 -0.24 Q 48.24 -0.24 48.288 -0.24 L 52.512 -0.24 Q 52.56 -0.24 52.56 -0.24 Q 52.56 -0.24 52.56 -0.288 L 52.56 -4.512 Q 52.56 -4.56 52.56 -4.56 Q 52.56 -4.56 52.512 -4.56 Z " /><path d="M 62.688 -23.76 L 62.688 -23.76 L 62.688 -23.76 Q 62.64 -23.76 62.64 -23.76 Q 62.64 -23.76 62.64 -23.712 L 62.64 -19.488 Q 62.64 -19.44 62.64 -19.44 Q 62.64 -19.44 62.688 -19.44 L 66.912 -19.44 Q 66.96 -19.44 66.96 -19.44 Q 66.96 -19.44 66.96 -19.488 L 66.96 -23.712 Q 66.96 -23.76 66.96 -23.76 Q 66.96 -23.76 66.912 -23.76 Z M 67.488 -23.76 L 67.488 -23.76 L 67.488 -23.76 Q 67.44 -23.76 67.44 -23.76 Q 67.44 -23.76 67.44 -23.712 L 67.44 -19.488 Q 67.44 -19.44 67.44 -19.44 Q 67.44 -19.44 67.488 -19.44 L 71.712 -19.44 Q 71.76 -19.44 71.76 -19.44 Q 71.76 -19.44 71.76 -19.488 L 71.76 -23.712 Q 71.76 -23.76 71.76 -23.76 Q 71.76 -23.76 71.712 -23.76 Z M 72.288 -23.76 L 72.288 -23.76 L 72.288 -23.76 Q 72.24 -23.76 72.24 -23.76 Q 72.24 -23.76 72.24 -23.712 L 72.24 -19.488 Q 72.24 -19.44 72.24 -19.44 Q 72.24 -19.44 72.288 -19.44 L 76.512 -19.44 Q 76.56 -19.44 76.56 -19.44 Q 76.56 -19.44 76.56 -19.488 L 76.56 -23.712 Q 76.56 -23.76 76.56 -23.76 Q 76.56 -23.76 76.512 -23.76 Z M 57.888 -18.96 L 57.888 -18.96 L 57.888 -18.96 Q 57.84 -18.96 57.84 -18.96 Q 57.84 -18.96 57.84 -18.912 L 57.84 -14.688 Q 57.84 -14.64 57.84 -14.64 Q 57.84 -14.64 57.888 -14.64 L 62.112 -14.64 Q 62.16 -14.64 62.16 -14.64 Q 62.16 -14.64 62.16 -14.688 L 62.16 -18.912 Q 62.16 -18.96 62.16 -18.96 Q 62.16 -18.96 62.112 -18.96 Z M 77.088 -18.96 L 77.088 -18.96 L 77.088 -18.96 Q 77.04 -18.96 77.04 -18.96 Q 77.04 -18.96 77.04 -18.912 L 77.04 -14.688 Q 77.04 -14.64 77.04 -14.64 Q 77.04 -14.64 77.088 -14.64 L 81.312 -14.64 Q 81.36 -14.64 81.36 -14.64 Q 81.36 -14.64 81.36 -14.688 L 81.36 -18.912 Q 81.36 -18.96 81.36 -18.96 Q 81.36 -18.96 81.312 -18.96 Z M 57.888 -14.16 L 57.888 -14.16 L 57.888 -14.16 Q 57.84 -14.16 57.84 -14.16 Q 57.84 -14.16 57.84 -14.112 L 57.84 -9.888 Q 57.84 -9.84 57.84 -9.84 Q 57.84 -9.84 57.888 -9.84 L 62.112 -9.84 Q 62.16 -9.84 62.16 -9.84 Q 62.16 -9.84 62.16 -9.888 L 62.16 -14.112 Q 62.16 -14.16 62.16 -14.16 Q 62.16 -14.16 62.112 -14.16 Z M 77.088 -14.16 L 77.088 -14.16 L 77.088 -14.16 Q 77.04 -14.16 77.04 -14.16 Q 77.04 -14.16 77.04 -14.112 L 77.04 -9.888 Q 77.04 -9.84 77.04 -9.84 Q 77.04 -9.84 77.088 -9.84 L 81.312 -9.84 Q 81.36 -9.84 81.36 -9.84 Q 81.36 -9.84 81.36 -9.888 L 81.36 -14.112 Q 81.36 -14.16 81.36 -14.16 Q 81.36 -14.16 81.312 -14.16 Z M 57.888 -9.36 L 57.888 -9.36 L 57.888 -9.36 Q 57.84 -9.36 57.84 -9.36 Q 57.84 -9.36 57.84 -9.312 L 57.84 -5.088 Q 57.84 -5.04 57.84 -5.04 Q 57.84 -5.04 57.888 -5.04 L 62.112 -5.04 Q 62.16 -5.04 62.16 -5.04 Q 62.16 -5.04 62.16 -5.088 L 62.16 -9.312 Q 62.16 -9.36 62.16 -9.36 Q 62.16 -9.36 62.112 -9.36 Z M 77.088 -9.36 L 77.088 -9.36 L 77.088 -9.36 Q 77.04 -9.36 77.04 -9.36 Q 77.04 -9.36 77.04 -9.312 L 77.04 -5.088 Q 77.04 -5.04 77.04 -5.04 Q 77.04 -5.04 77.088 -5.04 L 81.312 -5.04 Q 81.36 -5.04 81.36 -5.04 Q 81.36 -5.04 81.36 -5.088 L 81.36 -9.312 Q 81.36 -9.36 81.36 -9.36 Q 81.36 -9.36 81.312 -9.36 Z M 62.688 -4.56 L 62.688 -4.56 L 62.688 -4.56 Q 62.64 -4.56 62.64 -4.56 Q 62.64 -4.56 62.64 -4.512 L 62.64 -0.288 Q 62.64 -0.24 62.64 -0.24 Q 62.64 -0.24 62.688 -0.24 L 66.912 -0.24 Q 66.96 -0.24 66.96 -0.24 Q 66.96 -0.24 66.96 -0.288 L 66.96 -4.512 Q 66.96 -4.56 66.96 -4.56 Q 66.96 -4.56 66.912 -4.56 Z M 67.488 -4.56 L 67.488 -4.56 L 67.488 -4.56 Q 67.44 -4.56 67.44 -4.56 Q 67.44 -4.56 67.44 -4.512 L 67.44 -0.288 Q 67.44 -0.24 67.44 -0.24 Q 67.44 -0.24 67.488 -0.24 L 71.712 -0.24 Q 71.76 -0.24 71.76 -0.24 Q 71.76 -0.24 71.76 -0.288 L 71.76 -4.512 Q 71.76 -4.56 71.76 -4.56 Q 71.76 -4.56 71.712 -4.56 Z M 72.288 -4.56 L 72.288 -4.56 L 72.288 -4.56 Q 72.24 -4.56 72.24 -4.56 Q 72.24 -4.56 72.24 -4.512 L 72.24 -0.288 Q 72.24 -0.24 72.24 -0.24 Q 72.24 -0.24 72.288 -0.24 L 76.512 -0.24 Q 76.56 -0.24 76.56 -0.24 Q 76.56 -0.24 76.56 -0.288 L 76.56 -4.512 Q 76.56 -4.56 76.56 -4.56 Q 76.56 -4.56 76.512 -4.56 Z " /></g></svg>