<svg xmlns="http://www.w3.org/2000/svg" width="105.422" height="47.273" viewBox="-1.359 -39.984 105.422 47.273"><title>eko</title><g transform=""><path d="M 9.914 -13.102 L 9.914 -13.102 Q 9.914 -13.734 9.094 -13.734 Q 8.953 -13.734 7.266 -13.055 L 6.891 -14.016 Q 9.047 -15.07 9.047 -15.258 L 9.094 -16.172 Q 9.117 -16.406 8.66 -20.824 Q 8.203 -25.242 8.227 -26.789 Q 8.062 -27.281 7.781 -27.492 Q 7.5 -27.703 6.75 -27.703 L 6.07 -27.656 L 6.023 -28.359 Q 7.5 -28.406 7.758 -28.828 Q 8.086 -29.367 8.086 -30.141 Q 8.086 -30.914 7.559 -31.828 Q 7.031 -32.742 6.516 -32.742 Q 6 -32.742 5.203 -32.391 L 4.969 -32.977 Q 5.906 -33.375 6.176 -33.609 Q 6.445 -33.844 6.445 -34.219 Q 6.211 -34.617 5.836 -34.617 L 2.367 -34.523 Q 1.922 -34.523 1.582 -34.242 Q 1.242 -33.961 0.656 -32.93 L 0.258 -33.117 Q 0.984 -34.359 0.984 -34.711 Q 0.984 -35.062 0.902 -35.297 Q 0.82 -35.531 0.68 -35.848 Q 0.539 -36.164 0.469 -36.469 Q 0.258 -37.219 -1.359 -38.203 L -1.125 -38.555 Q 0.258 -37.641 0.738 -37.641 Q 1.219 -37.641 2.039 -37.793 Q 2.859 -37.945 6.609 -38.039 Q 10.359 -38.133 10.641 -38.156 L 10.523 -38.109 Q 10.992 -38.156 11.203 -38.25 Q 11.695 -38.484 11.789 -39.984 L 12.539 -39.984 Q 12.539 -38.367 12.961 -38.203 Q 13.664 -37.875 17.098 -37.676 Q 20.531 -37.477 22.195 -37.477 Q 22.852 -37.477 23.297 -39.258 L 23.695 -39.164 Q 23.484 -38.391 23.484 -37.922 Q 23.484 -37.453 23.895 -37.16 Q 24.305 -36.867 25.02 -36.562 Q 25.734 -36.258 26.039 -36.047 Q 30.352 -36.328 32.039 -38.016 L 34.055 -35.906 Q 32.016 -33.938 31.805 -28.406 L 31.805 -31.688 Q 31.711 -30.891 31.277 -29.156 Q 30.844 -27.422 30.82 -26.719 Q 30.797 -26.016 31.066 -25.746 Q 31.336 -25.477 32.414 -24.961 L 32.273 -24.586 Q 31.102 -25.102 30.703 -25.102 Q 30.305 -25.102 30.141 -24.984 Q 29.625 -24.633 29.438 -22.523 L 29.156 -22.57 Q 29.203 -23.086 29.203 -23.754 Q 29.203 -24.422 28.98 -24.902 Q 28.758 -25.383 28.312 -25.969 Q 26.625 -28.125 26.625 -30.422 L 26.672 -30.867 Q 26.672 -31.43 25.582 -32.52 Q 24.492 -33.609 23.648 -33.785 Q 22.805 -33.961 22.477 -34.57 Q 22.148 -34.219 21.457 -34.219 Q 20.766 -34.219 19.113 -34.629 Q 17.461 -35.039 16.336 -35.039 Q 13.664 -35.039 13.664 -34.031 Q 13.828 -32.953 14.027 -31.688 Q 14.227 -30.422 14.391 -29.262 Q 14.555 -28.102 14.602 -27.527 Q 14.648 -26.953 14.742 -26.016 Q 14.906 -24.352 14.906 -22.98 Q 14.906 -21.609 14.883 -20.953 Q 14.859 -20.297 15.516 -20.297 L 21.141 -19.781 Q 21.656 -19.781 21.867 -20.672 Q 22.078 -21.562 22.172 -22.957 Q 22.266 -24.352 22.418 -24.844 Q 22.57 -25.336 22.57 -25.805 Q 22.57 -26.273 22.055 -27.656 L 22.43 -27.797 Q 23.109 -26.039 24.047 -25.383 Q 24.961 -24.75 25.137 -24.387 Q 25.312 -24.023 25.312 -23.367 L 25.172 -18.914 Q 25.172 -15.75 25.453 -12.727 Q 25.453 -12.352 25.781 -12.094 Q 26.109 -11.836 27.234 -11.461 L 27.094 -11.086 Q 25.781 -11.461 25.5 -11.461 Q 24.609 -11.461 24.492 -9.938 Q 24.492 -9.469 25.758 -8.203 L 25.617 -8.062 Q 24.352 -9.398 23.977 -9.398 L 23.883 -9.398 Q 23.438 -9.398 22.828 -7.734 L 22.641 -7.828 Q 23.109 -9.211 23.109 -9.445 Q 23.109 -9.68 22.969 -9.75 L 22.57 -10.125 Q 22.266 -10.359 21.914 -10.359 Q 21.562 -10.359 20.367 -9.844 L 20.18 -10.266 Q 21.281 -10.734 21.574 -11.016 Q 21.867 -11.297 21.867 -11.719 L 21.867 -15.398 Q 21.867 -15.539 21.41 -15.984 Q 20.953 -16.43 20.953 -16.453 L 19.031 -16.359 Q 18.656 -16.336 17.941 -16.594 Q 17.227 -16.852 16.969 -16.852 Q 16.148 -16.852 16.148 -15.797 L 16.383 -12.82 Q 16.711 -11.086 16.852 -7.688 Q 16.992 -4.289 17.297 -2.648 Q 18.211 -2.438 24.75 -2.438 Q 25.031 -2.602 25.676 -2.965 Q 26.32 -3.328 26.672 -3.539 Q 27.023 -3.75 27.539 -4.078 Q 28.406 -4.641 29.203 -5.32 Q 29.438 -5.742 29.484 -7.547 L 29.648 -7.547 L 29.578 -6.469 Q 29.578 -4.898 30.305 -4.898 Q 30.516 -4.898 31.805 -5.133 L 31.852 -4.898 Q 30.352 -4.594 30.223 -4.441 Q 30.094 -4.289 30.059 -3.891 Q 30.023 -3.492 29.496 -2.227 Q 28.969 -0.961 28.969 -0.41 Q 28.969 0.141 29.262 0.445 Q 29.555 0.75 30.492 1.148 L 30.211 1.781 Q 29.531 1.383 28.91 1.383 Q 28.289 1.383 27.914 1.922 L 27.68 4.359 Q 27.68 4.57 28.781 5.074 Q 29.883 5.578 31.172 5.953 L 31.125 6.234 L 27.727 5.227 Q 27.398 5.227 27.328 5.391 Q 27.258 5.555 27.234 5.578 L 27.141 7.289 L 26.859 7.242 Q 26.836 6.961 26.836 6.574 Q 26.836 6.188 26.824 6.012 Q 26.812 5.836 26.766 5.648 Q 26.719 5.32 26.379 5.32 Q 26.039 5.32 24.797 5.672 L 24.75 5.461 Q 26.18 5.062 26.297 4.91 Q 26.414 4.758 26.414 4.617 L 26.766 2.789 Q 26.766 2.086 25.535 1.383 Q 24.305 0.68 23.695 0.68 Q 23.203 0.68 22.477 2.109 L 22.008 1.875 Q 22.125 1.5 22.336 1.031 Q 22.547 0.562 22.57 0.422 Q 22.43 0.797 20.027 0.961 Q 17.625 1.125 17.203 1.195 Q 16.922 1.547 16.43 1.547 Q 15.938 1.547 14.777 0.996 Q 13.617 0.445 13.266 0.328 Q 12.75 0.914 12.094 0.938 Q 10.781 0.984 9.281 2.484 L 9 2.156 Q 9.047 2.062 9.434 1.641 Q 9.82 1.219 10.066 0.691 Q 10.312 0.164 10.312 -0.141 Q 10.312 -0.961 10.828 -1.477 L 10.922 -1.922 L 11.016 -2.438 Q 10.43 -5.016 10.219 -8.543 Q 10.008 -12.07 9.914 -13.102 Z M 26.18 -35.953 L 26.18 -35.953 L 26.555 -35.578 Q 27.141 -35.859 28.055 -35.859 Z M 6.398 -34.312 L 6.398 -34.312 L 6.445 -34.266 Z " /><path d="M 45.961 -8.602 L 45.961 -8.602 L 45.469 -15.07 Q 45.469 -15.211 45.375 -15.398 L 45.047 -15.891 Q 45.023 -15.914 44.953 -15.996 Q 44.883 -16.078 44.859 -16.102 Q 44.648 -16.312 44.262 -16.312 Q 43.875 -16.312 42.914 -15.938 L 42.727 -16.406 Q 43.711 -16.781 44.016 -17.039 Q 44.32 -17.297 44.32 -17.672 L 43.945 -20.344 Q 43.688 -20.484 43.453 -20.484 Q 43.219 -20.484 41.391 -19.734 L 41.203 -20.156 Q 43.359 -21.188 43.359 -21.305 Q 43.359 -22.688 42.855 -25.395 Q 42.352 -28.102 42.328 -28.863 Q 42.305 -29.625 42.117 -29.812 L 42.07 -29.812 Q 41.602 -30.234 40.828 -30.234 Q 40.055 -30.234 39.609 -30.188 L 39.562 -30.586 Q 40.758 -30.703 41.18 -30.902 Q 41.602 -31.102 41.859 -31.477 L 42.211 -31.969 Q 42.305 -32.156 42.305 -32.297 L 42.305 -33.445 Q 41.789 -33.07 41.531 -31.875 L 40.43 -32.109 Q 40.523 -32.766 40.523 -33.246 Q 40.523 -33.727 39.996 -34.137 Q 39.469 -34.547 38.812 -34.641 Q 37.078 -34.852 36.867 -35.859 Q 36.773 -36.305 36.34 -36.387 Q 35.906 -36.469 34.336 -36.469 L 34.336 -36.68 Q 35.766 -36.68 36.152 -36.762 Q 36.539 -36.844 37.137 -37.184 Q 37.734 -37.523 37.734 -38.004 Q 37.734 -38.484 37.359 -39.352 L 37.781 -39.562 Q 38.414 -38.062 38.836 -38.062 Q 39.328 -38.32 39.328 -39.938 L 39.891 -39.938 Q 39.891 -38.625 40.254 -38.18 Q 40.617 -37.734 41.25 -37.734 L 46.242 -38.25 Q 47.203 -38.25 48.527 -37.98 Q 49.852 -37.711 50.402 -37.312 Q 50.953 -36.914 51.164 -36.914 Q 51.375 -36.914 51.539 -37.172 Q 51.703 -37.43 51.703 -37.758 Q 51.703 -38.086 51.234 -39.258 L 51.703 -39.445 Q 52.172 -38.344 52.465 -38.062 Q 52.758 -37.781 53.25 -37.781 L 54.07 -37.781 Q 55.031 -37.781 55.312 -38.555 Q 55.453 -38.93 55.547 -39.562 L 56.32 -39.398 Q 56.227 -38.648 56.227 -38.484 Q 56.227 -37.195 59.555 -36.75 Q 60.961 -36.562 62.367 -36.375 Q 65.766 -35.93 65.977 -34.805 Q 65.977 -34.664 66.07 -34.57 L 66.352 -34.078 Q 66.398 -33.961 67.781 -33.258 L 67.5 -32.555 Q 66.023 -33.164 65.859 -33.164 L 65.766 -33.164 Q 65.555 -33.164 65.039 -32.66 Q 64.523 -32.156 64.523 -31.711 Q 64.523 -31.266 64.664 -30.328 L 64.289 -30.281 Q 64.102 -31.477 63.914 -31.805 Q 63.727 -32.133 63.375 -32.203 L 62.273 -32.438 L 62.133 -32.484 Q 61.523 -32.273 60.984 -32.062 Q 59.836 -31.594 59.156 -31.594 L 58.969 -31.594 Q 58.617 -31.594 58.43 -31.383 L 54.164 -27.07 L 54.305 -27.164 L 55.547 -25.008 Q 54.68 -24.492 54.68 -23.93 Q 54.68 -23.367 54.891 -22.875 Q 55.547 -21.211 56.273 -20.25 Q 57.539 -18.609 57.621 -17.953 Q 57.703 -17.297 58.055 -17.227 Q 58.594 -16.945 58.922 -15.34 Q 59.25 -13.734 59.25 -13.031 Q 59.25 -12.328 59.156 -11.859 Q 60.258 -11.297 61.57 -9.352 Q 62.883 -7.406 62.883 -5.953 L 62.086 -4.125 Q 62.086 -3.867 62.836 -2.438 L 62.648 -2.344 Q 61.945 -3.656 61.781 -3.797 Q 61.617 -3.938 61.5 -3.938 L 60.867 -3.938 Q 59.93 -3.938 59.25 -5.18 Q 59.227 -5.273 58.898 -5.484 Q 57.844 -6.117 57.422 -6.539 Q 57.352 -6.656 57.305 -6.785 Q 57.258 -6.914 57.047 -6.914 Q 56.484 -6.914 55.219 -5.461 L 54.914 -5.719 Q 56.086 -7.055 56.086 -7.641 L 55.992 -8.836 L 55.734 -9.844 Q 55.664 -10.148 55.113 -10.441 Q 54.562 -10.734 54.117 -11.66 Q 53.672 -12.586 53.672 -13.336 L 53.719 -13.547 Q 53.344 -13.734 52.969 -13.734 Q 52.594 -13.734 51.469 -12.914 L 51.141 -13.336 Q 52.523 -14.367 52.523 -14.836 Q 52.523 -15.305 52.453 -15.621 Q 52.383 -15.938 52.254 -16.195 Q 52.125 -16.453 51.961 -16.676 Q 51.797 -16.898 51.621 -17.062 Q 51.445 -17.227 51.27 -17.379 Q 51.094 -17.531 50.941 -17.625 Q 50.789 -17.719 50.66 -17.777 Q 50.531 -17.836 50.414 -17.906 Q 49.547 -17.906 49.547 -16.43 Q 49.547 -14.953 50.18 -12.738 Q 50.812 -10.523 51.375 -10.406 L 51.516 -10.406 Q 51.656 -10.359 52.066 -10.359 Q 52.477 -10.359 53.812 -11.367 L 54.07 -11.039 Q 53.109 -10.266 52.84 -9.879 Q 52.57 -9.492 52.57 -9.023 L 52.57 -8.695 Q 52.57 -8.438 52.816 -8.062 Q 53.062 -7.688 53.496 -7.477 Q 53.93 -7.266 55.125 -7.148 L 55.078 -6.68 Q 54.586 -6.727 53.777 -6.727 Q 52.969 -6.727 52.57 -6.234 L 51.844 -4.359 Q 51.867 -4.102 51.938 -3.984 Q 52.148 -3.656 53.625 -3.258 L 53.531 -2.836 Q 52.617 -3.07 52.23 -3.07 Q 51.844 -3.07 51.703 -3 Q 51.516 -2.883 51.258 -2.461 Q 51 -2.039 51 -0.141 L 50.742 -0.141 Q 50.695 -2.062 50.508 -2.355 Q 50.32 -2.648 50.273 -2.707 Q 50.227 -2.766 50.191 -2.801 Q 50.156 -2.836 50.109 -2.871 Q 50.062 -2.906 50.016 -2.93 Q 49.875 -2.977 49.57 -2.977 Q 49.266 -2.977 48.211 -2.695 L 48.07 -3.07 Q 49.523 -3.492 49.652 -3.727 Q 49.781 -3.961 49.781 -4.219 L 49.5 -5.461 L 48.984 -5.672 L 47.906 -5.578 Q 47.906 -5.531 46.863 -4.77 Q 45.82 -4.008 45.75 -3.703 L 45.656 -2.25 Q 45.656 -2.109 45.398 -1.242 Q 45.141 -0.375 45.141 0.094 Q 45.141 0.562 45.281 1.922 L 45.141 1.922 Q 44.859 0.023 44.508 -0.586 Q 44.32 -0.867 43.98 -0.867 Q 43.641 -0.867 42.492 -0.586 L 42.398 -0.914 Q 43.57 -1.242 43.852 -1.441 Q 44.133 -1.641 44.133 -1.969 L 44.508 -5.766 Q 44.508 -6.094 44.438 -6.281 Q 44.25 -6.75 42.82 -7.289 L 43.031 -7.781 Q 44.156 -7.289 44.578 -7.289 Q 45 -7.289 45.281 -7.688 L 45.797 -8.156 Q 45.961 -8.391 45.961 -8.602 Z M 49.078 -28.031 L 49.078 -28.031 Q 49.078 -27.07 49.875 -27.07 Q 50.086 -27.07 50.367 -27.211 L 50.742 -27.516 L 51.469 -28.266 L 51.516 -28.266 Q 52.43 -29.25 53.25 -29.531 L 53.25 -29.766 Q 53.25 -30.328 53.402 -30.691 Q 53.555 -31.055 53.625 -31.242 L 53.906 -31.875 L 54.164 -33.445 Q 54.164 -33.656 53.977 -33.938 L 52.758 -35.086 Q 52.547 -35.227 52.336 -35.227 L 49.781 -35.227 Q 49.453 -35.227 49.266 -34.898 Q 49.078 -34.57 49.078 -34.172 Z " /><path d="M 100.547 -21.703 L 100.547 -21.703 L 102.609 -21.984 L 102.703 -21.211 L 100.688 -20.93 Q 100.453 -19.547 100.43 -17.953 Q 100.336 -14.625 97.031 -11.18 L 94.172 -8.344 Q 94.008 -8.18 94.008 -7.828 Q 94.008 -7.125 95.602 -5.906 L 95.367 -5.625 Q 93.984 -6.68 93.258 -6.68 L 92.953 -6.633 Q 92.859 -6.633 92.812 -6.586 L 91.57 -6.047 Q 91.195 -5.906 91.195 -5.508 Q 91.195 -5.109 91.617 -4.125 L 91.195 -3.984 Q 90.539 -5.414 90.188 -5.414 Q 89.32 -5.414 89.32 -4.57 Q 89.32 -4.5 89.555 -3.211 L 88.688 -3.211 Q 88.219 -5.039 88.078 -5.039 L 79.102 -5.086 Q 78.68 -5.086 76.312 -4.617 L 76.266 -4.898 Q 78.375 -5.273 78.375 -5.367 Q 78.797 -5.531 78.797 -5.953 Q 78.797 -6.797 77.18 -7.594 L 75.961 -7.922 Q 75.633 -8.016 75.012 -8.121 Q 74.391 -8.227 74.039 -8.297 Q 73.102 -8.484 72.703 -9.211 L 71.414 -11.461 Q 70.992 -12.211 70.301 -13.805 Q 69.609 -15.398 69.105 -16.289 Q 68.602 -17.18 68.156 -17.18 L 66.281 -17.18 L 66.234 -18.375 Q 68.578 -18.539 68.578 -18.773 L 68.672 -22.078 Q 68.672 -22.547 67.102 -23.414 L 67.242 -23.672 Q 68.484 -22.945 68.906 -22.945 Q 69.211 -22.945 69.164 -23.637 Q 69.117 -24.328 68.836 -24.645 Q 68.555 -24.961 67.289 -25.547 L 67.477 -25.969 Q 68.719 -25.43 69.387 -25.43 Q 70.055 -25.43 70.816 -26.156 Q 71.578 -26.883 72.223 -27.973 Q 72.867 -29.062 73.57 -30.188 Q 75.258 -32.93 77.461 -33.352 L 78.328 -33.703 Q 78.609 -33.844 78.609 -34.254 Q 78.609 -34.664 78.375 -35.578 L 78.75 -35.672 Q 79.219 -34.031 79.57 -34.031 L 80.719 -34.172 Q 80.742 -34.172 81.211 -34.406 Q 81.586 -34.664 81.586 -35.121 Q 81.586 -35.578 81.258 -36.586 L 81.773 -36.773 Q 82.125 -35.719 82.359 -35.402 Q 82.594 -35.086 82.969 -35.086 L 87.211 -35.18 Q 87.609 -35.203 88.594 -36.715 Q 89.578 -38.227 90.188 -39.562 L 90.656 -39.352 Q 88.734 -35.133 88.734 -34.922 Q 88.734 -34.711 88.969 -34.359 L 89.016 -34.359 Q 89.812 -33.539 91.535 -32.59 Q 93.258 -31.641 94.547 -31.641 Q 95.109 -31.641 96.023 -32.977 L 96.469 -32.695 Q 95.695 -31.547 95.695 -31.066 Q 95.695 -30.586 96.516 -29.836 Q 97.336 -29.086 97.828 -29.086 Q 98.32 -29.086 99.445 -29.953 L 99.68 -29.625 Q 98.391 -28.617 98.391 -28.172 L 98.391 -28.031 Q 98.461 -27.82 98.578 -27.703 Q 99.797 -26.648 100.195 -23.625 Q 100.383 -22.242 100.547 -21.703 Z M 84.023 -31.336 L 84.023 -31.336 L 82.5 -31.43 Q 82.406 -31.43 82.219 -31.336 Q 80.062 -29.859 78.352 -27.551 Q 76.641 -25.242 76.641 -22.945 Q 76.641 -20.789 77.66 -17.859 Q 78.68 -14.93 78.984 -13.688 Q 79.828 -12.188 80.18 -11.438 Q 80.531 -10.688 81.07 -10.406 Q 81.609 -10.125 82.453 -9.023 L 84.188 -9.398 L 84.234 -9.305 Q 83.602 -8.977 82.969 -8.555 Q 83.18 -8.531 83.789 -8.438 Q 85.031 -8.203 85.711 -8.203 L 86.531 -8.25 L 87.305 -8.203 Q 87.68 -8.203 87.82 -8.344 L 88.359 -8.836 Q 89.555 -9.891 90.422 -11.297 Q 91.289 -12.703 91.289 -13.828 Q 91.289 -14.953 89.883 -15.891 L 91.102 -17.766 Q 91.898 -17.227 92.355 -17.227 Q 92.812 -17.227 92.953 -17.344 Q 93.117 -17.508 93.117 -17.953 L 93.164 -21.797 Q 92.953 -24.352 91.781 -26.719 Q 89.602 -31.172 87.211 -31.688 L 87 -31.688 Q 85.43 -31.336 84.023 -31.336 Z M 98.438 -27.891 L 98.438 -27.891 Q 98.438 -27.891 98.391 -28.031 Q 98.391 -27.938 98.438 -27.891 Z " /></g></svg>