<svg xmlns="http://www.w3.org/2000/svg" width="90.633" height="39.211" viewBox="0 -38.391 90.633 39.211"><title>eko</title><g transform=""><path d="M 23.391 -3.891 L 23.391 -3.891 Q 24.023 -3.891 24.539 -4.066 Q 25.055 -4.242 25.465 -4.453 Q 25.875 -4.664 26.145 -4.84 Q 26.414 -5.016 26.555 -5.016 Q 26.766 -5.016 26.848 -4.945 Q 26.93 -4.875 27.047 -4.688 L 27.867 -3.422 Q 27.984 -3.234 27.984 -3.094 Q 27.984 -2.93 27.891 -2.836 Q 27.797 -2.742 27.703 -2.672 Q 26.93 -2.133 25.805 -1.512 Q 24.68 -0.891 23.191 -0.375 Q 21.703 0.141 19.828 0.48 Q 17.953 0.82 15.703 0.82 Q 13.945 0.82 12.188 0.539 Q 10.43 0.258 8.824 -0.352 Q 7.219 -0.961 5.836 -1.945 Q 4.453 -2.93 3.434 -4.359 Q 2.414 -5.789 1.828 -7.676 Q 1.242 -9.562 1.242 -12 Q 1.242 -14.391 1.828 -16.277 Q 2.414 -18.164 3.434 -19.594 Q 4.453 -21.023 5.836 -22.02 Q 7.219 -23.016 8.824 -23.637 Q 10.43 -24.258 12.188 -24.539 Q 13.945 -24.82 15.703 -24.82 Q 18.633 -24.82 21.152 -24.164 Q 23.672 -23.508 25.523 -22.008 Q 27.375 -20.508 28.43 -18.07 Q 29.484 -15.633 29.484 -12.094 L 29.484 -10.781 Q 29.484 -10.359 29.273 -10.125 Q 29.062 -9.891 28.57 -9.891 L 18.867 -9.891 Q 19.055 -8.156 19.535 -6.996 Q 20.016 -5.836 20.637 -5.145 Q 21.258 -4.453 21.984 -4.172 Q 22.711 -3.891 23.391 -3.891 Z M 26.156 -12.773 L 26.156 -12.773 Q 26.156 -14.648 25.863 -15.879 Q 25.57 -17.109 25.078 -17.848 Q 24.586 -18.586 23.918 -18.891 Q 23.25 -19.195 22.523 -19.195 Q 21.984 -19.195 21.352 -18.984 Q 20.719 -18.773 20.168 -18.094 Q 19.617 -17.414 19.23 -16.148 Q 18.844 -14.883 18.773 -12.773 Z " /><path d="M 32.883 -35.133 L 32.883 -35.133 Q 32.883 -35.93 33.023 -36.551 Q 33.164 -37.172 33.562 -37.57 Q 33.961 -37.969 34.664 -38.18 Q 35.367 -38.391 36.492 -38.391 L 46.758 -38.391 Q 47.836 -38.391 48.492 -38.18 Q 49.148 -37.969 49.523 -37.57 Q 49.898 -37.172 50.027 -36.551 Q 50.156 -35.93 50.156 -35.133 L 50.156 -18.211 L 55.781 -23.789 Q 56.039 -24.047 56.273 -24.152 Q 56.508 -24.258 56.695 -24.258 Q 57.117 -24.258 57.422 -23.906 L 58.594 -22.688 Q 58.852 -22.383 58.852 -22.102 Q 58.852 -21.844 58.676 -21.586 Q 58.5 -21.328 58.102 -21.023 L 50.766 -15.609 Q 52.711 -15.539 54.047 -15.105 Q 55.383 -14.672 56.203 -13.852 Q 57.023 -13.031 57.387 -11.812 Q 57.75 -10.594 57.75 -8.977 L 57.75 -1.102 Q 57.75 -0.703 57.645 -0.48 Q 57.539 -0.258 57.387 -0.152 Q 57.234 -0.047 57.023 -0.023 Q 56.812 0 56.602 0 L 55.102 0 Q 54.492 0 54.316 -0.352 Q 54.141 -0.703 54.141 -1.102 L 54.141 -9.211 Q 54.141 -10.289 53.941 -11.004 Q 53.742 -11.719 53.273 -12.152 Q 52.805 -12.586 52.043 -12.785 Q 51.281 -12.984 50.156 -13.031 L 50.156 -3.211 Q 50.156 -2.414 50.004 -1.816 Q 49.852 -1.219 49.43 -0.809 Q 49.008 -0.398 48.258 -0.199 Q 47.508 0 46.336 0 L 36.492 0 Q 35.367 0 34.664 -0.211 Q 33.961 -0.422 33.562 -0.82 Q 33.164 -1.219 33.023 -1.828 Q 32.883 -2.438 32.883 -3.258 Z " /><path d="M 74.953 0.82 L 74.953 0.82 Q 73.195 0.82 71.438 0.539 Q 69.68 0.258 68.074 -0.352 Q 66.469 -0.961 65.086 -1.945 Q 63.703 -2.93 62.684 -4.359 Q 61.664 -5.789 61.078 -7.676 Q 60.492 -9.562 60.492 -12 Q 60.492 -14.391 61.078 -16.277 Q 61.664 -18.164 62.684 -19.594 Q 63.703 -21.023 65.086 -22.02 Q 66.469 -23.016 68.074 -23.637 Q 69.68 -24.258 71.438 -24.539 Q 73.195 -24.82 74.953 -24.82 Q 76.57 -24.82 78.27 -24.621 Q 79.969 -24.422 81.574 -23.895 Q 83.18 -23.367 84.598 -22.465 Q 86.016 -21.562 87.082 -20.156 Q 88.148 -18.75 88.77 -16.793 Q 89.391 -14.836 89.391 -12.188 Q 89.391 -9.469 88.781 -7.441 Q 88.172 -5.414 87.105 -3.973 Q 86.039 -2.531 84.633 -1.594 Q 83.227 -0.656 81.621 -0.129 Q 80.016 0.398 78.305 0.609 Q 76.594 0.82 74.953 0.82 Z M 82.148 -4.805 L 82.148 -4.805 Q 82.875 -4.805 83.59 -5.121 Q 84.305 -5.438 84.855 -6.258 Q 85.406 -7.078 85.746 -8.52 Q 86.086 -9.961 86.086 -12.188 Q 86.086 -14.297 85.746 -15.656 Q 85.406 -17.016 84.844 -17.801 Q 84.281 -18.586 83.578 -18.891 Q 82.875 -19.195 82.148 -19.195 Q 81.586 -19.195 80.895 -18.961 Q 80.203 -18.727 79.605 -17.965 Q 79.008 -17.203 78.609 -15.785 Q 78.211 -14.367 78.211 -12 Q 78.211 -9.633 78.539 -8.203 Q 78.867 -6.773 79.406 -6.023 Q 79.945 -5.273 80.66 -5.039 Q 81.375 -4.805 82.148 -4.805 Z " /></g></svg>