<svg xmlns="http://www.w3.org/2000/svg" width="69.844" height="41.531" viewBox="0 -38.062 69.844 41.531"><title>eko</title><g transform=""><path d="M 5.438 -30.891 L 5.438 -30.891 Q 5.391 -30.609 5.531 -30.469 Q 5.672 -30.328 5.625 -30.047 Q 5.109 -29.859 5.086 -29.859 Q 5.062 -29.859 5.016 -29.812 Q 4.547 -29.859 4.406 -29.859 Q 4.266 -29.859 4.172 -30.094 Q 4.453 -30.609 4.758 -30.844 Q 5.062 -31.078 5.438 -30.891 Z M 3.422 -29.484 L 3.422 -29.484 Q 3.656 -29.391 3.75 -29.203 Q 3.844 -29.016 3.938 -28.781 Q 3.984 -28.172 3.586 -27.938 Q 3.188 -27.703 2.812 -27.328 Q 2.672 -27.375 2.555 -27.328 Q 2.438 -27.281 2.203 -27.328 Q 2.062 -27.469 1.922 -27.797 Q 1.969 -28.406 2.016 -28.688 Q 2.062 -28.969 2.156 -29.203 Q 2.672 -29.438 2.93 -29.461 Q 3.188 -29.484 3.422 -29.484 Z M 9.844 -8.344 L 9.844 -8.344 Q 10.172 -8.531 10.453 -8.719 Q 10.734 -8.906 11.109 -9.141 Q 11.203 -9.375 11.32 -9.492 Q 11.438 -9.609 11.578 -9.75 Q 11.766 -10.359 11.719 -10.688 Q 11.672 -11.016 11.766 -11.391 Q 12.328 -11.766 12.586 -11.906 Q 12.844 -12.047 13.125 -11.953 Q 13.312 -12.047 13.523 -12.07 Q 13.734 -12.094 13.828 -12 Q 14.438 -12.281 15.094 -12.234 Q 15.281 -12.188 15.398 -12.094 Q 15.516 -12 15.656 -11.906 Q 15.891 -11.812 16.148 -11.766 Q 16.406 -11.719 16.594 -11.578 Q 16.875 -11.297 16.922 -11.156 Q 17.297 -10.641 17.273 -10.477 Q 17.25 -10.312 17.391 -10.172 Q 17.297 -9.797 17.344 -9.609 Q 17.391 -9.422 17.344 -9.047 Q 17.344 -8.438 17.109 -8.109 Q 16.641 -7.688 16.547 -7.641 Q 16.453 -7.594 16.359 -7.5 Q 16.078 -7.172 15.891 -7.102 Q 15.703 -7.031 15.562 -6.844 Q 15.422 -6.75 15.352 -6.633 Q 15.281 -6.516 15.141 -6.422 Q 15.094 -6.281 15 -6.164 Q 14.906 -6.047 14.812 -5.906 Q 14.812 -5.625 14.672 -5.438 Q 14.531 -5.25 14.32 -5.109 Q 14.109 -4.969 13.898 -4.805 Q 13.688 -4.641 13.594 -4.359 Q 13.359 -4.359 13.195 -4.148 Q 13.031 -3.938 12.797 -3.938 Q 12.047 -3.516 11.719 -3.352 Q 11.391 -3.188 10.969 -3.094 Q 10.5 -2.906 10.266 -3.023 Q 10.031 -3.141 9.75 -3.141 Q 9.516 -3.188 9.281 -3.117 Q 9.047 -3.047 8.812 -3.047 Q 8.156 -3.094 7.969 -3.234 Q 7.781 -3.375 7.547 -3.469 Q 7.266 -3.469 7.195 -3.539 Q 7.125 -3.609 7.031 -3.609 Q 6.281 -3.703 6.047 -4.031 Q 5.812 -4.359 5.438 -4.5 Q 4.969 -5.156 4.406 -5.695 Q 3.844 -6.234 3.562 -7.031 Q 3.375 -7.219 3.281 -7.453 Q 3.188 -7.688 3.094 -7.922 Q 2.953 -8.062 2.812 -8.391 Q 2.719 -8.719 2.508 -9.023 Q 2.297 -9.328 2.203 -9.656 Q 2.156 -9.797 2.18 -9.961 Q 2.203 -10.125 2.062 -10.219 Q 2.016 -10.547 1.969 -10.969 Q 1.922 -11.391 1.828 -11.672 Q 1.828 -12.047 1.875 -12.422 Q 1.922 -12.797 1.875 -13.219 Q 1.875 -13.641 1.781 -14.062 Q 1.688 -14.484 1.688 -14.859 Q 1.688 -15 1.734 -15.141 Q 1.781 -15.281 1.781 -15.375 Q 1.781 -15.844 1.945 -16.43 Q 2.109 -17.016 2.344 -17.531 Q 2.344 -17.719 2.297 -17.906 Q 2.25 -18.094 2.344 -18.234 Q 2.109 -18.609 2.297 -19.172 Q 2.203 -19.547 2.227 -19.828 Q 2.25 -20.109 2.297 -20.484 Q 2.203 -20.625 2.203 -21.047 Q 2.25 -21.844 2.344 -22.711 Q 2.438 -23.578 2.672 -24.234 Q 2.672 -24.516 2.836 -24.727 Q 3 -24.938 3.188 -25.266 Q 3.375 -25.641 3.469 -25.734 Q 3.562 -25.828 3.609 -25.922 Q 3.75 -26.203 3.844 -26.273 Q 3.938 -26.344 3.938 -26.484 Q 4.641 -27.328 5.484 -27.703 Q 6 -28.031 6.234 -28.078 Q 6.469 -28.125 6.703 -28.219 Q 6.891 -28.312 7.195 -28.406 Q 7.5 -28.5 7.734 -28.406 Q 8.016 -28.547 8.438 -28.664 Q 8.859 -28.781 9.188 -28.781 Q 9.469 -29.016 9.82 -29.016 Q 10.172 -29.016 10.547 -28.922 Q 10.969 -28.781 11.062 -28.805 Q 11.156 -28.828 11.25 -28.828 Q 11.578 -28.828 11.859 -28.688 Q 12.375 -28.688 12.938 -28.547 Q 13.5 -28.406 13.875 -28.172 Q 13.969 -27.938 14.203 -27.82 Q 14.438 -27.703 14.531 -27.469 Q 14.766 -27.375 14.977 -27.211 Q 15.188 -27.047 15.281 -26.766 Q 15.797 -26.531 16.031 -26.039 Q 16.266 -25.547 16.547 -25.172 Q 16.5 -24.938 16.594 -24.773 Q 16.688 -24.609 16.688 -24.328 Q 16.828 -24.141 16.969 -24 Q 17.109 -23.859 17.25 -23.672 Q 17.25 -23.25 17.367 -22.875 Q 17.484 -22.5 17.484 -22.125 Q 17.672 -21.469 17.625 -20.578 Q 17.625 -20.297 17.531 -19.992 Q 17.438 -19.688 17.438 -19.359 Q 17.391 -18.984 17.531 -18.633 Q 17.672 -18.281 17.484 -17.906 Q 17.625 -17.109 17.438 -16.57 Q 17.25 -16.031 17.156 -15.422 Q 17.062 -15.281 17.039 -15.094 Q 17.016 -14.906 16.828 -14.812 Q 16.734 -14.672 16.547 -14.578 Q 16.359 -14.484 16.125 -14.391 Q 15.422 -14.016 14.766 -13.922 Q 14.484 -13.828 14.156 -13.852 Q 13.828 -13.875 13.453 -13.922 Q 12.844 -14.062 12.539 -13.969 Q 12.234 -13.875 11.953 -13.828 Q 11.625 -13.734 11.344 -13.688 Q 11.062 -13.641 10.688 -13.734 Q 10.219 -13.5 9.609 -13.641 Q 9 -13.641 8.695 -13.711 Q 8.391 -13.781 8.25 -13.922 Q 7.781 -14.016 7.242 -14.062 Q 6.703 -14.109 6.328 -14.109 Q 5.953 -13.922 5.906 -13.406 Q 5.859 -12.891 5.766 -12.375 Q 5.719 -12.141 5.695 -11.836 Q 5.672 -11.531 5.766 -11.25 Q 6 -10.781 6.094 -10.195 Q 6.188 -9.609 6.375 -9.094 Q 6.609 -8.906 6.703 -8.531 Q 7.172 -8.391 7.641 -8.391 Q 8.016 -8.625 8.391 -8.438 Q 8.766 -8.25 9.141 -8.484 Q 9.234 -8.344 9.469 -8.391 Q 9.703 -8.438 9.844 -8.344 Z M 13.125 -22.781 L 13.125 -22.781 Q 12.797 -23.438 12.539 -24.047 Q 12.281 -24.656 11.531 -24.797 Q 11.156 -25.078 11.062 -25.078 Q 10.688 -25.172 10.336 -25.266 Q 9.984 -25.359 9.609 -25.453 Q 9.047 -25.547 8.906 -25.383 Q 8.766 -25.219 8.484 -25.219 Q 8.391 -25.125 8.297 -24.984 Q 8.203 -24.844 7.969 -24.844 Q 7.594 -24.375 7.523 -24.094 Q 7.453 -23.812 7.359 -23.531 Q 7.5 -23.391 7.453 -23.18 Q 7.406 -22.969 7.406 -22.734 Q 7.453 -22.453 7.57 -22.172 Q 7.688 -21.891 7.594 -21.609 Q 7.734 -21.422 7.688 -21.141 Q 7.641 -20.859 7.734 -20.625 Q 7.5 -20.109 7.523 -20.039 Q 7.547 -19.969 7.453 -19.969 Q 7.547 -19.547 7.289 -19.242 Q 7.031 -18.938 6.938 -18.469 Q 6.938 -18.188 6.891 -17.977 Q 6.844 -17.766 6.797 -17.484 Q 7.125 -17.344 7.477 -17.227 Q 7.828 -17.109 8.062 -16.875 Q 8.297 -16.875 8.461 -16.852 Q 8.625 -16.828 8.766 -16.969 Q 9.234 -17.016 9.75 -16.969 Q 10.266 -16.922 10.781 -16.852 Q 11.297 -16.781 11.789 -16.758 Q 12.281 -16.734 12.75 -16.828 Q 13.172 -16.828 13.266 -17.039 Q 13.359 -17.25 13.453 -17.438 Q 13.688 -17.672 13.734 -17.953 Q 13.781 -18.703 13.734 -18.844 Q 13.734 -19.547 13.758 -19.852 Q 13.781 -20.156 13.734 -20.391 Q 13.688 -21.562 13.219 -22.547 Z M 11.578 -17.531 L 11.578 -17.531 Q 11.391 -17.625 11.32 -17.789 Q 11.25 -17.953 11.156 -18.047 Q 11.109 -18.375 11.484 -18.469 Q 11.578 -18.656 11.719 -18.797 Q 11.859 -18.938 11.953 -19.172 Q 12.234 -19.219 12.422 -19.055 Q 12.609 -18.891 12.844 -18.844 Q 13.219 -18.422 12.938 -18.023 Q 12.656 -17.625 12.234 -17.531 Q 11.859 -17.719 11.578 -17.531 Z M 18.047 -6.516 L 18.047 -6.516 Q 18.188 -6.422 18.141 -6.281 Q 18.094 -6.141 18.047 -5.953 Q 18 -5.672 18.047 -5.555 Q 18.094 -5.438 18 -5.25 Q 17.953 -5.156 17.812 -5.016 Q 17.672 -4.875 17.625 -4.781 Q 17.25 -4.312 17.086 -4.336 Q 16.922 -4.359 16.828 -4.359 Q 16.453 -4.172 15.984 -4.242 Q 15.516 -4.312 15.562 -4.641 Q 15.562 -4.828 15.75 -4.969 Q 15.938 -5.109 16.031 -5.25 Q 16.172 -5.438 16.195 -5.602 Q 16.219 -5.766 16.312 -5.906 Q 16.875 -6.422 17.25 -6.445 Q 17.625 -6.469 18.047 -6.516 Z M 2.062 -4.875 L 2.062 -4.875 Q 2.203 -4.969 2.25 -5.109 Q 2.297 -5.25 2.391 -5.344 Q 2.812 -5.438 2.883 -5.438 Q 2.953 -5.438 3.047 -5.531 Q 3.281 -5.438 3.445 -5.32 Q 3.609 -5.203 3.891 -5.156 Q 4.312 -4.875 4.078 -4.453 Q 3.844 -4.031 3.703 -3.703 Q 2.812 -3.562 2.016 -3.938 Q 1.922 -4.219 2.016 -4.43 Q 2.109 -4.641 2.062 -4.875 Z " /><path d="M 30.328 -14.906 L 30.328 -14.906 Q 30.75 -15.141 31.008 -15.141 Q 31.266 -15.141 31.547 -15.188 Q 31.688 -15.188 31.828 -15.258 Q 31.969 -15.328 32.109 -15.375 Q 32.578 -15.516 32.883 -15.609 Q 33.188 -15.703 33.516 -15.938 Q 33.703 -15.891 33.82 -15.938 Q 33.938 -15.984 34.031 -16.031 Q 34.125 -16.172 34.289 -16.266 Q 34.453 -16.359 34.547 -16.5 Q 34.828 -16.734 35.039 -16.828 Q 35.25 -16.922 35.344 -17.203 Q 35.719 -17.438 35.953 -17.836 Q 36.188 -18.234 36.609 -18.469 Q 37.172 -19.172 37.242 -19.594 Q 37.312 -20.016 37.406 -20.484 Q 37.359 -20.719 37.312 -21.094 Q 37.266 -21.469 37.219 -21.703 Q 36.938 -22.031 36.773 -22.5 Q 36.609 -22.969 36.234 -23.297 Q 35.953 -23.203 35.648 -23.203 Q 35.344 -23.203 35.109 -23.062 Q 34.734 -22.828 34.547 -22.523 Q 34.359 -22.219 34.125 -21.891 Q 34.078 -21.375 34.031 -20.977 Q 33.984 -20.578 33.891 -20.109 Q 33.75 -19.266 33.562 -18.891 Q 33.375 -18.516 33 -18.281 Q 32.391 -18.047 31.922 -18.094 Q 31.453 -18.141 31.219 -18.281 Q 31.078 -18.188 30.938 -18.258 Q 30.797 -18.328 30.656 -18.328 Q 30.375 -18.328 30.141 -18.281 Q 29.906 -18.234 29.719 -18.375 Q 29.438 -18.516 29.414 -18.703 Q 29.391 -18.891 29.297 -19.078 Q 29.156 -19.266 29.18 -19.406 Q 29.203 -19.547 29.156 -19.641 Q 29.109 -19.875 29.039 -20.109 Q 28.969 -20.344 29.016 -20.625 Q 29.109 -21 29.086 -21.094 Q 29.062 -21.188 29.062 -21.281 Q 29.109 -21.422 29.227 -21.609 Q 29.344 -21.797 29.391 -22.031 Q 29.484 -22.453 29.625 -22.594 Q 29.719 -22.922 29.695 -23.039 Q 29.672 -23.156 29.719 -23.25 Q 29.953 -23.484 30 -23.625 Q 30.047 -23.766 30.188 -23.812 Q 30.562 -24.469 30.914 -24.938 Q 31.266 -25.406 31.781 -25.641 Q 31.875 -25.734 31.992 -25.828 Q 32.109 -25.922 32.203 -26.016 Q 32.484 -25.969 32.602 -26.062 Q 32.719 -26.156 32.953 -26.109 Q 33.188 -26.344 33.609 -26.414 Q 34.031 -26.484 34.266 -26.766 Q 34.5 -26.812 34.805 -26.906 Q 35.109 -27 35.344 -27.188 Q 35.578 -27.188 35.789 -27.188 Q 36 -27.188 36.188 -27.094 Q 36.516 -27.094 36.609 -27.117 Q 36.703 -27.141 36.797 -27.094 Q 37.125 -27 37.5 -26.742 Q 37.875 -26.484 38.203 -26.391 Q 38.625 -26.203 38.789 -26.203 Q 38.953 -26.203 38.859 -26.016 Q 39.328 -25.828 39.445 -25.758 Q 39.562 -25.688 39.75 -25.5 Q 39.844 -25.312 40.008 -25.195 Q 40.172 -25.078 40.266 -24.844 Q 40.359 -24.609 40.477 -24.375 Q 40.594 -24.141 40.734 -23.906 Q 41.156 -23.672 41.25 -23.156 Q 41.344 -22.641 41.578 -22.266 Q 41.484 -21.188 41.414 -20.133 Q 41.344 -19.078 41.109 -17.953 Q 40.781 -17.531 40.688 -17.062 Q 40.453 -16.781 40.219 -16.57 Q 39.984 -16.359 39.891 -16.031 Q 39.703 -15.938 39.609 -15.797 Q 39.516 -15.656 39.375 -15.562 Q 38.859 -15.188 38.625 -15.094 Q 38.391 -15 38.156 -14.859 Q 37.641 -14.625 37.008 -14.414 Q 36.375 -14.203 36 -13.781 Q 35.203 -13.5 34.594 -12.844 Q 35.016 -12.656 35.18 -12.586 Q 35.344 -12.516 35.578 -12.469 Q 35.672 -12.234 35.883 -12.164 Q 36.094 -12.094 36.188 -11.859 Q 36.516 -11.672 36.797 -11.461 Q 37.078 -11.25 37.406 -11.062 Q 37.688 -10.688 37.898 -10.289 Q 38.109 -9.891 38.297 -9.469 Q 38.297 -9.234 38.32 -9.023 Q 38.344 -8.812 38.484 -8.719 Q 38.391 -8.578 38.484 -8.391 Q 38.578 -8.203 38.484 -8.062 Q 38.625 -7.875 38.578 -7.523 Q 38.531 -7.172 38.672 -6.938 Q 38.578 -6.562 38.695 -6.234 Q 38.812 -5.906 38.859 -5.531 Q 39.141 -5.438 39.094 -5.133 Q 39.047 -4.828 39 -4.594 Q 39 -4.219 39.141 -3.914 Q 39.281 -3.609 39.188 -3.375 Q 39.328 -2.812 39.562 -2.438 Q 39.797 -2.062 39.891 -1.641 Q 40.453 -1.359 40.547 -1.289 Q 40.641 -1.219 40.734 -1.172 Q 41.109 -0.984 41.414 -1.336 Q 41.719 -1.688 42.094 -1.781 Q 42.328 -1.922 42.609 -2.086 Q 42.891 -2.25 43.219 -2.156 Q 43.359 -1.828 43.641 -1.664 Q 43.922 -1.5 44.109 -1.266 Q 44.203 -1.078 44.25 -0.891 Q 44.297 -0.703 44.438 -0.562 Q 44.438 -0.281 44.508 0.047 Q 44.578 0.375 44.25 0.562 Q 44.297 0.938 44.18 1.195 Q 44.062 1.453 43.828 1.734 Q 43.781 1.828 43.688 1.945 Q 43.594 2.062 43.5 2.156 Q 43.172 2.391 43.125 2.461 Q 43.078 2.531 42.938 2.625 Q 42.375 2.812 42.234 2.953 Q 41.719 3.188 41.273 3.328 Q 40.828 3.469 40.172 3.375 Q 39.609 3.188 39.492 3.07 Q 39.375 2.953 39.234 3.047 Q 38.766 2.812 38.273 2.578 Q 37.781 2.344 37.266 2.203 Q 36.375 1.969 35.859 1.734 Q 35.812 1.5 35.625 1.359 Q 35.438 1.219 35.438 0.938 Q 35.25 0.75 35.086 0.586 Q 34.922 0.422 34.969 0.094 Q 34.641 -0.141 34.664 -0.586 Q 34.688 -1.031 34.547 -1.406 Q 34.312 -1.641 34.055 -1.805 Q 33.797 -1.969 33.609 -2.297 Q 33.469 -2.578 33.398 -2.625 Q 33.328 -2.672 33.234 -2.766 Q 33.328 -3 33.164 -3.328 Q 33 -3.656 33.141 -3.891 Q 32.672 -4.5 32.859 -5.484 Q 32.766 -5.672 32.789 -5.93 Q 32.812 -6.188 32.812 -6.375 Q 32.719 -6.797 32.719 -7.195 Q 32.719 -7.594 32.672 -7.969 Q 32.672 -8.203 32.602 -8.367 Q 32.531 -8.531 32.297 -8.625 Q 32.438 -8.859 32.273 -8.906 Q 32.109 -8.953 31.922 -9.047 Q 31.875 -9.281 31.711 -9.352 Q 31.547 -9.422 31.547 -9.656 Q 31.266 -9.844 30.938 -9.82 Q 30.609 -9.797 30.234 -9.797 Q 29.766 -9.844 29.648 -9.797 Q 29.531 -9.75 29.438 -9.75 Q 28.922 -9.703 28.781 -9.633 Q 28.641 -9.562 28.547 -9.469 Q 28.172 -9.281 27.656 -9 Q 27.141 -8.719 27.234 -8.203 Q 27.422 -7.828 27.609 -7.641 Q 27.797 -7.453 27.938 -7.266 Q 28.031 -6.609 28.055 -5.977 Q 28.078 -5.344 28.172 -4.781 Q 28.266 -4.453 28.523 -4.266 Q 28.781 -4.078 28.781 -3.75 Q 28.969 -3.609 28.969 -3.188 Q 29.156 -3 29.156 -2.695 Q 29.156 -2.391 29.297 -2.203 Q 29.016 -1.219 28.664 -0.352 Q 28.312 0.516 27.422 0.891 Q 27.328 1.125 27.164 1.242 Q 27 1.359 26.859 1.453 Q 26.484 1.5 26.438 1.547 Q 26.391 1.594 26.297 1.688 Q 25.922 1.641 25.617 1.805 Q 25.312 1.969 24.938 1.828 Q 24.797 1.781 24.68 1.711 Q 24.562 1.641 24.422 1.594 Q 24.141 1.5 23.906 1.5 Q 23.672 1.5 23.438 1.406 Q 22.875 1.641 22.523 1.266 Q 22.172 0.891 22.125 0.234 Q 21.891 -0.516 21.914 -0.867 Q 21.938 -1.219 21.891 -1.594 Q 21.844 -1.875 21.797 -2.156 Q 21.75 -2.438 21.75 -2.719 Q 21.797 -3.234 21.844 -3.656 Q 21.891 -4.078 22.125 -4.406 Q 22.219 -4.688 22.312 -5.016 Q 22.406 -5.344 22.312 -5.672 Q 22.172 -6.188 22.195 -6.375 Q 22.219 -6.562 22.219 -6.703 Q 22.172 -7.031 22.242 -7.195 Q 22.312 -7.359 22.219 -7.5 Q 22.172 -7.734 22.266 -8.133 Q 22.359 -8.531 22.219 -8.766 Q 22.359 -9.609 22.383 -10.523 Q 22.406 -11.438 22.453 -12.234 Q 22.312 -12.469 22.359 -12.727 Q 22.406 -12.984 22.266 -13.219 Q 22.312 -13.453 22.359 -13.711 Q 22.406 -13.969 22.406 -14.25 Q 22.453 -14.625 22.477 -15.07 Q 22.5 -15.516 22.5 -15.938 Q 22.547 -16.266 22.57 -16.57 Q 22.594 -16.875 22.453 -17.25 Q 22.406 -17.531 22.406 -17.719 Q 22.406 -17.906 22.219 -17.953 Q 22.219 -18.609 22.008 -19.125 Q 21.797 -19.641 21.844 -20.297 Q 21.844 -20.672 21.914 -20.977 Q 21.984 -21.281 21.938 -21.562 Q 21.797 -22.078 21.844 -22.242 Q 21.891 -22.406 21.891 -22.594 Q 21.891 -22.734 21.82 -22.875 Q 21.75 -23.016 21.844 -23.25 Q 21.75 -23.344 21.727 -23.578 Q 21.703 -23.812 21.797 -23.906 Q 21.562 -24.469 21.562 -25.266 Q 21.562 -26.062 21.844 -26.531 Q 21.844 -27.047 21.984 -27.586 Q 22.125 -28.125 22.172 -28.688 Q 22.219 -29.203 22.172 -29.648 Q 22.125 -30.094 21.891 -30.469 Q 21.75 -30.891 21.727 -31.219 Q 21.703 -31.547 21.609 -31.828 Q 21.375 -31.922 21.352 -32.227 Q 21.328 -32.531 21.141 -32.766 Q 21.281 -33 21.164 -33.234 Q 21.047 -33.469 21.141 -33.656 Q 21.047 -33.703 20.906 -33.891 Q 20.766 -34.078 20.906 -34.219 Q 20.719 -34.688 20.859 -35.297 Q 21 -35.906 21.234 -36.375 Q 21.328 -36.562 21.492 -36.75 Q 21.656 -36.938 21.891 -36.938 Q 22.219 -37.359 22.523 -37.57 Q 22.828 -37.781 23.25 -37.781 Q 23.484 -38.016 23.836 -37.992 Q 24.188 -37.969 24.562 -38.062 Q 25.219 -38.016 25.523 -37.828 Q 25.828 -37.641 26.086 -37.359 Q 26.344 -37.078 26.555 -36.75 Q 26.766 -36.422 27.094 -36.234 Q 27.281 -35.812 27.609 -35.367 Q 27.938 -34.922 27.75 -34.312 Q 28.172 -32.859 27.797 -31.172 Q 27.703 -30.656 27.609 -30.539 Q 27.516 -30.422 27.469 -30.281 Q 27.328 -29.766 27.305 -29.766 Q 27.281 -29.766 27.234 -29.672 Q 27.094 -28.969 27.07 -28.852 Q 27.047 -28.734 27.047 -28.547 Q 27.047 -28.312 26.953 -28.172 Q 26.859 -28.031 26.812 -27.844 Q 26.812 -27.422 26.695 -26.977 Q 26.578 -26.531 26.391 -26.156 Q 26.391 -25.828 26.344 -25.547 Q 26.297 -25.266 26.203 -25.031 Q 26.203 -24.234 26.156 -23.438 Q 26.109 -22.641 26.391 -21.938 Q 26.438 -21.844 26.508 -21.703 Q 26.578 -21.562 26.625 -21.422 Q 26.625 -21.234 26.578 -21.047 Q 26.531 -20.859 26.484 -20.672 Q 26.484 -20.438 26.531 -20.25 Q 26.578 -20.062 26.484 -19.922 Q 26.531 -19.406 26.414 -18.773 Q 26.297 -18.141 26.578 -17.719 Q 26.484 -17.531 26.508 -17.273 Q 26.531 -17.016 26.438 -16.828 Q 26.531 -16.5 26.391 -16.219 Q 26.25 -15.938 26.25 -15.703 Q 26.297 -15.562 26.391 -15.445 Q 26.484 -15.328 26.578 -15.188 Q 26.672 -14.906 26.695 -14.672 Q 26.719 -14.438 26.953 -14.297 Q 27.281 -14.203 27.68 -14.156 Q 28.078 -14.109 28.453 -14.25 Q 29.109 -14.344 29.391 -14.508 Q 29.672 -14.672 30.188 -14.766 Z M 31.5 -34.312 L 31.5 -34.312 Q 31.922 -34.359 32.039 -34.055 Q 32.156 -33.75 32.297 -33.516 Q 32.391 -33.094 32.227 -32.766 Q 32.062 -32.438 31.969 -32.109 Q 31.781 -32.016 31.617 -31.898 Q 31.453 -31.781 31.219 -31.828 Q 31.031 -31.828 30.867 -31.875 Q 30.703 -31.922 30.516 -31.875 Q 30.141 -32.109 29.953 -32.344 Q 29.812 -32.766 29.883 -33.211 Q 29.953 -33.656 30.094 -34.078 Q 30.422 -34.453 30.492 -34.453 Q 30.562 -34.453 30.516 -34.594 Q 30.797 -34.688 31.055 -34.57 Q 31.312 -34.453 31.5 -34.312 Z M 29.906 -29.531 L 29.906 -29.531 Q 29.812 -29.719 29.742 -29.883 Q 29.672 -30.047 29.625 -30.281 Q 29.719 -30.516 29.836 -30.703 Q 29.953 -30.891 30.188 -31.031 Q 30.422 -30.938 30.562 -31.008 Q 30.703 -31.078 30.844 -30.938 Q 31.125 -30.75 31.031 -30.188 Q 30.797 -29.953 30.609 -29.672 Q 30.422 -29.391 29.906 -29.531 Z M 39.469 -11.297 L 39.469 -11.297 Q 39.375 -11.672 39.164 -12.023 Q 38.953 -12.375 39.188 -12.75 Q 39.234 -12.844 39.516 -13.008 Q 39.797 -13.172 39.891 -13.219 Q 40.125 -13.219 40.336 -13.102 Q 40.547 -12.984 40.734 -12.844 Q 40.828 -12.562 41.086 -12.328 Q 41.344 -12.094 41.203 -11.719 Q 41.156 -11.625 40.781 -11.391 Q 40.406 -11.156 40.078 -11.156 Q 39.938 -11.156 39.773 -11.227 Q 39.609 -11.297 39.469 -11.297 Z M 30.422 -8.438 L 30.422 -8.438 Q 30.75 -7.875 30.773 -7.781 Q 30.797 -7.688 30.797 -7.406 Q 30.562 -7.172 30.375 -6.82 Q 30.188 -6.469 29.719 -6.516 Q 29.484 -6.938 28.969 -7.359 Q 28.828 -7.641 28.945 -7.898 Q 29.062 -8.156 29.25 -8.391 Q 29.344 -8.625 29.789 -8.719 Q 30.234 -8.812 30.422 -8.438 Z M 30.516 -5.438 L 30.516 -5.438 Q 30.609 -5.25 30.562 -5.039 Q 30.516 -4.828 30.516 -4.594 Q 30.281 -4.359 29.906 -4.312 Q 29.531 -4.266 29.297 -4.594 Q 29.156 -5.25 29.602 -5.484 Q 30.047 -5.719 30.516 -5.438 Z " /><path d="M 45.516 -28.453 L 45.516 -28.453 Q 45.422 -28.828 45.516 -29.25 Q 45.609 -29.672 45.891 -29.859 Q 46.312 -30.469 46.523 -30.492 Q 46.734 -30.516 46.969 -30.703 Q 47.391 -30.609 47.672 -30.258 Q 47.953 -29.906 47.906 -29.391 Q 47.812 -29.062 47.672 -28.875 Q 47.531 -28.688 47.344 -28.594 Q 47.016 -28.359 46.758 -28.125 Q 46.5 -27.891 45.938 -27.984 Q 45.844 -28.078 45.75 -28.219 Q 45.656 -28.359 45.516 -28.453 Z M 58.125 -30.609 L 58.125 -30.609 Q 58.5 -30.562 58.688 -30.469 Q 58.875 -30.375 59.016 -30.281 Q 59.156 -30.281 59.391 -30.211 Q 59.625 -30.141 59.766 -30.047 Q 59.953 -29.953 60.07 -29.766 Q 60.188 -29.578 60.422 -29.391 Q 60.609 -29.203 60.82 -29.109 Q 61.031 -29.016 61.172 -28.781 Q 61.266 -28.688 61.336 -28.523 Q 61.406 -28.359 61.5 -28.266 Q 61.781 -28.078 62.086 -27.914 Q 62.391 -27.75 62.625 -27.516 Q 63.047 -27.422 63.141 -27.281 Q 63.516 -27.047 63.539 -27.023 Q 63.562 -27 63.562 -26.906 Q 63.938 -26.812 64.195 -26.578 Q 64.453 -26.344 64.781 -26.156 Q 65.016 -25.828 65.531 -25.594 Q 65.859 -25.031 66.328 -24.609 Q 66.797 -24.188 67.031 -23.578 Q 67.219 -23.297 67.289 -23.203 Q 67.359 -23.109 67.359 -22.922 Q 67.641 -22.594 67.805 -22.172 Q 67.969 -21.75 68.297 -21.422 Q 68.531 -20.906 68.531 -20.625 Q 68.672 -20.344 68.789 -20.039 Q 68.906 -19.734 68.812 -19.453 Q 69 -19.078 68.977 -18.609 Q 68.953 -18.141 69.141 -17.859 Q 69.047 -17.391 69.023 -17.227 Q 69 -17.062 68.906 -16.969 Q 68.906 -16.594 68.906 -16.406 Q 68.906 -16.219 68.906 -16.031 Q 68.766 -15.797 68.648 -15.492 Q 68.531 -15.188 68.438 -14.812 Q 68.438 -14.531 68.367 -14.18 Q 68.297 -13.828 68.062 -13.594 Q 68.062 -13.406 68.039 -13.312 Q 68.016 -13.219 68.016 -13.078 Q 67.734 -12.562 67.594 -12.117 Q 67.453 -11.672 67.219 -11.156 L 66.984 -10.594 Q 66.891 -10.406 66.727 -10.242 Q 66.562 -10.078 66.469 -9.891 Q 66.141 -9.469 66.117 -9.328 Q 66.094 -9.188 66 -9.094 Q 65.859 -8.859 65.719 -8.742 Q 65.578 -8.625 65.484 -8.438 Q 64.828 -7.688 64.125 -7.312 Q 63.422 -6.938 62.859 -6.422 Q 62.625 -6.328 62.555 -6.211 Q 62.484 -6.094 62.391 -6 Q 61.828 -5.625 61.289 -5.391 Q 60.75 -5.156 60.234 -4.875 Q 59.953 -4.875 59.625 -4.711 Q 59.297 -4.547 58.922 -4.594 Q 58.688 -4.453 58.172 -4.477 Q 57.656 -4.5 57.281 -4.453 Q 56.719 -4.547 56.438 -4.57 Q 56.156 -4.594 56.062 -4.734 Q 55.875 -4.688 55.711 -4.758 Q 55.547 -4.828 55.453 -4.922 Q 54.984 -5.109 54.703 -5.039 Q 54.422 -4.969 54.234 -5.109 Q 54 -4.922 53.766 -5.016 Q 53.531 -5.109 53.25 -5.109 Q 53.109 -5.25 52.875 -5.297 Q 52.641 -5.344 52.547 -5.531 Q 51.797 -5.625 51.562 -5.953 Q 51.281 -6.047 51.094 -6.07 Q 50.906 -6.094 50.859 -6.281 Q 50.438 -6.375 50.156 -6.656 Q 49.875 -6.938 49.453 -7.078 Q 49.359 -7.219 49.242 -7.289 Q 49.125 -7.359 49.078 -7.547 Q 48.844 -7.641 48.727 -7.852 Q 48.609 -8.062 48.469 -8.297 Q 48.234 -8.438 48.047 -8.625 Q 47.859 -8.812 47.625 -8.953 Q 47.391 -9.281 47.227 -9.469 Q 47.062 -9.656 47.062 -9.891 Q 46.969 -9.891 46.805 -10.055 Q 46.641 -10.219 46.734 -10.312 Q 46.453 -10.5 46.266 -10.898 Q 46.078 -11.297 46.031 -11.672 Q 45.938 -11.812 45.914 -12 Q 45.891 -12.188 45.75 -12.281 Q 45.562 -12.938 45.375 -13.43 Q 45.188 -13.922 45 -14.484 Q 44.766 -14.812 44.531 -15.375 Q 44.297 -15.938 44.625 -16.453 Q 44.531 -16.641 44.578 -16.875 Q 44.625 -17.109 44.531 -17.25 Q 44.625 -17.531 44.578 -17.883 Q 44.531 -18.234 44.531 -18.609 Q 44.531 -19.406 44.906 -20.016 Q 45 -20.531 45.164 -21.094 Q 45.328 -21.656 45.656 -22.031 Q 45.703 -22.125 45.82 -22.266 Q 45.938 -22.406 46.031 -22.453 Q 45.984 -22.688 46.125 -22.828 Q 46.266 -22.969 46.359 -23.156 Q 46.406 -23.672 46.688 -24.047 Q 46.969 -24.422 47.25 -24.797 Q 47.297 -25.312 47.531 -25.617 Q 47.766 -25.922 47.812 -26.438 Q 48 -26.531 48.188 -26.719 Q 48.375 -26.906 48.328 -27.141 Q 48.797 -27.422 49.031 -27.984 Q 49.406 -28.172 49.734 -28.406 Q 50.062 -28.641 50.438 -28.875 Q 50.859 -29.25 50.977 -29.414 Q 51.094 -29.578 51.328 -29.578 Q 51.422 -29.766 51.633 -29.766 Q 51.844 -29.766 51.891 -30 Q 52.406 -30 52.5 -30.07 Q 52.594 -30.141 52.688 -30.188 Q 52.875 -30.141 52.945 -30.164 Q 53.016 -30.188 53.203 -30.234 Q 53.953 -30.328 54.562 -30.445 Q 55.172 -30.562 55.734 -30.328 Q 55.969 -30.328 56.133 -30.422 Q 56.297 -30.516 56.625 -30.422 Q 56.766 -30.516 56.859 -30.609 Q 56.953 -30.703 57.141 -30.703 Q 57.562 -30.469 57.797 -30.492 Q 58.031 -30.516 58.125 -30.609 Z M 64.359 -17.156 L 64.359 -17.156 Q 64.406 -17.625 64.125 -18.094 Q 63.844 -18.562 63.891 -19.078 Q 63.703 -19.312 63.539 -19.641 Q 63.375 -19.969 63.375 -20.344 Q 63.188 -20.672 63.023 -20.859 Q 62.859 -21.047 62.953 -21.422 Q 62.766 -21.75 62.766 -22.219 Q 62.812 -22.594 62.789 -22.617 Q 62.766 -22.641 62.719 -22.734 Q 62.625 -22.969 62.531 -23.156 Q 62.438 -23.344 62.203 -23.438 Q 61.641 -23.391 61.57 -23.414 Q 61.5 -23.438 61.359 -23.484 Q 61.031 -23.578 60.82 -23.625 Q 60.609 -23.672 60.516 -23.906 Q 60.094 -24.375 59.766 -24.516 Q 59.438 -24.656 59.297 -25.031 Q 59.016 -25.219 58.734 -25.359 Q 58.453 -25.5 58.312 -25.828 Q 57.938 -25.969 57.797 -26.203 Q 57.328 -26.391 56.953 -26.297 Q 56.062 -25.922 55.523 -25.828 Q 54.984 -25.734 54.75 -25.266 Q 54.188 -24.984 53.625 -24.82 Q 53.062 -24.656 52.688 -24.234 Q 52.219 -23.953 51.891 -23.812 Q 51.562 -23.672 51.188 -23.531 Q 50.484 -23.016 49.781 -22.734 Q 49.359 -22.359 49.031 -21.891 Q 48.703 -21.422 48.328 -20.953 Q 48.234 -20.672 48.188 -20.367 Q 48.141 -20.062 48.047 -19.828 Q 48.141 -19.688 48.117 -19.5 Q 48.094 -19.312 48.094 -19.172 Q 48.141 -18.984 48.234 -18.867 Q 48.328 -18.75 48.234 -18.656 Q 48.609 -17.344 49.078 -16.266 Q 49.359 -16.078 49.406 -15.844 Q 49.828 -15.656 49.969 -14.953 Q 50.344 -14.719 50.672 -14.438 Q 51 -14.156 51.141 -13.688 Q 51.516 -13.453 51.75 -12.703 Q 51.891 -12.609 51.961 -12.445 Q 52.031 -12.281 52.125 -12.141 Q 52.688 -11.812 53.062 -11.438 Q 53.438 -11.062 53.812 -10.547 Q 54.656 -10.031 55.617 -9.984 Q 56.578 -9.938 57.516 -9.844 Q 57.938 -9.797 58.383 -9.891 Q 58.828 -9.984 59.203 -9.984 Q 59.578 -10.125 59.766 -10.336 Q 59.953 -10.547 60.328 -10.641 Q 60.562 -11.016 60.867 -11.227 Q 61.172 -11.438 61.453 -11.578 Q 61.688 -11.672 61.828 -11.789 Q 61.969 -11.906 62.203 -12 Q 62.531 -12.516 63.047 -12.797 Q 63.562 -13.078 63.797 -13.547 Q 64.219 -14.297 64.336 -14.977 Q 64.453 -15.656 64.547 -16.312 Q 64.406 -16.406 64.406 -16.617 Q 64.406 -16.828 64.453 -17.062 Z M 51.281 -20.625 L 51.281 -20.625 Q 51.469 -20.156 51.047 -19.594 Q 51 -19.5 50.766 -19.266 Q 50.531 -19.031 50.391 -19.031 Q 50.156 -18.938 49.898 -19.031 Q 49.641 -19.125 49.5 -19.219 Q 49.406 -19.453 49.359 -19.688 Q 49.312 -19.922 49.453 -20.156 Q 49.594 -20.484 50.203 -20.766 Q 50.812 -21.047 51.141 -20.766 Z M 61.594 -15.797 L 61.594 -15.797 Q 61.828 -15.469 61.664 -15.281 Q 61.5 -15.094 61.406 -14.812 Q 61.078 -14.297 60.891 -14.25 Q 60.703 -14.203 60.516 -14.156 Q 60.281 -14.297 60.07 -14.414 Q 59.859 -14.531 59.766 -14.812 Q 59.672 -15.188 59.883 -15.422 Q 60.094 -15.656 60.328 -15.844 Q 60.656 -15.891 61.008 -15.961 Q 61.359 -16.031 61.594 -15.797 Z M 57.047 -13.828 L 57.047 -13.828 Q 57.656 -13.781 58.148 -13.594 Q 58.641 -13.406 58.781 -12.938 Q 58.922 -12.141 58.312 -11.836 Q 57.703 -11.531 57.047 -11.484 Q 55.969 -11.484 55.594 -12 Q 55.5 -12.328 55.664 -12.492 Q 55.828 -12.656 55.922 -12.891 Q 56.297 -13.172 56.578 -13.336 Q 56.859 -13.5 57.141 -13.688 Z M 67.172 -6.75 L 67.172 -6.75 Q 67.031 -6.516 66.844 -6.305 Q 66.656 -6.094 66.328 -6.094 Q 66.094 -6.094 65.953 -6.211 Q 65.812 -6.328 65.672 -6.469 Q 65.531 -6.562 65.391 -6.609 Q 65.25 -6.656 65.344 -6.891 Q 65.391 -7.078 65.531 -7.148 Q 65.672 -7.219 65.906 -7.359 Q 66.094 -7.406 66.562 -7.547 Q 67.031 -7.688 67.172 -7.359 Q 67.266 -7.219 67.172 -7.102 Q 67.078 -6.984 67.172 -6.75 Z " /></g></svg>