<svg xmlns="http://www.w3.org/2000/svg" width="72.281" height="54.188" viewBox="0 -48.328 72.281 54.188"><title>eko</title><g transform=""><path d="M 19.195 -12.422 L 19.195 -12.422 Q 19.523 -11.883 19.793 -10.969 Q 20.062 -10.055 20.062 -9.117 Q 20.062 -7.406 19.5 -6.059 Q 18.938 -4.711 17.883 -3.785 Q 16.828 -2.859 15.34 -2.367 Q 13.852 -1.875 12 -1.875 Q 9.328 -1.875 7.23 -2.777 Q 5.133 -3.68 3.703 -5.297 Q 2.273 -6.914 1.523 -9.152 Q 0.773 -11.391 0.773 -14.062 Q 0.773 -16.477 1.289 -18.445 Q 1.805 -20.414 2.695 -21.961 Q 3.586 -23.508 4.758 -24.656 Q 5.93 -25.805 7.242 -26.555 Q 8.555 -27.305 9.914 -27.668 Q 11.273 -28.031 12.539 -28.031 Q 13.781 -28.031 15.117 -27.703 Q 16.453 -27.375 17.566 -26.578 Q 18.68 -25.781 19.395 -24.48 Q 20.109 -23.18 20.109 -21.211 Q 20.109 -19.5 19.605 -18.211 Q 19.102 -16.922 18.281 -15.984 Q 17.461 -15.047 16.418 -14.438 Q 15.375 -13.828 14.285 -13.465 Q 13.195 -13.102 12.152 -12.961 Q 11.109 -12.82 10.312 -12.82 Q 9.164 -12.82 8.074 -12.984 Q 6.984 -13.148 6.375 -13.336 Q 6.469 -11.508 6.949 -9.809 Q 7.43 -8.109 8.32 -6.82 Q 9.211 -5.531 10.535 -4.758 Q 11.859 -3.984 13.641 -3.984 Q 14.883 -3.984 15.785 -4.406 Q 16.688 -4.828 17.273 -5.543 Q 17.859 -6.258 18.141 -7.195 Q 18.422 -8.133 18.422 -9.164 Q 18.422 -9.773 18.34 -10.43 Q 18.258 -11.086 18.047 -11.672 Q 17.906 -12.023 17.812 -12.328 Q 17.719 -12.633 17.719 -12.82 Q 17.719 -13.289 18.141 -13.289 Q 18.352 -13.289 18.645 -13.078 Q 18.938 -12.867 19.195 -12.422 Z M 6.281 -14.883 L 6.281 -14.883 Q 6.891 -14.695 7.664 -14.566 Q 8.438 -14.438 9.609 -14.438 Q 10.969 -14.438 12.117 -14.953 Q 13.266 -15.469 14.086 -16.395 Q 14.906 -17.32 15.375 -18.633 Q 15.844 -19.945 15.844 -21.562 Q 15.844 -22.992 15.527 -23.965 Q 15.211 -24.938 14.695 -25.523 Q 14.18 -26.109 13.512 -26.355 Q 12.844 -26.602 12.141 -26.602 Q 11.25 -26.602 10.219 -26.062 Q 9.188 -25.523 8.309 -24.188 Q 7.43 -22.852 6.855 -20.59 Q 6.281 -18.328 6.281 -14.883 Z " /><path d="M 29.086 5.227 L 29.086 5.227 Q 27.891 5.227 26.648 5.32 Q 25.406 5.414 24.27 5.543 Q 23.133 5.672 22.195 5.766 Q 21.258 5.859 20.648 5.859 Q 20.18 5.859 20.004 5.695 Q 19.828 5.531 19.828 5.273 Q 19.828 4.711 20.648 4.711 Q 21.656 4.711 22.336 4.559 Q 23.016 4.406 23.531 4.219 Q 24.586 3.82 25.172 3.047 Q 25.758 2.273 26.016 1.312 Q 26.273 0.352 26.32 -0.727 Q 26.367 -1.805 26.367 -2.789 Q 26.367 -4.148 26.355 -5.777 Q 26.344 -7.406 26.309 -9.152 Q 26.273 -10.898 26.25 -12.668 Q 26.227 -14.438 26.191 -16.09 Q 26.156 -17.742 26.121 -19.184 Q 26.086 -20.625 26.062 -21.703 Q 26.039 -23.062 26.016 -24.656 Q 25.992 -26.25 25.957 -27.902 Q 25.922 -29.555 25.887 -31.195 Q 25.852 -32.836 25.793 -34.266 Q 25.734 -35.695 25.664 -36.832 Q 25.594 -37.969 25.5 -38.648 Q 25.359 -39.609 25.008 -40.195 Q 24.656 -40.781 24.199 -41.098 Q 23.742 -41.414 23.191 -41.52 Q 22.641 -41.625 22.078 -41.625 Q 21.258 -41.625 20.344 -41.496 Q 19.43 -41.367 18.68 -41.367 Q 18.07 -41.367 17.801 -41.52 Q 17.531 -41.672 17.531 -42 Q 17.531 -42.281 17.742 -42.445 Q 17.953 -42.609 18.234 -42.68 Q 19.453 -42.938 20.473 -43.195 Q 21.492 -43.453 22.359 -43.746 Q 23.227 -44.039 23.988 -44.391 Q 24.75 -44.742 25.5 -45.211 Q 26.32 -45.727 26.895 -46.289 Q 27.469 -46.852 27.879 -47.297 Q 28.289 -47.742 28.582 -48.035 Q 28.875 -48.328 29.133 -48.328 Q 29.461 -48.328 29.566 -48.012 Q 29.672 -47.695 29.672 -47.367 Q 29.672 -46.992 29.648 -46.371 Q 29.625 -45.75 29.602 -45.023 Q 29.578 -44.297 29.555 -43.559 Q 29.531 -42.82 29.531 -42.234 Q 29.531 -41.32 29.566 -39.727 Q 29.602 -38.133 29.66 -36.129 Q 29.719 -34.125 29.789 -31.852 Q 29.859 -29.578 29.941 -27.305 Q 30.023 -25.031 30.105 -22.887 Q 30.188 -20.742 30.27 -18.996 Q 30.352 -17.25 30.422 -16.043 Q 30.492 -14.836 30.539 -14.438 Q 31.477 -15.422 32.203 -16.148 Q 32.93 -16.875 33.539 -17.543 Q 34.148 -18.211 34.746 -18.902 Q 35.344 -19.594 36.047 -20.484 Q 36.445 -21.023 36.633 -21.469 Q 36.82 -21.914 36.82 -22.312 Q 36.82 -23.25 35.812 -23.766 L 33.891 -24.68 Q 33.422 -24.938 33.422 -25.336 Q 33.422 -25.57 33.539 -25.746 Q 33.656 -25.922 33.984 -25.922 Q 34.266 -25.922 34.617 -25.734 Q 34.969 -25.547 35.531 -25.289 Q 36.094 -25.031 36.891 -24.727 Q 37.688 -24.422 38.836 -24.188 Q 39.281 -24.094 39.902 -24.023 Q 40.523 -23.953 41.18 -23.895 Q 41.836 -23.836 42.457 -23.801 Q 43.078 -23.766 43.5 -23.766 Q 43.992 -23.766 44.273 -23.637 Q 44.555 -23.508 44.555 -23.18 Q 44.555 -22.922 44.297 -22.746 Q 44.039 -22.57 43.406 -22.57 Q 42.797 -22.57 42.199 -22.523 Q 41.602 -22.477 41.016 -22.336 Q 40.43 -22.195 39.844 -21.914 Q 39.258 -21.633 38.648 -21.164 Q 38.273 -20.883 37.77 -20.426 Q 37.266 -19.969 36.762 -19.441 Q 36.258 -18.914 35.789 -18.363 Q 35.32 -17.812 34.992 -17.32 Q 35.062 -16.805 35.332 -15.668 Q 35.602 -14.531 36.07 -13.113 Q 36.539 -11.695 37.23 -10.184 Q 37.922 -8.672 38.812 -7.43 Q 39.703 -6.188 40.828 -5.379 Q 41.953 -4.57 43.289 -4.57 Q 44.531 -4.57 45.281 -5.461 Q 46.031 -6.352 46.031 -7.828 Q 46.031 -8.461 45.867 -9.059 Q 45.703 -9.656 45.445 -10.195 Q 45.188 -10.734 44.836 -11.191 Q 44.484 -11.648 44.109 -12 Q 43.828 -12.281 43.535 -12.504 Q 43.242 -12.727 43.242 -12.867 Q 43.242 -13.055 43.5 -13.055 Q 43.781 -13.055 44.285 -12.762 Q 44.789 -12.469 45.211 -12.094 Q 45.68 -11.719 46.113 -11.191 Q 46.547 -10.664 46.887 -9.984 Q 47.227 -9.305 47.426 -8.473 Q 47.625 -7.641 47.625 -6.633 Q 47.625 -5.906 47.402 -4.922 Q 47.18 -3.938 46.605 -3.035 Q 46.031 -2.133 45 -1.5 Q 43.969 -0.867 42.352 -0.867 Q 40.172 -0.867 38.473 -1.887 Q 36.773 -2.906 35.473 -4.664 Q 34.172 -6.422 33.234 -8.766 Q 32.297 -11.109 31.641 -13.734 L 30.68 -12.68 Q 30.727 -11.531 30.809 -10.195 Q 30.891 -8.859 31.008 -7.512 Q 31.125 -6.164 31.242 -4.875 Q 31.359 -3.586 31.465 -2.508 Q 31.57 -1.43 31.664 -0.645 Q 31.758 0.141 31.828 0.469 Q 31.969 1.242 32.191 1.852 Q 32.414 2.461 32.789 2.883 Q 33.164 3.305 33.75 3.527 Q 34.336 3.75 35.227 3.75 Q 35.625 3.75 36.082 3.727 Q 36.539 3.703 36.961 3.703 Q 37.266 3.703 37.57 3.738 Q 37.875 3.773 38.109 3.867 Q 38.344 3.961 38.496 4.125 Q 38.648 4.289 38.648 4.57 Q 38.648 4.992 38.215 5.309 Q 37.781 5.625 36.492 5.625 Q 35.836 5.625 35.191 5.566 Q 34.547 5.508 33.715 5.426 Q 32.883 5.344 31.77 5.285 Q 30.656 5.227 29.086 5.227 Z " /><path d="M 49.102 -14.391 L 49.102 -14.391 Q 49.102 -17.016 49.922 -19.137 Q 50.742 -21.258 52.242 -22.758 Q 53.742 -24.258 55.863 -25.066 Q 57.984 -25.875 60.562 -25.875 Q 62.883 -25.875 64.84 -25.102 Q 66.797 -24.328 68.227 -22.887 Q 69.656 -21.445 70.465 -19.395 Q 71.273 -17.344 71.273 -14.789 Q 71.273 -11.766 70.277 -9.609 Q 69.281 -7.453 67.723 -6.07 Q 66.164 -4.688 64.242 -4.043 Q 62.32 -3.398 60.469 -3.398 Q 58.242 -3.398 56.191 -4.137 Q 54.141 -4.875 52.57 -6.281 Q 51 -7.688 50.051 -9.738 Q 49.102 -11.789 49.102 -14.391 Z M 60.234 -24.961 L 60.234 -24.961 Q 58.898 -24.961 57.926 -24.293 Q 56.953 -23.625 56.32 -22.488 Q 55.688 -21.352 55.395 -19.84 Q 55.102 -18.328 55.102 -16.664 Q 55.102 -15.281 55.266 -13.875 Q 55.43 -12.469 55.77 -11.168 Q 56.109 -9.867 56.613 -8.73 Q 57.117 -7.594 57.82 -6.75 Q 58.523 -5.906 59.426 -5.426 Q 60.328 -4.945 61.43 -4.945 Q 62.859 -4.945 63.832 -5.59 Q 64.805 -6.234 65.391 -7.277 Q 65.977 -8.32 66.223 -9.621 Q 66.469 -10.922 66.469 -12.234 Q 66.469 -15.469 66 -17.859 Q 65.531 -20.25 64.688 -21.832 Q 63.844 -23.414 62.707 -24.188 Q 61.57 -24.961 60.234 -24.961 Z " /></g></svg>