<svg xmlns="http://www.w3.org/2000/svg" width="80.16" height="35.52" viewBox="0 -34.368 80.16 35.52"><title>eko</title><g transform=""><path d="M 14.592 1.152 L 14.592 1.152 Q 10.848 1.152 7.968 0.48 Q 5.088 -0.192 3.168 -1.68 Q 2.736 -3.6 2.568 -5.16 Q 2.4 -6.72 2.4 -8.112 Q 2.4 -12.384 3.72 -15.936 Q 5.04 -19.488 7.104 -22.056 Q 9.168 -24.624 11.376 -25.872 Q 13.344 -25.104 15.384 -24.024 Q 17.424 -22.944 19.152 -21.504 Q 20.88 -20.064 21.936 -18.264 Q 22.992 -16.464 22.992 -14.304 Q 22.992 -12.048 22.2 -10.536 Q 21.408 -9.024 19.344 -8.256 Q 17.28 -7.488 13.392 -7.488 Q 11.76 -7.488 10.248 -7.632 Q 8.736 -7.776 7.632 -8.016 Q 6.72 -5.76 6.72 -3.312 Q 7.824 -3.168 9.12 -3.096 Q 10.416 -3.024 11.616 -3.024 Q 13.872 -3.024 16.248 -3.384 Q 18.624 -3.744 21.024 -4.608 L 22.464 0.048 Q 20.544 0.672 18.528 0.912 Q 16.512 1.152 14.592 1.152 Z M 10.608 -10.224 L 10.608 -10.224 Q 12.432 -10.224 14.28 -10.416 Q 16.128 -10.608 17.52 -10.896 Q 17.664 -11.856 17.664 -12.72 Q 17.664 -14.448 17.208 -15.816 Q 16.752 -17.184 16.08 -18.24 Q 13.392 -16.464 11.64 -14.496 Q 9.888 -12.528 8.592 -10.272 Q 9.072 -10.224 9.6 -10.224 Q 10.128 -10.224 10.608 -10.224 Z " /><path d="M 31.44 0.72 L 31.44 0.72 L 28.992 -32.784 L 39.264 -34.368 L 37.44 -13.632 L 47.664 -25.728 L 50.88 -23.232 L 43.44 -15.456 L 53.856 0.096 L 44.736 0.72 L 38.736 -10.512 L 37.008 -8.88 L 36.192 0.288 Z " /><path d="M 67.104 1.152 L 67.104 1.152 Q 63.696 1.152 61.32 0.36 Q 58.944 -0.432 57.456 -1.632 Q 57.072 -3.552 56.904 -5.352 Q 56.736 -7.152 56.736 -8.832 Q 56.736 -12.192 57.72 -15.072 Q 58.704 -17.952 60.168 -20.184 Q 61.632 -22.416 63.168 -23.88 Q 64.704 -25.344 65.76 -25.872 Q 67.92 -24.768 70.032 -23.184 Q 72.144 -21.6 73.896 -19.488 Q 75.648 -17.376 76.704 -14.736 Q 77.76 -12.096 77.76 -8.832 Q 77.76 -5.52 76.848 -3.312 Q 75.936 -1.104 73.632 0.024 Q 71.328 1.152 67.104 1.152 Z M 64.512 -3.024 L 64.512 -3.024 Q 66.336 -3.024 68.184 -3.288 Q 70.032 -3.552 71.424 -4.032 Q 71.808 -5.568 72 -7.104 Q 72.192 -8.64 72.192 -10.128 Q 72.192 -14.688 70.272 -18.48 Q 67.584 -17.088 65.52 -14.616 Q 63.456 -12.144 62.28 -9.192 Q 61.104 -6.24 61.104 -3.312 Q 62.64 -3.024 64.512 -3.024 Z " /></g></svg>