<svg xmlns="http://www.w3.org/2000/svg" width="63.656" height="34.125" viewBox="-2.578 -30.891 63.656 34.125"><title>eko</title><g transform=""><path d="M 19.734 -30.75 L 19.734 -30.75 Q 19.828 -30.609 19.805 -30.469 Q 19.781 -30.328 19.875 -30.234 Q 19.734 -29.859 19.5 -29.531 Q 19.547 -28.969 19.195 -28.688 Q 18.844 -28.406 18.656 -28.031 Q 18.562 -27.469 18.188 -27.188 Q 18.141 -26.953 18.117 -26.742 Q 18.094 -26.531 18.188 -26.344 Q 18.094 -26.156 17.977 -26.062 Q 17.859 -25.969 17.766 -25.781 Q 17.812 -25.266 17.695 -25.172 Q 17.578 -25.078 17.484 -24.891 Q 17.156 -24.281 16.992 -24.023 Q 16.828 -23.766 16.734 -23.438 Q 16.453 -22.781 16.219 -22.547 Q 15.984 -22.5 15.914 -22.594 Q 15.844 -22.688 15.703 -22.734 Q 15.562 -22.219 15.398 -22.336 Q 15.234 -22.453 15.188 -22.641 Q 14.625 -22.594 14.508 -22.734 Q 14.391 -22.875 14.156 -22.922 Q 13.875 -22.969 13.711 -22.875 Q 13.547 -22.781 13.266 -22.781 Q 13.078 -22.828 12.961 -22.945 Q 12.844 -23.062 12.656 -23.062 Q 12.422 -23.109 12.281 -22.969 Q 12.141 -22.828 11.953 -22.734 Q 11.625 -22.828 11.367 -22.734 Q 11.109 -22.641 10.734 -22.594 Q 10.266 -22.734 10.055 -22.781 Q 9.844 -22.828 9.797 -23.062 Q 9.234 -22.781 9.164 -22.898 Q 9.094 -23.016 8.953 -23.156 Q 8.719 -23.109 8.555 -23.039 Q 8.391 -22.969 8.297 -22.875 Q 7.781 -23.203 7.594 -22.594 Q 7.875 -21.797 7.688 -21.609 Q 7.5 -21.422 7.406 -21.094 Q 7.547 -20.812 7.641 -20.508 Q 7.734 -20.203 7.594 -19.828 Q 7.688 -19.594 7.734 -19.266 Q 7.781 -18.938 7.641 -18.656 Q 7.875 -18 7.758 -17.344 Q 7.641 -16.688 7.734 -16.078 Q 7.922 -16.031 8.086 -16.078 Q 8.25 -16.125 8.484 -16.125 Q 9.047 -16.266 9.164 -16.195 Q 9.281 -16.125 9.422 -16.031 Q 9.516 -16.078 9.656 -16.055 Q 9.797 -16.031 9.938 -16.078 Q 10.078 -16.125 10.195 -16.195 Q 10.312 -16.266 10.453 -16.219 Q 10.922 -16.125 11.086 -16.125 Q 11.25 -16.125 11.391 -16.125 Q 11.812 -16.453 12.328 -16.406 Q 12.656 -16.641 12.844 -17.016 Q 13.031 -17.391 13.453 -17.531 Q 13.969 -17.625 14.062 -17.883 Q 14.156 -18.141 14.438 -18.234 Q 14.625 -18.656 14.719 -18.75 Q 15.094 -19.031 15.281 -19.125 Q 15.469 -19.219 15.75 -19.219 Q 15.75 -18.656 15.891 -18.609 Q 16.031 -18.562 15.938 -18.469 Q 15.891 -18.328 15.75 -18.258 Q 15.609 -18.188 15.516 -18.094 Q 15.562 -17.906 15.516 -17.812 Q 15.469 -17.719 15.469 -17.578 Q 15.281 -17.391 14.953 -17.25 Q 14.719 -16.969 14.578 -16.5 Q 14.531 -15.75 14.367 -15.375 Q 14.203 -15 14.156 -14.438 Q 13.594 -14.109 13.477 -13.805 Q 13.359 -13.5 13.172 -13.266 Q 13.125 -12.703 13.008 -12.516 Q 12.891 -12.328 12.75 -12.141 Q 12.188 -11.812 12.047 -11.836 Q 11.906 -11.859 11.766 -11.766 Q 11.531 -11.812 11.32 -11.812 Q 11.109 -11.812 10.875 -11.906 Q 10.688 -12 10.477 -11.859 Q 10.266 -11.719 10.078 -11.719 Q 9.797 -11.719 9.68 -11.859 Q 9.562 -12 9.422 -12.094 Q 9.188 -12.047 8.93 -12 Q 8.672 -11.953 8.531 -11.812 Q 8.344 -11.766 8.227 -11.812 Q 8.109 -11.859 7.922 -11.859 Q 7.781 -11.719 7.734 -11.484 Q 7.688 -11.25 7.453 -11.203 Q 7.5 -10.969 7.617 -10.852 Q 7.734 -10.734 7.875 -10.594 Q 7.781 -10.031 7.688 -9.609 Q 7.547 -8.953 7.711 -8.836 Q 7.875 -8.719 7.875 -8.391 Q 7.828 -8.156 7.711 -7.969 Q 7.594 -7.781 7.5 -7.547 Q 7.547 -7.312 7.617 -7.172 Q 7.688 -7.031 7.641 -6.75 Q 7.875 -5.859 7.617 -5.719 Q 7.359 -5.578 7.312 -5.203 Q 7.406 -4.969 7.477 -4.828 Q 7.547 -4.688 7.547 -4.453 Q 7.641 -4.359 7.664 -4.219 Q 7.688 -4.078 7.781 -3.984 Q 8.344 -4.125 8.391 -4.055 Q 8.438 -3.984 8.531 -3.891 Q 8.719 -3.984 8.859 -4.008 Q 9 -4.031 9.141 -4.125 Q 9.469 -4.172 9.609 -4.078 Q 9.75 -3.984 9.984 -3.938 Q 10.359 -4.031 10.594 -4.195 Q 10.828 -4.359 11.344 -4.312 Q 11.438 -4.219 11.461 -4.055 Q 11.484 -3.891 11.484 -3.703 Q 11.672 -3.703 11.812 -3.867 Q 11.953 -4.031 12.281 -3.938 Q 12.797 -4.125 12.797 -3.891 Q 13.172 -3.984 13.312 -4.219 Q 13.453 -4.453 13.781 -4.547 Q 14.156 -4.453 14.25 -4.57 Q 14.344 -4.688 14.484 -4.781 Q 15.234 -4.875 15.422 -5.32 Q 15.609 -5.766 15.891 -6.141 Q 16.031 -6.234 16.242 -6.258 Q 16.453 -6.281 16.688 -6.328 Q 16.828 -6.562 16.922 -6.891 Q 17.016 -7.219 17.203 -7.453 Q 17.344 -7.594 17.484 -7.688 Q 17.625 -7.781 17.719 -8.016 Q 18.094 -8.391 18.305 -8.695 Q 18.516 -9 19.031 -8.906 Q 19.453 -8.531 19.266 -8.438 Q 19.078 -8.344 19.031 -8.016 Q 19.078 -7.875 19.148 -7.734 Q 19.219 -7.594 19.172 -7.406 Q 18.797 -6.797 18.75 -6.609 Q 18.703 -6.422 18.609 -6.234 Q 18.562 -6 18.656 -5.859 Q 18.75 -5.719 18.797 -5.484 Q 18.422 -5.109 18.398 -5.016 Q 18.375 -4.922 18.375 -4.828 Q 18.375 -4.641 18.445 -4.547 Q 18.516 -4.453 18.562 -4.312 Q 18.562 -4.078 18.516 -3.961 Q 18.469 -3.844 18.375 -3.703 Q 18.047 -3.516 17.977 -3.352 Q 17.906 -3.188 17.953 -3.047 Q 17.672 -2.578 17.648 -2.531 Q 17.625 -2.484 17.531 -2.484 Q 17.438 -2.156 17.414 -1.805 Q 17.391 -1.453 17.25 -1.172 Q 17.156 -1.078 16.945 -1.125 Q 16.734 -1.172 16.688 -1.031 Q 16.734 -0.797 16.781 -0.68 Q 16.828 -0.562 16.922 -0.422 Q 16.922 -0.188 16.992 -0.023 Q 17.062 0.141 17.062 0.375 Q 16.922 0.609 16.594 0.539 Q 16.266 0.469 16.078 0.375 Q 15.938 0.422 15.844 0.516 Q 15.75 0.609 15.562 0.609 Q 15.094 0.469 14.812 0.422 Q 14.203 0.75 13.758 0.703 Q 13.312 0.656 12.891 0.656 Q 12.188 0.656 11.953 0.492 Q 11.719 0.328 11.438 0.328 Q 11.25 0.375 11.156 0.469 Q 11.062 0.562 10.828 0.656 Q 10.641 0.609 10.453 0.609 Q 10.266 0.609 10.031 0.609 Q 9.516 0.422 9.211 0.609 Q 8.906 0.797 8.672 0.469 Q 8.578 0.562 8.414 0.703 Q 8.25 0.844 8.062 0.609 Q 8.062 0.469 8.109 0.328 Q 8.156 0.188 8.062 0.094 Q 7.359 0.328 7.148 0.445 Q 6.938 0.562 6.562 0.609 Q 6 0.75 5.789 0.68 Q 5.578 0.609 5.531 0.375 Q 4.828 0.516 4.711 0.68 Q 4.594 0.844 4.312 0.844 Q 4.078 0.656 3.703 0.586 Q 3.328 0.516 2.953 0.609 Q 2.578 0.516 2.32 0.516 Q 2.062 0.516 1.922 0.609 Q 1.688 0.797 1.547 1.078 Q 1.406 1.359 1.031 1.406 Q 0.703 1.359 0.562 1.195 Q 0.422 1.031 0.188 0.938 Q -0.047 0.938 -0.141 1.078 Q -0.234 1.219 -0.469 1.219 Q -1.266 0.703 -1.664 0.562 Q -2.062 0.422 -2.578 0.375 Q -2.531 0 -2.25 0.023 Q -1.969 0.047 -1.875 -0.188 Q -1.547 -0.281 -1.453 -0.305 Q -1.359 -0.328 -1.266 -0.422 Q -1.031 -0.375 -0.82 -0.422 Q -0.609 -0.469 -0.422 -0.375 Q 0.234 -0.422 0.516 -0.727 Q 0.797 -1.031 1.125 -1.406 Q 1.453 -1.5 1.5 -1.57 Q 1.547 -1.641 1.641 -1.688 Q 1.969 -2.25 2.086 -2.484 Q 2.203 -2.719 2.438 -2.906 Q 2.344 -3.188 2.508 -3.375 Q 2.672 -3.562 2.766 -3.797 Q 2.625 -4.453 2.719 -4.664 Q 2.812 -4.875 2.906 -5.109 Q 2.906 -5.578 2.766 -5.953 Q 2.812 -6.469 2.812 -6.539 Q 2.812 -6.609 2.906 -6.703 Q 2.766 -6.891 2.719 -7.125 Q 2.672 -7.359 2.625 -7.594 Q 2.578 -7.734 2.461 -7.805 Q 2.344 -7.875 2.25 -8.016 Q 2.391 -8.484 2.766 -8.766 Q 2.766 -9.047 2.859 -9.211 Q 2.953 -9.375 3.047 -9.609 Q 2.953 -9.844 2.836 -9.914 Q 2.719 -9.984 2.719 -10.172 Q 2.672 -10.453 2.883 -10.805 Q 3.094 -11.156 3.094 -11.531 Q 2.953 -12.094 3.094 -12.281 Q 3.234 -12.469 3.281 -12.703 Q 3.047 -13.078 2.883 -13.453 Q 2.719 -13.828 2.578 -14.25 Q 2.484 -14.484 2.578 -14.672 Q 2.672 -14.859 2.719 -15.094 Q 2.719 -15.516 2.672 -15.633 Q 2.625 -15.75 2.672 -15.938 Q 2.531 -16.453 2.625 -16.688 Q 2.719 -16.922 2.812 -17.203 Q 2.812 -17.766 2.602 -18.094 Q 2.391 -18.422 2.156 -18.75 Q 2.156 -19.078 2.227 -19.289 Q 2.297 -19.5 2.391 -19.734 Q 2.25 -20.531 2.32 -20.859 Q 2.391 -21.188 2.297 -21.562 Q 2.344 -21.891 2.531 -22.312 Q 2.484 -22.828 2.602 -22.922 Q 2.719 -23.016 2.672 -23.297 Q 2.578 -23.484 2.414 -23.555 Q 2.25 -23.625 2.156 -23.859 Q 2.156 -24.047 2.297 -24.094 Q 2.438 -24.141 2.484 -24.281 Q 2.203 -24.422 1.969 -24.516 Q 1.547 -24.891 1.219 -24.961 Q 0.891 -25.031 0.938 -25.406 Q 0.234 -25.594 0.141 -25.641 Q 0.047 -25.734 0 -25.852 Q -0.047 -25.969 -0.234 -26.016 Q -0.375 -26.016 -0.539 -25.969 Q -0.703 -25.922 -0.844 -26.016 Q -1.078 -26.25 -0.938 -26.555 Q -0.797 -26.859 -0.562 -27.047 Q 0 -26.953 0.188 -26.953 Q 0.375 -26.953 0.562 -27.047 Q 0.984 -27.234 1.055 -27.164 Q 1.125 -27.094 1.219 -27.047 Q 1.781 -27.047 1.805 -26.93 Q 1.828 -26.812 1.922 -26.766 Q 2.625 -26.766 2.906 -26.859 Q 3.188 -26.953 3.375 -27.094 Q 3.75 -27 3.914 -27.164 Q 4.078 -27.328 4.359 -27.328 Q 5.016 -27.047 5.297 -27.094 Q 5.578 -27.141 5.859 -27.211 Q 6.141 -27.281 6.398 -27.281 Q 6.656 -27.281 6.891 -27.141 Q 7.172 -27.281 7.43 -27.469 Q 7.688 -27.656 8.062 -27.562 Q 8.391 -27.422 8.531 -26.859 Q 8.953 -27.047 9.445 -27.164 Q 9.938 -27.281 10.453 -27.234 Q 11.016 -26.906 11.273 -26.977 Q 11.531 -27.047 11.766 -26.906 Q 12.703 -26.719 13.219 -27.234 Q 13.453 -27.375 13.617 -27.586 Q 13.781 -27.797 14.062 -27.891 Q 14.344 -27.844 14.344 -27.422 Q 14.531 -27.469 14.672 -27.562 Q 14.812 -27.656 15.047 -27.562 Q 15.328 -27.891 15.492 -27.984 Q 15.656 -28.078 15.891 -28.172 Q 16.219 -27.703 16.266 -27.773 Q 16.312 -27.844 16.406 -27.844 Q 16.688 -28.453 16.969 -28.711 Q 17.25 -28.969 17.531 -29.203 Q 18 -29.25 18.07 -29.531 Q 18.141 -29.812 18.375 -29.906 Q 18.797 -29.906 18.891 -30.094 Q 18.984 -30.281 19.102 -30.469 Q 19.219 -30.656 19.383 -30.773 Q 19.547 -30.891 19.734 -30.75 Z " /><path d="M 41.625 2.25 L 41.625 2.25 Q 41.578 2.531 41.672 2.836 Q 41.766 3.141 41.438 3.234 Q 41.203 3.234 41.133 3.141 Q 41.062 3.047 40.828 3.047 Q 40.547 2.719 40.5 2.766 Q 40.453 2.812 40.359 2.766 Q 40.125 2.625 40.008 2.414 Q 39.891 2.203 39.609 2.109 Q 39.188 2.109 38.953 1.875 Q 38.719 1.641 38.484 1.406 Q 38.203 1.5 38.039 1.43 Q 37.875 1.359 37.688 1.266 Q 37.031 1.219 36.984 1.031 Q 36.516 0.844 36.352 0.75 Q 36.188 0.656 36.047 0.469 Q 35.672 0.469 35.531 0.281 Q 35.344 0.375 35.227 0.328 Q 35.109 0.281 35.016 0.234 Q 34.5 0.562 34.43 0.445 Q 34.359 0.328 34.172 0.234 Q 33.422 0.234 32.977 0.352 Q 32.531 0.469 32.391 0.188 Q 32.438 -0.375 32.461 -0.633 Q 32.484 -0.891 32.297 -1.125 Q 32.344 -1.359 32.273 -1.617 Q 32.203 -1.875 32.297 -2.109 Q 32.062 -2.578 31.969 -2.672 Q 31.875 -2.766 31.781 -2.859 Q 31.734 -3.375 31.523 -3.539 Q 31.312 -3.703 31.406 -4.078 Q 31.172 -4.5 31.266 -4.594 Q 31.031 -5.25 30.891 -5.508 Q 30.75 -5.766 30.75 -6.047 Q 30.281 -6.328 30.422 -6.469 Q 30.562 -6.609 30.469 -6.844 Q 30.375 -7.078 30.094 -6.984 Q 29.812 -6.891 29.719 -7.125 Q 29.766 -7.5 29.602 -7.734 Q 29.438 -7.969 29.531 -8.25 Q 29.438 -8.391 29.32 -8.461 Q 29.203 -8.531 29.109 -8.625 Q 29.016 -8.859 29.016 -9.141 Q 29.016 -9.422 28.969 -9.656 Q 28.875 -9.75 28.781 -9.844 Q 28.688 -9.938 28.688 -10.125 Q 28.266 -10.453 28.312 -10.547 Q 28.359 -10.641 28.312 -10.875 Q 28.078 -11.391 28.031 -11.484 Q 27.562 -11.953 27.516 -12.117 Q 27.469 -12.281 27.375 -12.375 Q 27.328 -11.812 27.258 -11.695 Q 27.188 -11.578 26.953 -11.578 Q 26.812 -10.922 26.531 -10.922 Q 26.625 -10.828 26.883 -10.852 Q 27.141 -10.875 27.234 -10.734 Q 26.906 -10.219 26.859 -10.125 Q 26.812 -10.031 26.812 -9.891 Q 26.953 -9.469 26.906 -9.422 Q 26.859 -9.375 26.812 -9.281 Q 27.234 -8.859 26.812 -8.344 Q 26.859 -8.109 26.812 -7.969 Q 26.766 -7.828 26.672 -7.688 Q 26.719 -7.547 26.859 -7.266 Q 27 -6.984 26.953 -6.656 Q 26.906 -6.469 26.766 -6.352 Q 26.625 -6.234 26.531 -6.047 Q 26.625 -5.953 26.625 -5.766 Q 26.625 -5.578 26.672 -5.438 Q 26.766 -5.297 26.953 -5.25 Q 27.141 -5.203 27.141 -4.922 Q 27.094 -4.734 26.977 -4.688 Q 26.859 -4.641 26.812 -4.5 Q 26.812 -4.266 26.906 -4.148 Q 27 -4.031 27 -3.797 Q 26.953 -3.469 27.023 -3.117 Q 27.094 -2.766 27.094 -2.391 Q 27 -2.156 26.883 -2.016 Q 26.766 -1.875 26.719 -1.594 Q 26.812 -1.359 26.977 -1.266 Q 27.141 -1.172 27.094 -0.891 Q 26.766 -0.375 26.883 -0.375 Q 27 -0.375 27 -0.281 Q 27 0.094 26.766 0.141 Q 26.531 0.188 26.297 0.281 Q 26.062 0.188 25.805 0.188 Q 25.547 0.188 25.453 -0.047 Q 25.266 -0.047 25.219 0.07 Q 25.172 0.188 24.984 0.188 Q 24.516 0.047 24.188 0.047 Q 24 0.141 23.695 0.141 Q 23.391 0.141 23.156 0.234 Q 22.734 0.047 22.734 -0.281 Q 22.359 -0.328 22.383 -0.141 Q 22.406 0.047 22.219 0.141 Q 21.656 0.094 21.609 0.047 Q 21.562 0 21.469 -0.094 Q 21.141 -0.094 21 0.07 Q 20.859 0.234 20.578 0.234 Q 20.156 0.047 20.109 0.141 Q 20.062 0.234 19.922 0.234 Q 19.219 -0.047 18.867 0.141 Q 18.516 0.328 18.422 -0.047 Q 18.469 -0.234 18.633 -0.281 Q 18.797 -0.328 18.891 -0.516 Q 19.359 -0.703 19.406 -0.656 Q 19.453 -0.609 19.547 -0.609 Q 19.734 -0.703 19.781 -0.914 Q 19.828 -1.125 19.922 -1.219 Q 20.062 -1.266 20.273 -1.266 Q 20.484 -1.266 20.625 -1.172 Q 20.859 -1.266 20.859 -1.734 Q 21 -1.969 21.258 -2.062 Q 21.516 -2.156 21.844 -2.25 Q 21.656 -2.672 21.938 -2.953 Q 21.844 -3.141 21.703 -3.258 Q 21.562 -3.375 21.562 -3.562 Q 21.75 -3.891 21.727 -3.961 Q 21.703 -4.031 21.609 -4.125 Q 21.703 -4.5 21.867 -4.758 Q 22.031 -5.016 22.078 -5.438 Q 22.031 -5.578 22.008 -5.766 Q 21.984 -5.953 22.078 -6.094 Q 21.938 -6.609 22.055 -6.656 Q 22.172 -6.703 22.219 -6.797 Q 22.125 -7.078 21.914 -7.172 Q 21.703 -7.266 21.609 -7.5 Q 21.938 -8.109 22.031 -8.344 Q 21.984 -8.531 21.914 -8.695 Q 21.844 -8.859 21.844 -9.141 Q 21.938 -9.281 21.961 -9.516 Q 21.984 -9.75 21.891 -9.891 Q 21.844 -10.078 21.914 -10.172 Q 21.984 -10.266 21.938 -10.453 Q 21.844 -10.969 21.938 -11.086 Q 22.031 -11.203 22.031 -11.438 Q 21.984 -11.625 21.867 -11.672 Q 21.75 -11.719 21.75 -11.906 Q 22.031 -12.469 21.961 -12.539 Q 21.891 -12.609 21.844 -12.75 Q 21.938 -13.312 21.82 -13.312 Q 21.703 -13.312 21.609 -13.406 Q 21.938 -14.016 22.008 -14.273 Q 22.078 -14.531 22.125 -14.766 Q 22.031 -15.047 21.961 -15.305 Q 21.891 -15.562 21.797 -15.797 Q 21.891 -16.172 22.078 -16.359 Q 22.266 -16.547 22.359 -16.922 Q 22.312 -17.297 22.125 -17.508 Q 21.938 -17.719 21.844 -18.047 L 21.844 -18.656 Q 21.891 -18.938 21.938 -19.195 Q 21.984 -19.453 22.031 -19.688 Q 21.703 -20.297 22.078 -20.766 Q 22.078 -21.047 22.008 -21.234 Q 21.938 -21.422 22.031 -21.656 Q 21.938 -21.844 21.844 -22.102 Q 21.75 -22.359 21.938 -22.594 Q 21.609 -22.969 21.609 -23.156 Q 21.703 -23.391 21.938 -23.414 Q 22.172 -23.438 22.172 -23.672 L 21.562 -24.375 Q 21.562 -24.797 21.398 -24.984 Q 21.234 -25.172 21.328 -25.312 Q 20.812 -25.641 20.531 -25.641 Q 20.25 -25.641 20.156 -25.875 Q 20.25 -26.344 20.062 -26.438 Q 19.688 -26.391 19.336 -26.414 Q 18.984 -26.438 18.938 -26.719 Q 18.938 -27 19.148 -27.07 Q 19.359 -27.141 19.547 -27.281 Q 20.203 -27.609 20.695 -27.68 Q 21.188 -27.75 21.562 -27.891 Q 22.125 -27.75 22.172 -27.82 Q 22.219 -27.891 22.359 -27.891 Q 22.688 -27.75 22.852 -27.68 Q 23.016 -27.609 23.062 -27.516 Q 23.25 -27.516 23.367 -27.562 Q 23.484 -27.609 23.625 -27.656 Q 24.328 -27.516 24.492 -27.797 Q 24.656 -28.078 24.891 -27.984 Q 25.078 -27.938 25.078 -27.75 Q 25.078 -27.562 24.984 -27.328 Q 25.125 -27.281 25.289 -27.375 Q 25.453 -27.469 25.688 -27.375 Q 26.016 -27.469 26.25 -27.633 Q 26.484 -27.797 26.859 -27.844 Q 27 -27.938 27.117 -28.055 Q 27.234 -28.172 27.422 -28.266 Q 27.703 -27.938 27.539 -27.867 Q 27.375 -27.797 27.281 -27.703 Q 27.141 -27.562 26.859 -27.375 Q 26.906 -27.281 26.953 -27.164 Q 27 -27.047 26.953 -26.859 Q 27.188 -26.391 27.094 -26.297 Q 27 -26.203 26.906 -26.062 Q 27.047 -25.828 27 -25.617 Q 26.953 -25.406 26.859 -25.219 Q 27.469 -24.422 27 -24.328 Q 27 -24 26.906 -23.812 Q 26.812 -23.625 26.719 -23.438 Q 26.906 -22.828 26.836 -22.617 Q 26.766 -22.406 26.719 -22.125 Q 26.906 -21.703 26.859 -21.516 Q 26.812 -21.328 26.906 -21.234 Q 27.047 -20.672 26.93 -20.461 Q 26.812 -20.25 26.719 -19.922 Q 26.719 -19.359 26.672 -19.266 Q 26.625 -19.172 26.625 -19.031 Q 26.766 -19.125 26.906 -19.359 Q 27.047 -19.594 27.281 -19.688 Q 27.375 -19.922 27.469 -20.133 Q 27.562 -20.344 27.703 -20.578 Q 27.703 -20.812 27.703 -21.023 Q 27.703 -21.234 27.797 -21.375 Q 28.406 -21.703 28.523 -22.031 Q 28.641 -22.359 29.016 -22.406 Q 29.109 -22.547 29.133 -22.711 Q 29.156 -22.875 29.25 -22.969 Q 29.203 -23.484 29.484 -23.695 Q 29.766 -23.906 30 -24.141 Q 29.953 -24.328 29.953 -24.656 Q 30.188 -25.031 30.375 -25.289 Q 30.562 -25.547 30.891 -25.688 Q 31.031 -26.297 31.406 -26.625 Q 31.406 -26.812 31.453 -26.977 Q 31.5 -27.141 31.406 -27.281 Q 31.547 -27.656 31.875 -27.891 Q 31.922 -28.031 32.086 -28.125 Q 32.25 -28.219 32.344 -28.312 Q 33.094 -28.078 33.398 -28.125 Q 33.703 -28.172 33.938 -28.078 Q 34.406 -28.219 34.477 -28.148 Q 34.547 -28.078 34.641 -28.078 Q 34.922 -28.078 35.203 -28.195 Q 35.484 -28.312 35.766 -28.172 Q 36 -28.266 36.258 -28.547 Q 36.516 -28.828 36.844 -28.547 Q 37.078 -28.312 37.406 -28.406 Q 37.734 -28.5 37.969 -28.266 Q 38.297 -28.266 38.602 -28.336 Q 38.906 -28.406 39.188 -28.266 Q 39.047 -27.797 38.742 -27.773 Q 38.438 -27.75 38.297 -27.516 Q 37.969 -27.375 37.852 -27.188 Q 37.734 -27 37.547 -26.859 Q 37.078 -26.766 37.008 -26.578 Q 36.938 -26.391 36.75 -26.25 Q 36.516 -26.344 36.445 -26.25 Q 36.375 -26.156 36.234 -26.062 Q 36.234 -25.922 36.188 -25.781 Q 36.141 -25.641 36.188 -25.5 Q 36.094 -25.125 35.836 -24.891 Q 35.578 -24.656 35.438 -24.328 Q 35.391 -23.812 35.062 -23.438 Q 34.734 -23.156 34.547 -22.945 Q 34.359 -22.734 34.219 -22.5 Q 34.172 -21.656 33.422 -21.562 Q 33.234 -21 33.047 -20.461 Q 32.859 -19.922 32.484 -19.594 Q 32.391 -19.078 32.062 -18.891 Q 31.969 -18.516 31.688 -18.328 Q 31.406 -18.141 31.172 -17.906 Q 31.172 -17.578 31.148 -17.32 Q 31.125 -17.062 31.078 -16.828 Q 30.703 -16.406 30.844 -16.195 Q 30.984 -15.984 31.078 -15.75 Q 31.219 -15.656 31.359 -15.492 Q 31.5 -15.328 31.688 -15.188 Q 31.594 -14.953 31.688 -14.789 Q 31.781 -14.625 31.734 -14.391 Q 32.109 -14.156 32.156 -14.016 Q 32.203 -13.875 32.297 -13.688 Q 32.438 -13.547 32.578 -13.406 Q 32.719 -13.266 32.953 -13.219 Q 33.094 -12.984 33.023 -12.75 Q 32.953 -12.516 32.859 -12.375 Q 33.188 -11.953 33.281 -11.906 Q 33.375 -11.859 33.469 -11.766 Q 33.562 -11.484 33.75 -11.25 Q 33.938 -11.016 33.938 -10.641 Q 34.172 -10.453 34.359 -10.102 Q 34.547 -9.75 34.406 -9.281 Q 34.547 -9.188 34.711 -9.117 Q 34.875 -9.047 34.969 -8.906 L 34.969 -8.203 Q 35.578 -8.062 35.531 -7.805 Q 35.484 -7.547 35.438 -7.312 Q 35.906 -6.938 35.93 -6.797 Q 35.953 -6.656 35.953 -6.469 Q 36.141 -6.188 36.352 -6.07 Q 36.562 -5.953 36.656 -5.578 Q 36.656 -5.156 36.703 -4.992 Q 36.75 -4.828 36.75 -4.641 Q 36.891 -4.406 37.078 -4.242 Q 37.266 -4.078 37.266 -3.703 Q 37.547 -3.234 37.641 -3.211 Q 37.734 -3.188 37.828 -3.188 Q 37.922 -3.094 37.992 -2.953 Q 38.062 -2.812 38.062 -2.578 Q 38.391 -2.156 38.672 -2.062 Q 38.812 -1.688 39.094 -1.5 Q 39.422 -0.562 39.984 0.141 Q 40.453 0.469 40.406 0.492 Q 40.359 0.516 40.359 0.609 Q 40.547 0.844 40.734 1.055 Q 40.922 1.266 41.016 1.547 Q 41.25 1.922 41.391 2.016 Q 41.531 2.109 41.625 2.25 Z " /><path d="M 60.141 -14.344 L 60.141 -14.344 Q 60.141 -13.969 60 -13.781 Q 59.859 -13.594 59.859 -13.219 Q 59.719 -12.656 59.695 -12.539 Q 59.672 -12.422 59.672 -12.234 Q 59.719 -12.094 59.812 -11.906 Q 59.906 -11.719 59.812 -11.484 Q 59.391 -10.875 59.391 -10.406 Q 59.391 -9.938 59.25 -9.516 Q 59.297 -9.375 59.391 -9.305 Q 59.484 -9.234 59.531 -9.047 Q 59.484 -8.578 59.203 -8.391 Q 58.922 -8.203 58.688 -7.969 Q 58.875 -7.453 58.641 -7.078 Q 58.688 -6.562 58.641 -6.117 Q 58.594 -5.672 58.219 -5.531 Q 58.125 -5.344 58.078 -5.109 Q 58.031 -4.875 57.938 -4.688 Q 57.375 -4.125 57 -3.938 Q 57.047 -3.562 56.883 -3.398 Q 56.719 -3.234 56.484 -3.094 Q 56.344 -2.719 56.156 -2.438 Q 55.594 -2.25 55.547 -2.133 Q 55.5 -2.016 55.406 -1.922 Q 55.266 -1.734 55.125 -1.594 Q 54.984 -1.453 54.984 -1.172 Q 54.656 -0.891 54.586 -0.844 Q 54.516 -0.797 54.422 -0.844 Q 54.188 -0.609 54.07 -0.352 Q 53.953 -0.094 53.766 0.141 Q 53.531 0.281 53.273 0.211 Q 53.016 0.141 52.781 0.234 Q 52.406 0.234 52.312 0.281 Q 52.219 0.328 52.125 0.375 Q 51.75 0.188 51.469 0.352 Q 51.188 0.516 50.859 0.562 Q 50.203 0.938 49.969 0.75 Q 49.734 0.562 49.5 0.375 Q 49.172 0.469 49.055 0.68 Q 48.938 0.891 48.562 0.844 Q 48.375 0.75 48.305 0.586 Q 48.234 0.422 48.094 0.328 Q 47.906 0.469 47.625 0.398 Q 47.344 0.328 47.25 0.094 Q 46.875 0.188 46.617 0.023 Q 46.359 -0.141 46.125 -0.234 Q 45.891 -0.141 45.75 -0.234 Q 45.609 -0.328 45.375 -0.375 Q 45.141 -0.422 45.047 -0.305 Q 44.953 -0.188 44.719 -0.234 Q 44.531 -0.375 44.531 -0.797 Q 44.438 -0.984 44.273 -1.102 Q 44.109 -1.219 43.969 -1.312 Q 43.875 -1.688 43.641 -1.922 Q 43.406 -2.156 43.266 -2.531 Q 42.75 -2.906 42.609 -3.023 Q 42.469 -3.141 42.422 -3.328 Q 42.094 -3.656 41.648 -3.891 Q 41.203 -4.125 40.969 -4.5 Q 41.109 -4.969 41.203 -5.297 Q 40.781 -6.234 40.594 -6.703 Q 40.688 -7.125 40.547 -7.406 Q 40.406 -7.688 40.172 -7.922 Q 40.219 -8.156 40.195 -8.367 Q 40.172 -8.578 40.266 -8.859 Q 40.219 -9.047 40.148 -9.141 Q 40.078 -9.234 40.031 -9.375 Q 39.938 -9.844 39.82 -9.984 Q 39.703 -10.125 39.609 -10.359 Q 39.609 -10.594 39.586 -10.758 Q 39.562 -10.922 39.656 -11.156 Q 39.562 -11.391 39.539 -11.602 Q 39.516 -11.812 39.422 -12.047 Q 39.562 -12.703 39.375 -13.266 Q 39.188 -13.828 39.422 -14.438 Q 39.75 -15.094 39.68 -15.68 Q 39.609 -16.266 39.562 -16.781 Q 39.844 -17.484 39.797 -17.906 Q 39.75 -18.328 39.844 -18.75 Q 39.938 -19.031 40.055 -19.289 Q 40.172 -19.547 40.312 -19.781 Q 40.266 -19.969 40.289 -20.086 Q 40.312 -20.203 40.312 -20.438 Q 40.734 -21.047 40.898 -21.82 Q 41.062 -22.594 41.438 -23.156 Q 41.953 -23.812 42.234 -24.164 Q 42.516 -24.516 42.797 -24.891 Q 43.172 -25.125 43.219 -25.336 Q 43.266 -25.547 43.406 -25.734 Q 43.641 -25.828 43.711 -26.016 Q 43.781 -26.203 44.016 -26.297 Q 44.062 -26.531 44.297 -26.766 L 44.859 -26.906 Q 45 -27.188 45.117 -27.422 Q 45.234 -27.656 45.516 -27.75 Q 46.172 -27.703 46.336 -27.961 Q 46.5 -28.219 46.969 -28.125 Q 47.203 -28.219 47.344 -28.523 Q 47.484 -28.828 47.859 -28.734 Q 48.188 -28.219 48.352 -28.289 Q 48.516 -28.359 48.609 -28.453 Q 48.75 -28.453 48.891 -28.477 Q 49.031 -28.5 49.219 -28.5 Q 49.406 -28.547 49.477 -28.594 Q 49.547 -28.641 49.734 -28.594 Q 49.969 -28.5 50.016 -28.359 Q 50.062 -28.219 50.203 -28.125 Q 50.438 -28.078 50.602 -28.406 Q 50.766 -28.734 51 -28.688 Q 51.562 -28.359 51.891 -28.289 Q 52.219 -28.219 52.359 -27.984 Q 52.781 -28.078 52.805 -28.031 Q 52.828 -27.984 52.922 -27.938 Q 53.531 -27.469 53.977 -27.352 Q 54.422 -27.234 54.562 -26.812 Q 54.797 -26.719 55.031 -26.648 Q 55.266 -26.578 55.453 -26.438 Q 55.641 -25.875 55.805 -25.875 Q 55.969 -25.875 56.109 -25.781 Q 56.203 -25.5 56.391 -25.312 Q 56.578 -25.125 56.672 -24.797 Q 57.047 -24.188 57.375 -24 Q 57.375 -23.672 57.539 -23.508 Q 57.703 -23.344 57.656 -22.969 Q 57.75 -22.641 57.984 -22.477 Q 58.219 -22.312 58.453 -22.078 Q 58.828 -22.078 58.875 -22.055 Q 58.922 -22.031 59.016 -21.938 Q 58.781 -21.094 58.992 -20.32 Q 59.203 -19.547 59.156 -18.656 Q 59.203 -18.516 59.32 -18.469 Q 59.438 -18.422 59.531 -18.281 Q 59.438 -17.766 59.672 -17.438 Q 59.672 -17.156 59.672 -16.852 Q 59.672 -16.547 59.766 -16.312 Q 60.141 -15.75 60.047 -15.539 Q 59.953 -15.328 59.859 -15.094 Q 59.953 -14.578 60.023 -14.508 Q 60.094 -14.438 60.141 -14.344 Z M 54.516 -12.375 L 54.516 -12.375 Q 54.75 -12.891 54.68 -13.008 Q 54.609 -13.125 54.609 -13.266 Q 54.703 -13.547 54.773 -13.805 Q 54.844 -14.062 54.703 -14.344 Q 54.656 -15 54.656 -15.281 Q 54.422 -15.562 54.305 -15.938 Q 54.188 -16.312 54.234 -16.828 Q 54.328 -17.109 54.352 -17.391 Q 54.375 -17.672 54.469 -17.906 Q 53.766 -18.422 53.695 -18.797 Q 53.625 -19.172 53.531 -19.547 Q 53.438 -20.156 53.32 -20.414 Q 53.203 -20.672 53.203 -21.047 Q 52.969 -21.609 52.875 -21.797 Q 52.359 -22.266 52.336 -22.406 Q 52.312 -22.547 52.219 -22.734 Q 52.125 -22.875 52.031 -22.992 Q 51.938 -23.109 51.844 -23.25 Q 51.422 -23.625 51.281 -23.836 Q 51.141 -24.047 50.859 -24.141 Q 50.109 -24.234 49.922 -24.328 Q 49.5 -24.234 49.453 -24.188 Q 49.406 -24.141 49.219 -24.141 L 48.516 -24.141 Q 48.188 -23.766 48.07 -23.812 Q 47.953 -23.859 47.859 -23.906 Q 47.719 -23.766 47.766 -23.602 Q 47.812 -23.438 47.859 -23.297 Q 47.578 -23.156 47.508 -23.203 Q 47.438 -23.25 47.297 -23.25 Q 46.969 -22.781 46.828 -22.5 Q 46.688 -21.797 46.383 -21.586 Q 46.078 -21.375 45.984 -20.953 Q 46.078 -20.578 45.867 -20.32 Q 45.656 -20.062 45.469 -19.828 Q 45.656 -19.172 45.398 -18.703 Q 45.141 -18.234 44.906 -17.953 Q 44.953 -17.391 44.836 -17.227 Q 44.719 -17.062 44.578 -16.828 Q 44.484 -16.594 44.625 -16.453 Q 44.766 -16.312 44.812 -16.125 Q 44.766 -15.891 44.648 -15.773 Q 44.531 -15.656 44.484 -15.422 Q 44.531 -15.281 44.602 -15.141 Q 44.672 -15 44.672 -14.812 Q 44.672 -14.578 44.578 -14.461 Q 44.484 -14.344 44.438 -14.156 Q 44.531 -13.969 44.695 -13.852 Q 44.859 -13.734 44.859 -13.5 Q 44.672 -12.844 44.695 -12.539 Q 44.719 -12.234 44.719 -11.859 Q 44.906 -11.156 44.836 -10.875 Q 44.766 -10.594 44.672 -10.359 Q 44.719 -10.125 44.836 -9.984 Q 44.953 -9.844 45.047 -9.609 Q 45 -9.375 45.023 -9.211 Q 45.047 -9.047 45.047 -8.766 Q 45.281 -8.438 45.398 -8.367 Q 45.516 -8.297 45.562 -8.109 Q 45.562 -7.922 45.562 -7.734 Q 45.562 -7.547 45.609 -7.453 Q 46.219 -7.359 46.125 -6.656 Q 46.266 -6.469 46.383 -6.305 Q 46.5 -6.141 46.547 -5.859 Q 46.875 -5.812 46.945 -5.484 Q 47.016 -5.156 46.969 -4.828 Q 47.109 -4.734 47.273 -4.617 Q 47.438 -4.5 47.672 -4.594 Q 47.906 -4.5 48 -4.266 Q 48.094 -4.031 48.234 -3.844 Q 48.516 -3.891 48.773 -3.984 Q 49.031 -4.078 49.266 -3.938 Q 49.875 -4.078 49.969 -3.961 Q 50.062 -3.844 50.25 -3.797 Q 50.438 -3.844 50.508 -3.961 Q 50.578 -4.078 50.719 -4.172 Q 51.188 -4.172 51.375 -4.312 Q 51.797 -4.453 51.891 -4.734 Q 52.172 -5.109 52.242 -5.203 Q 52.312 -5.297 52.406 -5.391 Q 52.5 -5.625 52.617 -5.766 Q 52.734 -5.906 52.875 -6.047 Q 53.344 -6.469 53.273 -6.82 Q 53.203 -7.172 53.438 -7.406 Q 53.812 -8.203 53.953 -8.438 Q 53.906 -8.625 53.953 -8.812 Q 54 -9 54 -9.234 Q 54.281 -9.844 54.398 -10.148 Q 54.516 -10.453 54.609 -10.828 Q 54.516 -11.109 54.422 -11.438 Q 54.328 -11.766 54.516 -12.047 Z " /></g></svg>