<svg xmlns="http://www.w3.org/2000/svg" width="80.297" height="34.125" viewBox="0 -33.398 80.297 34.125"><title>eko</title><g transform=""><path d="M 14.555 0.727 L 14.555 0.727 Q 8.062 0.727 4.312 -2.883 Q 0.469 -6.516 0.469 -12.832 Q 0.469 -19.148 4.43 -22.852 Q 8.086 -26.297 13.688 -26.297 Q 19.289 -26.297 22.676 -23.215 Q 26.062 -20.133 26.062 -15.633 Q 26.062 -11.625 23.273 -9.586 Q 20.695 -7.664 16.242 -7.664 Q 12.914 -7.664 10.617 -9.047 Q 10.43 -8.906 10.43 -8.531 Q 10.43 -7.828 12.281 -7.242 Q 14.133 -6.609 16.488 -6.609 Q 18.844 -6.609 20.777 -7.207 Q 22.711 -7.805 23.883 -8.625 Q 24.445 -8.133 24.785 -6.809 Q 25.125 -5.484 25.125 -4.395 Q 25.125 -3.305 24.914 -2.461 Q 23.086 -0.914 21.164 -0.258 Q 18.445 0.727 14.555 0.727 Z M 14.25 -15.141 L 14.25 -15.141 Q 15.422 -15.141 15.422 -16.031 Q 15.422 -16.875 14.18 -16.875 Q 12.938 -16.875 12.75 -15.539 Q 13.406 -15.141 14.25 -15.141 Z " /><path d="M 39.047 -8.812 L 39.047 -8.812 L 37.922 -8.32 Q 37.922 -6.75 38.531 -4.969 Q 39.047 -3.281 39.961 -1.969 Q 37.641 0.422 33.516 0.422 Q 31.148 0.422 29.414 -0.82 Q 27.398 -2.227 27.398 -4.547 L 27.398 -31.898 Q 28.523 -32.555 30.105 -32.977 Q 31.688 -33.398 33.305 -33.398 Q 36 -33.398 37.758 -32.344 Q 39.75 -31.102 39.75 -28.781 L 39.75 -26.297 Q 39.75 -23.18 38.648 -20.203 Q 38.438 -19.898 37.898 -19.324 Q 37.359 -18.75 37.043 -18.281 Q 36.727 -17.812 36.727 -17.473 Q 36.727 -17.133 37.289 -16.852 Q 39.117 -18.562 40.16 -20.578 Q 41.203 -22.594 42.07 -25.922 Q 42.375 -25.969 42.773 -26.039 Q 43.172 -26.109 44.098 -26.262 Q 45.023 -26.414 45.398 -26.414 Q 49.008 -26.414 51.023 -24.762 Q 53.039 -23.109 53.039 -20.227 Q 53.039 -17.344 51.211 -15.281 Q 49.523 -13.43 46.828 -12.492 Q 48.984 -11.227 52.266 -10.688 Q 53.531 -8.391 53.531 -5.801 Q 53.531 -3.211 51.891 -1.477 Q 50.062 0.422 46.84 0.422 Q 43.617 0.422 41.543 -2.051 Q 39.469 -4.523 39.047 -8.812 Z " /><path d="M 66.188 -13.055 L 66.188 -13.055 L 66.188 -8.953 Q 66.352 -8.789 66.727 -8.789 Q 67.102 -8.789 67.266 -9.047 Q 67.43 -9.305 67.43 -9.938 L 67.43 -13.289 Q 67.43 -15.539 67.242 -16.277 Q 67.055 -17.016 66.539 -17.016 Q 66.211 -17.016 65.977 -16.781 Q 66.188 -14.461 66.188 -13.055 Z M 57.422 -2.672 L 57.422 -2.672 Q 53.578 -6.375 53.578 -12.715 Q 53.578 -19.055 57.199 -22.723 Q 60.82 -26.391 66.703 -26.391 Q 72.586 -26.391 76.219 -22.57 Q 79.828 -18.75 79.828 -12.621 Q 79.828 -6.492 76.348 -2.883 Q 72.867 0.727 66.891 0.727 Q 60.914 0.727 57.422 -2.672 Z " /></g></svg>