<svg xmlns="http://www.w3.org/2000/svg" width="110.508" height="37.125" viewBox="0 -35.438 110.508 37.125"><title>eko</title><g transform=""><path d="M 10.617 0 L 10.617 0 L 8.93 0 L 8.93 -33.75 L 10.617 -33.75 Z M 7.242 0 L 7.242 0 L 5.555 0 L 5.555 -33.75 L 7.242 -33.75 Z M 3.867 0 L 3.867 0 L 2.18 0 L 2.18 -33.75 L 3.867 -33.75 Z M 13.992 -8.438 L 13.992 -8.438 L 30.141 -8.438 L 30.141 -6.75 L 13.992 -6.75 L 13.992 -5.062 L 30.141 -5.062 L 30.141 -3.375 L 13.992 -3.375 L 13.992 -1.688 L 30.141 -1.688 L 30.141 0 L 12.305 0 L 12.305 -33.75 L 30.141 -33.75 L 30.141 -32.062 L 13.992 -32.062 L 13.992 -30.375 L 30.141 -30.375 L 30.141 -28.688 L 13.992 -28.688 L 13.992 -27 L 30.141 -27 L 30.141 -25.312 L 13.992 -25.312 L 13.992 -21.117 L 29.203 -21.117 L 29.203 -19.43 L 13.992 -19.43 L 13.992 -17.742 L 29.203 -17.742 L 29.203 -16.055 L 13.992 -16.055 L 13.992 -14.367 L 29.203 -14.367 L 29.203 -12.68 L 13.992 -12.68 Z " /><path d="M 69.656 -33.75 L 69.656 -33.75 L 67.781 -33.75 L 58.383 -16.734 L 67.641 0 L 69.516 0 L 60.258 -16.734 Z M 65.883 -33.75 L 65.883 -33.75 L 64.008 -33.75 L 54.609 -16.734 L 63.867 0 L 65.742 0 L 56.484 -16.734 Z M 62.109 -33.75 L 62.109 -33.75 L 60.234 -33.75 L 50.836 -16.734 L 60.094 0 L 61.969 0 L 52.711 -16.734 Z M 58.336 -33.75 L 58.336 -33.75 L 56.461 -33.75 L 47.039 -16.734 L 56.32 0 L 58.195 0 L 48.914 -16.734 Z M 44.32 -33.75 L 44.32 -33.75 L 46.008 -33.75 L 46.008 0 L 44.32 0 Z M 40.945 -33.75 L 40.945 -33.75 L 42.633 -33.75 L 42.633 0 L 40.945 0 Z M 37.57 -33.75 L 37.57 -33.75 L 39.258 -33.75 L 39.258 0 L 37.57 0 Z M 34.195 -33.75 L 34.195 -33.75 L 35.883 -33.75 L 35.883 0 L 34.195 0 Z " /><path d="M 87.562 -23.625 Q 83.602 -19.664 83.602 -16.875 Q 83.602 -19.664 83.602 -16.875 Q 83.602 -14.086 85.582 -12.105 Q 87.562 -10.125 90.352 -10.125 Q 93.141 -10.125 95.121 -12.105 Q 97.102 -14.086 97.102 -16.875 Q 97.102 -19.664 95.121 -21.645 Q 93.141 -23.625 90.352 -23.625 Q 87.562 -23.625 83.602 -19.664 Z M 86.859 -8.438 Q 81.914 -13.383 81.914 -16.875 Q 81.914 -13.383 81.914 -16.875 Q 81.914 -20.367 84.387 -22.84 Q 86.859 -25.312 90.352 -25.312 Q 93.844 -25.312 96.316 -22.84 Q 98.789 -20.367 98.789 -16.875 Q 98.789 -13.383 96.316 -10.91 Q 93.844 -8.438 90.352 -8.438 Q 86.859 -8.438 81.914 -13.383 Z M 86.156 -27 Q 80.227 -21.047 80.227 -16.875 Q 80.227 -21.047 80.227 -16.875 Q 80.227 -12.703 83.191 -9.727 Q 86.156 -6.75 90.352 -6.75 Q 94.547 -6.75 97.512 -9.727 Q 100.477 -12.703 100.477 -16.875 Q 100.477 -21.047 97.512 -24.023 Q 94.547 -27 90.352 -27 Q 86.156 -27 80.227 -21.047 Z M 81.703 -8.227 Q 78.539 -13.664 78.539 -16.875 Q 78.539 -13.664 78.539 -16.875 Q 78.539 -20.086 80.121 -22.805 Q 81.703 -25.523 84.422 -27.105 Q 87.141 -28.688 90.352 -28.688 Q 93.562 -28.688 96.281 -27.105 Q 99 -25.523 100.582 -22.805 Q 102.164 -20.086 102.164 -16.875 Q 102.164 -13.664 100.582 -10.945 Q 99 -8.227 96.281 -6.645 Q 93.562 -5.062 90.352 -5.062 Q 87.141 -5.062 84.422 -6.645 Q 81.703 -8.227 78.539 -13.664 Z M 78.984 -24.609 Q 76.852 -19.617 76.852 -16.875 Q 76.852 -19.617 76.852 -16.875 Q 76.852 -14.133 77.918 -11.637 Q 78.984 -9.141 80.801 -7.324 Q 82.617 -5.508 85.113 -4.441 Q 87.609 -3.375 90.352 -3.375 Q 93.094 -3.375 95.59 -4.441 Q 98.086 -5.508 99.902 -7.324 Q 101.719 -9.141 102.785 -11.637 Q 103.852 -14.133 103.852 -16.875 Q 103.852 -19.617 102.785 -22.113 Q 101.719 -24.609 99.902 -26.426 Q 98.086 -28.242 95.59 -29.309 Q 93.094 -30.375 90.352 -30.375 Q 87.609 -30.375 85.113 -29.309 Q 82.617 -28.242 80.801 -26.426 Q 78.984 -24.609 76.852 -19.617 Z M 77.578 -8.156 Q 75.164 -13.781 75.164 -16.875 Q 75.164 -13.781 75.164 -16.875 Q 75.164 -19.969 76.371 -22.781 Q 77.578 -25.594 79.605 -27.621 Q 81.633 -29.648 84.445 -30.855 Q 87.258 -32.062 90.352 -32.062 Q 93.445 -32.062 96.258 -30.855 Q 99.07 -29.648 101.098 -27.621 Q 103.125 -25.594 104.332 -22.781 Q 105.539 -19.969 105.539 -16.875 Q 105.539 -13.781 104.332 -10.969 Q 103.125 -8.156 101.098 -6.129 Q 99.07 -4.102 96.258 -2.895 Q 93.445 -1.688 90.352 -1.688 Q 87.258 -1.688 84.445 -2.895 Q 81.633 -4.102 79.605 -6.129 Q 77.578 -8.156 75.164 -13.781 Z M 76.148 -26.555 Q 73.477 -20.297 73.477 -16.875 Q 73.477 -20.297 73.477 -16.875 Q 73.477 -13.453 74.812 -10.324 Q 76.148 -7.195 78.41 -4.934 Q 80.672 -2.672 83.801 -1.336 Q 86.93 0 90.352 0 Q 93.773 0 96.902 -1.336 Q 100.031 -2.672 102.293 -4.934 Q 104.555 -7.195 105.891 -10.324 Q 107.227 -13.453 107.227 -16.875 Q 107.227 -20.297 105.891 -23.426 Q 104.555 -26.555 102.293 -28.816 Q 100.031 -31.078 96.902 -32.414 Q 93.773 -33.75 90.352 -33.75 Q 86.93 -33.75 83.801 -32.414 Q 80.672 -31.078 78.41 -28.816 Q 76.148 -26.555 73.477 -20.297 Z M 74.742 -6.234 Q 71.789 -13.102 71.789 -16.875 Q 71.789 -13.102 71.789 -16.875 Q 71.789 -20.648 73.266 -24.082 Q 74.742 -27.516 77.227 -30 Q 79.711 -32.484 83.145 -33.961 Q 86.578 -35.438 90.352 -35.438 Q 94.125 -35.438 97.559 -33.961 Q 100.992 -32.484 103.477 -30 Q 105.961 -27.516 107.438 -24.082 Q 108.914 -20.648 108.914 -16.875 Q 108.914 -13.102 107.438 -9.668 Q 105.961 -6.234 103.477 -3.75 Q 100.992 -1.266 97.559 0.211 Q 94.125 1.688 90.352 1.688 Q 86.578 1.688 83.145 0.211 Q 79.711 -1.266 77.227 -3.75 Q 74.742 -6.234 71.789 -13.102 Z " /></g></svg>