<svg xmlns="http://www.w3.org/2000/svg" width="74.88" height="43.68" viewBox="0 -40.8 74.88 43.68"><title>eko</title><g transform=""><path d="M 10.416 -25.92 L 10.416 -25.92 L 18.72 -30.72 Q 20.352 -31.68 21.6 -30.96 Q 22.848 -30.24 22.848 -28.32 L 22.848 -21.12 Q 22.848 -19.872 22.272 -18.432 Q 21.696 -16.992 20.76 -15.768 Q 19.824 -14.544 18.72 -13.92 L 14.544 -11.52 Q 12.912 -10.56 11.664 -11.28 Q 10.416 -12 10.416 -13.92 L 10.416 -2.88 L 22.848 -10.08 L 22.848 -5.28 L 10.416 1.92 Q 8.736 2.88 7.488 2.16 Q 6.24 1.44 6.24 -0.48 L 6.24 -18.72 Q 6.24 -20.016 6.816 -21.432 Q 7.392 -22.848 8.352 -24.072 Q 9.312 -25.296 10.416 -25.92 Z M 18.72 -25.92 L 18.72 -25.92 L 10.416 -21.12 L 10.416 -13.92 L 18.72 -18.72 Z M 22.848 -10.08 L 22.848 -10.08 L 10.416 -2.88 L 6.24 -5.28 L 18.72 -12.48 Z M 18.72 -25.92 L 18.72 -25.92 L 18.72 -18.72 L 14.544 -21.12 L 14.544 -28.32 Z M 10.416 -13.92 L 10.416 -13.92 Q 10.416 -12 11.664 -11.28 L 7.488 -13.68 Q 6.24 -14.4 6.24 -16.32 Z M 18.72 -18.72 L 18.72 -18.72 L 10.416 -13.92 L 6.24 -16.32 L 14.544 -21.12 Z M 21.6 -30.96 L 21.6 -30.96 Q 20.352 -31.68 18.72 -30.72 L 10.416 -25.92 Q 9.312 -25.296 8.352 -24.072 Q 7.392 -22.848 6.816 -21.432 Q 6.24 -20.016 6.24 -18.72 L 6.24 -0.48 Q 6.24 1.44 7.488 2.16 L 3.312 -0.24 Q 2.064 -0.96 2.064 -2.88 L 2.064 -21.12 Q 2.064 -22.416 2.64 -23.832 Q 3.216 -25.248 4.176 -26.472 Q 5.136 -27.696 6.24 -28.32 L 14.544 -33.12 Q 16.224 -34.08 17.472 -33.36 Z " /><path d="M 43.68 -4.8 L 43.68 -4.8 L 43.68 -14.4 L 35.376 -9.6 L 35.376 0 L 31.2 2.4 L 31.2 -36 L 35.376 -38.4 L 35.376 -14.4 L 43.68 -19.2 L 43.68 -28.8 L 47.808 -31.2 L 47.808 -26.4 Q 47.808 -25.152 47.232 -23.712 Q 46.656 -22.272 45.72 -21.048 Q 44.784 -19.824 43.68 -19.2 Q 45.312 -20.16 46.56 -19.44 Q 47.808 -18.72 47.808 -16.8 L 47.808 -7.2 Z M 46.56 -19.44 L 46.56 -19.44 Q 45.312 -20.16 43.68 -19.2 L 39.504 -21.6 Q 41.184 -22.56 42.432 -21.84 Z M 47.808 -31.2 L 47.808 -31.2 L 43.68 -28.8 L 39.504 -31.2 L 43.68 -33.6 Z M 43.68 -14.4 L 43.68 -14.4 L 43.68 -4.8 L 39.504 -7.2 L 39.504 -16.8 Z M 43.68 -28.8 L 43.68 -28.8 L 43.68 -19.2 L 39.504 -21.6 L 39.504 -31.2 Z M 43.68 -19.2 L 43.68 -19.2 L 35.376 -14.4 L 31.2 -16.8 L 39.504 -21.6 Z M 35.376 -38.4 L 35.376 -38.4 L 31.2 -36 L 27.024 -38.4 L 31.2 -40.8 Z M 31.2 -36 L 31.2 -36 L 31.2 2.4 L 27.024 0 L 27.024 -38.4 Z " /><path d="M 60.336 -25.92 L 60.336 -25.92 L 68.64 -30.72 Q 70.272 -31.68 71.52 -30.96 Q 72.768 -30.24 72.768 -28.32 L 72.768 -10.08 Q 72.768 -8.832 72.192 -7.392 Q 71.616 -5.952 70.68 -4.728 Q 69.744 -3.504 68.64 -2.88 L 60.336 1.92 Q 58.656 2.88 57.408 2.16 Q 56.16 1.44 56.16 -0.48 L 56.16 -18.72 Q 56.16 -20.016 56.736 -21.432 Q 57.312 -22.848 58.272 -24.072 Q 59.232 -25.296 60.336 -25.92 Z M 60.336 -2.88 L 60.336 -2.88 L 68.64 -7.68 L 68.64 -25.92 L 60.336 -21.12 Z M 68.64 -25.92 L 68.64 -25.92 L 68.64 -7.68 L 64.464 -10.08 L 64.464 -28.32 Z M 68.64 -7.68 L 68.64 -7.68 L 60.336 -2.88 L 56.16 -5.28 L 64.464 -10.08 Z M 71.52 -30.96 L 71.52 -30.96 Q 70.272 -31.68 68.64 -30.72 L 60.336 -25.92 Q 59.232 -25.296 58.272 -24.072 Q 57.312 -22.848 56.736 -21.432 Q 56.16 -20.016 56.16 -18.72 L 56.16 -0.48 Q 56.16 1.44 57.408 2.16 L 53.232 -0.24 Q 51.984 -0.96 51.984 -2.88 L 51.984 -21.12 Q 51.984 -22.416 52.56 -23.832 Q 53.136 -25.248 54.096 -26.472 Q 55.056 -27.696 56.16 -28.32 L 64.464 -33.12 Q 66.144 -34.08 67.392 -33.36 Z " /></g></svg>