<svg xmlns="http://www.w3.org/2000/svg" width="134.836" height="51.188" viewBox="0 -32.273 134.836 51.188"><title>eko</title><g transform=""><path d="M 16.898 -3.891 L 16.898 -3.891 L 16.523 -6.797 L 16.523 -7.055 Q 17.016 -7.922 17.859 -7.922 L 36.984 -7.898 Q 38.414 -7.898 39.305 -8.812 L 39.773 -8.344 Q 38.742 -7.312 38.742 -4.406 Q 38.742 -4.406 38.742 -3.047 Q 38.742 -0.68 39.773 0.398 L 39.305 0.867 Q 38.391 -0.047 36.984 -0.047 L 9.258 -0.047 Q 7.172 -0.047 6.188 0.75 Q 5.062 1.688 5.062 6.047 Q 5.062 7.805 5.602 11.238 Q 6.141 14.672 6.141 16.406 Q 6.141 18.914 4.359 18.914 Q 2.438 18.914 2.438 16.336 Q 2.438 14.578 3.211 11.133 Q 3.984 7.688 3.984 5.906 L 3.867 -1.945 L 3.867 -29.273 Q 3.867 -30.727 2.977 -31.594 L 3.445 -32.086 Q 4.406 -31.172 5.789 -31.172 L 35.883 -31.172 Q 37.312 -31.172 38.227 -32.086 L 38.695 -31.594 Q 37.664 -30.562 37.664 -27.703 L 37.664 -26.391 Q 37.664 -23.883 38.695 -22.875 L 38.227 -22.43 Q 37.055 -23.625 32.719 -23.625 L 21.07 -23.086 Q 16.758 -23.086 15.586 -24.281 L 15.094 -23.812 Q 16.008 -22.922 16.008 -21.457 Q 16.008 -19.992 15.094 -19.102 L 15.586 -18.656 Q 16.711 -19.828 20.32 -19.828 L 30.141 -19.289 Q 33.773 -19.289 34.945 -20.461 L 35.438 -19.992 Q 34.406 -18.961 34.406 -16.031 L 34.406 -14.719 Q 34.406 -12.305 35.438 -11.227 L 34.945 -10.734 Q 33.82 -11.906 30.188 -11.906 L 20.367 -11.391 Q 16.758 -11.391 15.586 -12.562 L 15.117 -12.094 Q 15.82 -11.391 15.938 -10.418 Q 16.055 -9.445 16.078 -9.035 Q 16.102 -8.625 16.078 -7.77 Q 16.055 -6.914 16.055 -6.75 L 15.656 -3.938 Q 15.656 -3.094 16.277 -3.094 Q 16.898 -3.094 16.898 -3.891 Z " /><path d="M 57.188 -8.812 L 57.188 -8.812 Q 58.242 -8.297 58.242 -6.891 L 58.242 -1.898 Q 58.242 -0.469 59.156 0.445 L 58.688 0.914 Q 57.773 0 56.344 0 L 48.211 0 Q 46.781 0 45.867 0.914 L 45.398 0.445 Q 46.312 -0.469 46.312 -1.898 L 46.312 -29.32 Q 46.312 -30.75 45.398 -31.664 L 45.867 -32.156 Q 46.805 -31.219 48.211 -31.219 L 56.344 -31.219 Q 57.75 -31.219 58.688 -32.156 L 59.156 -31.664 Q 58.242 -30.75 58.242 -29.32 L 58.242 -22.031 Q 58.242 -20.625 57.68 -19.336 L 58.031 -19.195 Q 58.57 -20.461 59.602 -21.445 L 68.438 -29.906 Q 68.977 -30.422 69.105 -30.844 Q 69.234 -31.266 69.023 -31.969 L 69.844 -32.273 Q 70.289 -31.219 71.695 -31.219 L 83.461 -31.219 Q 84.773 -31.219 86.18 -31.734 L 86.297 -31.406 Q 84.984 -30.914 83.93 -29.977 L 74.414 -21.703 Q 73.383 -20.766 72.094 -20.93 L 72 -20.203 Q 73.266 -20.086 74.062 -18.891 L 86.203 -1.57 Q 87 -0.398 88.219 0.258 L 88.008 0.633 Q 86.812 0 85.383 0 L 74.062 0 Q 72.656 0 72.094 1.055 L 71.344 0.656 Q 71.672 -0.023 71.602 -0.48 Q 71.531 -0.938 71.109 -1.594 L 64.406 -11.484 Q 63.633 -12.68 63.797 -13.969 L 63.164 -14.039 Q 63 -12.773 61.875 -11.859 L 59.719 -10.008 Q 59.109 -9.516 58.676 -9.422 Q 58.242 -9.328 57.562 -9.586 Z " /><path d="M 111.984 3.797 L 111.984 3.797 L 112.148 1.547 Q 112.148 0.961 111.586 0.645 Q 111.023 0.328 110.367 0.328 Q 109.711 0.328 109.195 0.68 Q 108.68 1.031 108.68 1.688 L 108.68 7.078 Q 108.68 8.25 109.172 10.523 Q 109.664 12.797 109.664 13.77 Q 109.664 14.742 109.242 15.375 Q 108.82 16.008 108.082 16.008 Q 107.344 16.008 106.969 15.352 Q 106.594 14.695 106.594 13.641 Q 106.594 12.586 107.133 9.984 Q 107.672 7.383 107.672 5.953 Q 107.672 0.164 105.516 0.164 Q 102.609 0.164 102.609 -0.07 L 102.609 -0.023 Q 102.609 1.594 103.324 4.723 Q 104.039 7.852 104.039 9.211 Q 104.039 10.57 103.547 11.449 Q 103.055 12.328 102.035 12.328 Q 101.016 12.328 100.441 11.484 Q 99.867 10.641 99.867 9.293 Q 99.867 7.945 100.547 4.676 Q 101.227 1.406 101.227 -0.281 Q 95.672 -2.039 92.871 -6.023 Q 90.07 -10.008 90.07 -15.867 Q 90.07 -28.008 102.305 -31.195 Q 106.266 -32.227 110.496 -32.227 Q 114.727 -32.227 117.691 -31.758 Q 120.656 -31.289 123.434 -30.105 Q 126.211 -28.922 128.168 -27.105 Q 130.125 -25.289 131.297 -22.418 Q 132.469 -19.547 132.469 -15.867 Q 132.469 -8.367 128.25 -4.254 Q 124.031 -0.141 116.391 0.797 Q 116.297 0.961 116.297 1.312 L 116.414 2.602 Q 116.414 3.797 115.758 3.797 Q 115.102 3.797 115.102 2.648 L 115.172 1.336 Q 115.172 0.633 114.164 0.633 Q 114.07 0.844 114.07 1.43 L 114.188 3.703 Q 114.188 4.406 113.93 5.062 Q 113.672 5.719 113.062 5.719 Q 111.984 5.719 111.984 3.797 Z M 103.125 -15.844 L 103.125 -15.844 Q 103.125 -7.266 111.281 -7.266 Q 119.438 -7.266 119.438 -15.844 Q 119.438 -19.781 117.328 -21.867 Q 115.219 -23.953 111.281 -23.953 Q 107.344 -23.953 105.234 -21.867 Q 103.125 -19.781 103.125 -15.844 Z " /></g></svg>