<svg xmlns="http://www.w3.org/2000/svg" width="97.584" height="46.176" viewBox="-2.448 -41.04 97.584 46.176"><title>eko</title><g transform=""><path d="M 11.616 -0.24 L 11.616 -0.24 Q 11.328 0.192 10.536 0.744 Q 9.744 1.296 9.264 1.392 Q 9.216 0.912 8.856 0 Q 8.496 -0.912 8.112 -1.248 Q 7.68 -0.576 6.648 0.072 Q 5.616 0.72 4.848 0.816 Q 5.232 0.144 5.424 -1.056 Q 5.616 -2.256 5.376 -3.024 Q 4.992 -2.64 4.32 -2.376 Q 3.648 -2.112 3.12 -2.112 Q 3.504 -2.4 3.84 -3.072 Q 4.176 -3.744 4.176 -4.272 Q 3.456 -3.648 2.112 -3.336 Q 0.768 -3.024 -0.192 -3.168 Q 0.672 -3.6 1.656 -4.536 Q 2.64 -5.472 2.928 -6.432 Q 2.496 -6.72 1.68 -6.816 Q 0.864 -6.912 0.384 -6.816 Q 0.576 -7.296 1.152 -7.848 Q 1.728 -8.4 2.208 -8.592 Q 1.44 -9.12 0.144 -9.192 Q -1.152 -9.264 -2.016 -8.928 Q -1.44 -9.648 -0.216 -10.056 Q 1.008 -10.464 1.92 -10.512 Q 1.488 -11.04 0.552 -11.664 Q -0.384 -12.288 -1.056 -12.384 Q -0.672 -12.96 0.288 -13.56 Q 1.248 -14.16 1.92 -14.304 Q 0.864 -14.352 -0.408 -14.904 Q -1.68 -15.456 -2.448 -16.176 Q -1.488 -15.696 -0.048 -15.792 Q 1.392 -15.888 2.304 -16.416 Q 2.304 -16.848 1.896 -17.712 Q 1.488 -18.576 1.104 -18.912 Q 1.44 -19.2 2.352 -19.536 Q 3.264 -19.872 3.744 -19.776 Q 3.408 -20.16 3.12 -21.024 Q 2.832 -21.888 2.88 -22.416 Q 3.312 -22.08 4.2 -21.984 Q 5.088 -21.888 5.616 -21.984 Q 5.856 -22.512 5.808 -23.472 Q 5.76 -24.432 5.424 -24.912 Q 6 -24.912 6.864 -24.48 Q 7.728 -24.048 8.064 -23.568 Q 7.824 -23.952 7.728 -24.624 Q 7.632 -25.296 7.728 -25.776 Q 7.872 -25.296 8.28 -24.744 Q 8.688 -24.192 9.12 -24 Q 8.928 -24.528 9.072 -25.344 Q 9.216 -26.16 9.504 -26.592 Q 9.6 -26.064 10.128 -25.44 Q 10.656 -24.816 11.184 -24.576 Q 11.712 -25.296 11.904 -26.592 Q 12.096 -27.888 11.76 -28.752 Q 12.384 -28.224 12.864 -27.216 Q 13.344 -26.208 13.44 -25.344 Q 13.44 -26.16 13.8 -27.288 Q 14.16 -28.416 14.784 -28.992 Q 14.736 -28.08 15.168 -26.856 Q 15.6 -25.632 16.176 -24.912 Q 16.704 -25.296 17.304 -26.136 Q 17.904 -26.976 18 -27.648 Q 18.48 -27.168 18.816 -26.16 Q 19.152 -25.152 19.056 -24.528 Q 19.344 -24.96 20.088 -25.488 Q 20.832 -26.016 21.36 -26.112 Q 21.264 -25.584 21.528 -24.696 Q 21.792 -23.808 22.128 -23.424 Q 22.512 -23.28 23.448 -23.448 Q 24.384 -23.616 24.72 -23.856 Q 24.912 -23.472 25.056 -22.56 Q 25.2 -21.648 25.056 -21.264 Q 25.392 -21.024 26.328 -20.832 Q 27.264 -20.64 27.648 -20.784 Q 27.792 -20.4 27.576 -19.464 Q 27.36 -18.528 27.072 -18.192 Q 27.6 -18.288 28.56 -17.88 Q 29.52 -17.472 29.904 -17.136 Q 29.424 -16.896 28.824 -16.056 Q 28.224 -15.216 28.08 -14.688 Q 28.8 -14.064 30.144 -13.608 Q 31.488 -13.152 32.448 -13.296 Q 31.776 -12.576 30.48 -12 Q 29.184 -11.424 28.224 -11.472 Q 28.56 -10.896 29.28 -10.296 Q 30 -9.696 30.672 -9.552 Q 30 -9.408 29.088 -9.576 Q 28.176 -9.744 27.6 -10.128 Q 27.6 -9.504 27.168 -8.592 Q 27.456 -7.872 27.456 -7.392 Q 28.32 -7.344 29.376 -6.792 Q 30.432 -6.24 31.008 -5.616 Q 30.24 -6 29.016 -5.88 Q 27.792 -5.76 27.024 -5.328 Q 27.072 -4.752 27.552 -4.056 Q 28.032 -3.36 28.464 -3.024 Q 27.936 -2.928 27.096 -3.168 Q 26.256 -3.408 25.872 -3.792 Q 26.64 -3.072 27.288 -1.728 Q 27.936 -0.384 27.888 0.672 Q 27.36 -0.24 26.16 -1.152 Q 24.96 -2.064 23.904 -2.256 Q 23.568 -1.488 23.544 -0.168 Q 23.52 1.152 23.76 1.92 Q 22.944 1.728 21.936 0.864 Q 20.928 0 20.592 -0.768 Q 20.256 0.192 20.472 1.56 Q 20.688 2.928 21.264 3.744 Q 20.688 3.216 20.28 2.304 Q 19.872 1.392 19.728 0.48 Q 19.584 1.488 19.152 2.16 Q 19.056 1.584 18.648 0.864 Q 18.24 0.144 17.76 -0.144 Q 17.76 0.48 17.4 1.416 Q 17.04 2.352 16.608 2.832 Q 16.56 2.4 16.176 1.824 Q 15.792 1.248 14.736 0.696 Q 13.68 0.144 11.616 -0.24 Z M 14.832 -16.704 L 14.832 -16.704 Q 14.832 -16.368 15.12 -15.864 Q 15.408 -15.36 15.696 -15.168 Q 16.032 -15.408 16.224 -16.032 Q 16.08 -16.08 15.984 -16.128 Q 15.984 -16.128 16.008 -16.152 Q 16.032 -16.176 16.32 -16.224 Q 16.32 -16.368 16.368 -16.464 Q 15.6 -16.608 15.072 -16.512 Q 15.36 -16.944 15.984 -17.304 Q 16.608 -17.664 17.136 -17.712 Q 16.752 -17.76 16.2 -17.616 Q 15.648 -17.472 15.312 -17.232 Q 15.456 -17.616 15.864 -18 Q 16.272 -18.384 16.608 -18.528 Q 16.368 -18.528 15.984 -18.288 Q 15.6 -18.048 15.456 -17.808 Q 15.456 -17.808 15.36 -18.096 Q 15.264 -17.472 15.024 -17.088 Q 15.072 -17.52 14.88 -18.144 Q 14.688 -18.768 14.4 -19.104 Q 14.304 -18.816 14.4 -18.288 Q 14.496 -17.76 14.688 -17.472 Q 14.256 -17.52 13.728 -17.76 Q 14.208 -17.328 14.4 -16.896 Q 14.016 -16.944 13.464 -16.824 Q 12.912 -16.704 12.672 -16.512 Q 12.912 -16.464 13.344 -16.176 Q 13.344 -16.176 13.488 -16.368 Q 13.488 -16.224 13.536 -16.032 Q 13.632 -15.888 13.728 -15.792 Q 13.728 -15.792 13.584 -15.792 Q 13.776 -15.408 13.968 -15.168 Q 13.968 -15.504 14.28 -16.008 Q 14.592 -16.512 14.832 -16.704 Z M 17.424 -16.128 L 17.424 -16.128 Q 17.088 -16.32 16.656 -16.416 Q 16.704 -16.368 16.752 -16.272 Q 17.136 -16.272 17.424 -16.128 Z M 13.008 -15.168 L 13.008 -15.168 Q 13.008 -15.168 13.008 -15.192 Q 13.008 -15.216 13.008 -15.408 Q 13.008 -15.408 13.008 -15.168 Z M 24.72 -10.128 L 24.72 -10.128 Q 24.768 -9.696 24.552 -9.072 Q 24.336 -8.448 24.048 -8.016 Q 24.144 -7.728 24.192 -7.536 Q 24.816 -8.064 25.44 -9.216 Q 25.104 -9.792 24.72 -10.128 Z M 20.112 -9.552 L 20.112 -9.552 Q 20.496 -9.312 20.808 -8.64 Q 21.12 -7.968 21.168 -7.536 Q 21.6 -7.824 22.128 -8.568 Q 22.656 -9.312 22.656 -9.84 Q 22.896 -9.696 23.184 -9.408 Q 22.944 -9.888 22.656 -10.128 Q 22.608 -9.648 22.128 -8.928 Q 21.648 -8.208 21.216 -8.016 Q 21.12 -8.496 20.64 -9.192 Q 20.16 -9.888 19.776 -10.128 Q 19.392 -9.696 19.2 -8.928 Q 19.008 -8.16 19.104 -7.632 Q 18.48 -8.304 18.384 -9.6 Q 18.24 -8.784 17.808 -8.304 Q 18.528 -7.68 19.104 -7.536 Q 19.44 -7.776 19.752 -8.448 Q 20.064 -9.12 20.112 -9.552 Z M 15.216 -10.128 L 15.216 -10.128 Q 15.312 -9.696 15.288 -9.024 Q 15.264 -8.352 15.072 -7.776 Q 15.312 -7.392 15.672 -7.032 Q 16.032 -6.672 16.272 -6.576 Q 16.128 -7.104 16.344 -8.016 Q 16.56 -8.928 16.896 -9.36 Q 17.088 -8.88 17.76 -8.304 Q 17.856 -8.688 17.616 -9.24 Q 17.376 -9.792 17.088 -10.128 Q 16.848 -9.984 16.512 -9.528 Q 16.176 -9.072 16.176 -8.784 Q 15.888 -8.928 15.552 -9.384 Q 15.216 -9.84 15.216 -10.128 Z M 13.392 -6.576 L 13.392 -6.576 Q 13.44 -6.816 13.704 -7.152 Q 13.968 -7.488 14.256 -7.776 L 14.208 -7.872 Q 13.536 -7.152 13.392 -6.576 Z " /><path d="M 32.544 -2.448 L 32.544 -2.448 Q 31.872 -2.304 30.96 -2.52 Q 30.048 -2.736 29.472 -3.12 Q 30.144 -2.976 31.08 -3.168 Q 32.016 -3.36 32.544 -3.792 Q 31.872 -4.272 30.792 -4.464 Q 29.712 -4.656 28.944 -4.368 Q 30.24 -5.184 31.968 -5.04 Q 30.768 -5.376 30.144 -6.096 Q 30.672 -6.096 31.44 -6.456 Q 32.208 -6.816 32.544 -7.248 Q 31.584 -7.152 30.216 -7.608 Q 28.848 -8.064 28.176 -8.784 Q 29.136 -8.688 30.48 -9.168 Q 31.824 -9.648 32.544 -10.32 Q 32.16 -10.848 31.248 -11.424 Q 30.336 -12 29.712 -12.048 Q 30.048 -12.528 30.84 -13.056 Q 31.632 -13.584 32.304 -13.728 Q 31.248 -13.584 29.952 -13.872 Q 28.656 -14.16 27.84 -14.736 Q 28.896 -14.544 30.312 -14.808 Q 31.728 -15.072 32.544 -15.696 Q 32.016 -16.32 30.912 -16.8 Q 29.808 -17.28 28.992 -17.328 Q 29.472 -17.952 30.6 -18.48 Q 31.728 -19.008 32.544 -18.96 Q 32.256 -19.392 31.512 -19.776 Q 30.768 -20.16 30.288 -20.208 Q 30.576 -20.64 31.296 -21.024 Q 32.016 -21.408 32.544 -21.456 Q 32.256 -21.888 31.488 -22.416 Q 30.72 -22.944 30.192 -22.992 Q 30.528 -23.424 31.272 -23.904 Q 32.016 -24.384 32.544 -24.528 Q 31.68 -25.152 30.264 -25.344 Q 28.848 -25.536 27.792 -25.296 Q 28.656 -25.92 30.072 -26.112 Q 31.488 -26.304 32.544 -26.064 Q 32.256 -26.4 31.632 -26.664 Q 31.008 -26.928 30.576 -26.928 Q 30.912 -27.216 31.512 -27.48 Q 32.112 -27.744 32.544 -27.792 Q 31.872 -28.464 30.576 -29.04 Q 29.28 -29.616 28.32 -29.616 Q 28.944 -30.336 30.264 -30.888 Q 31.584 -31.44 32.544 -31.44 Q 31.488 -31.44 30.192 -32.016 Q 28.896 -32.592 28.176 -33.36 Q 29.136 -32.976 30.576 -33 Q 32.016 -33.024 32.928 -33.504 Q 32.88 -33.936 32.976 -35.016 Q 33.072 -36.096 33.264 -37.368 Q 33.456 -38.64 33.72 -39.672 Q 33.984 -40.704 34.272 -41.04 Q 34.176 -40.608 34.32 -39.552 Q 34.464 -38.496 34.776 -37.224 Q 35.088 -35.952 35.424 -34.944 Q 35.76 -33.936 36.048 -33.6 Q 35.904 -34.416 36.288 -35.544 Q 36.672 -36.672 37.2 -37.296 Q 37.056 -36.48 37.392 -35.328 Q 37.728 -34.176 38.304 -33.6 Q 38.208 -34.08 38.4 -34.728 Q 38.592 -35.376 38.88 -35.76 Q 38.832 -35.28 39 -34.632 Q 39.168 -33.984 39.456 -33.6 Q 39.408 -33.888 39.48 -34.704 Q 39.552 -35.52 39.72 -36.456 Q 39.888 -37.392 40.08 -38.184 Q 40.272 -38.976 40.416 -39.264 Q 40.368 -38.976 40.416 -38.16 Q 40.464 -37.344 40.632 -36.384 Q 40.8 -35.424 40.992 -34.632 Q 41.184 -33.84 41.376 -33.6 Q 41.808 -34.032 42.168 -34.8 Q 42.528 -35.568 42.528 -36.192 Q 42.768 -35.616 42.72 -34.752 Q 42.672 -33.888 42.336 -33.36 Q 43.296 -33.792 44.736 -33.696 Q 46.176 -33.6 47.088 -33.12 Q 46.032 -33.168 44.664 -32.76 Q 43.296 -32.352 42.576 -31.632 Q 43.344 -30.96 44.712 -30.456 Q 46.08 -29.952 47.088 -30.096 Q 46.608 -29.568 45.72 -29.208 Q 44.832 -28.848 43.968 -28.704 Q 45.312 -28.608 46.224 -27.984 Q 45.408 -28.176 44.352 -27.984 Q 43.296 -27.792 42.576 -27.408 Q 43.536 -27.552 44.88 -27.144 Q 46.224 -26.736 46.896 -26.064 Q 45.936 -26.256 44.616 -25.824 Q 43.296 -25.392 42.576 -24.72 Q 42.72 -24.432 43.224 -24 Q 43.728 -23.568 44.064 -23.472 Q 43.872 -23.184 43.392 -22.752 Q 42.912 -22.32 42.576 -22.224 Q 42.96 -21.792 43.872 -21.456 Q 43.824 -21.6 43.824 -21.744 Q 44.256 -21.552 45.072 -21.504 Q 45.888 -21.456 46.32 -21.648 Q 46.032 -21.888 45.816 -22.632 Q 45.6 -23.376 45.6 -23.76 Q 45.984 -23.664 46.752 -23.76 Q 47.52 -23.856 47.808 -24.096 Q 48.288 -24.768 48.408 -25.92 Q 48.528 -27.072 48.288 -27.84 Q 48.864 -27.264 49.392 -26.28 Q 49.92 -25.296 50.016 -24.48 Q 50.544 -25.104 50.88 -26.208 Q 51.216 -27.312 51.12 -28.128 Q 51.696 -27.552 52.08 -26.424 Q 52.464 -25.296 52.272 -24.48 Q 52.608 -24.912 52.824 -25.656 Q 53.04 -26.4 52.944 -26.976 Q 53.328 -26.544 53.52 -25.8 Q 53.712 -25.056 53.616 -24.48 Q 54.24 -25.104 54.528 -26.304 Q 54.816 -27.504 54.672 -28.368 Q 55.2 -27.648 55.56 -26.496 Q 55.92 -25.344 55.728 -24.48 Q 56.256 -25.2 56.664 -26.4 Q 57.072 -27.6 56.928 -28.464 Q 57.6 -27.84 57.912 -26.616 Q 58.224 -25.392 58.176 -24.48 Q 58.656 -24.72 59.376 -24.864 Q 60.096 -25.008 60.624 -24.912 Q 60.144 -24.72 59.592 -24.216 Q 59.04 -23.712 58.8 -23.232 Q 59.568 -22.896 60.408 -22.104 Q 61.248 -21.312 61.488 -20.496 Q 60.96 -21.168 59.928 -21.672 Q 58.896 -22.176 58.032 -22.128 Q 58.512 -21.744 59.04 -20.856 Q 59.568 -19.968 59.568 -19.296 Q 58.992 -19.632 58.008 -19.776 Q 57.024 -19.92 56.4 -19.776 Q 56.64 -18.816 57.504 -17.688 Q 58.368 -16.56 59.28 -16.032 Q 58.224 -15.984 56.856 -16.368 Q 55.488 -16.752 54.768 -17.472 Q 54.72 -17.04 55.008 -16.344 Q 55.296 -15.648 55.632 -15.36 Q 55.2 -15.168 54.456 -15.192 Q 53.712 -15.216 53.328 -15.456 Q 53.568 -14.832 54.096 -14.208 Q 54.816 -14.304 55.248 -14.208 Q 54.96 -13.968 54.624 -13.632 Q 55.536 -12.72 56.4 -12.384 Q 55.872 -12.288 55.2 -12.36 Q 54.528 -12.432 53.856 -12.624 Q 53.568 -12.096 53.472 -11.664 Q 54 -11.376 55.08 -11.352 Q 56.16 -11.328 56.688 -11.616 Q 56.688 -10.992 56.304 -10.008 Q 55.92 -9.024 55.44 -8.64 Q 56.304 -8.592 57.384 -9.048 Q 58.464 -9.504 58.992 -10.176 Q 58.704 -9.36 57.84 -8.568 Q 56.976 -7.776 56.16 -7.536 Q 57.12 -7.44 58.464 -7.728 Q 59.808 -8.016 60.528 -8.688 Q 60.24 -7.728 59.424 -6.624 Q 58.608 -5.52 57.696 -5.136 Q 58.512 -5.088 59.52 -5.4 Q 60.528 -5.712 61.152 -6.24 Q 60.912 -5.472 60.168 -4.704 Q 59.424 -3.936 58.752 -3.552 Q 59.088 -3.216 59.904 -2.856 Q 60.72 -2.496 61.2 -2.544 Q 61.056 -2.064 60.504 -1.392 Q 59.952 -0.72 59.52 -0.48 Q 59.52 0.048 59.256 0.816 Q 58.992 1.584 58.56 1.968 Q 58.56 1.44 58.296 0.648 Q 58.032 -0.144 57.6 -0.48 Q 57.792 0.48 57.576 1.752 Q 57.36 3.024 56.88 3.888 Q 57.024 2.928 56.808 1.656 Q 56.592 0.384 56.112 -0.48 Q 56.16 0.144 55.776 1.008 Q 55.392 1.872 54.96 2.304 Q 55.008 1.68 54.624 0.816 Q 54.24 -0.048 53.808 -0.48 Q 54.048 0.192 53.88 1.2 Q 53.712 2.208 53.232 2.784 Q 53.424 2.064 53.232 1.104 Q 53.04 0.144 52.656 -0.48 Q 52.752 -0.048 52.584 0.552 Q 52.416 1.152 52.08 1.488 Q 52.176 1.056 52.008 0.456 Q 51.84 -0.144 51.552 -0.48 Q 51.84 0.528 51.624 1.944 Q 51.408 3.36 50.784 4.224 Q 51.072 3.216 50.856 1.8 Q 50.64 0.384 50.016 -0.48 Q 49.68 0.144 48.864 0.768 Q 48.048 1.392 47.376 1.584 Q 47.76 0.96 47.976 -0.048 Q 48.192 -1.056 47.952 -1.728 Q 47.28 -1.152 46.032 -0.888 Q 44.784 -0.624 43.968 -0.912 Q 44.736 -1.296 45.528 -2.232 Q 46.32 -3.168 46.608 -3.984 Q 46.368 -3.84 45.36 -3.624 Q 44.352 -3.408 43.776 -3.36 Q 44.688 -3.12 45.456 -3.216 Q 44.976 -2.832 44.232 -2.64 Q 43.488 -2.448 42.864 -2.448 Q 43.728 -2.352 44.256 -1.728 Q 43.872 -1.728 43.344 -1.536 Q 42.816 -1.344 42.528 -1.056 Q 42.096 -0.144 41.976 1.296 Q 41.856 2.736 42.192 3.744 Q 41.376 3.12 40.656 1.848 Q 39.936 0.576 39.84 -0.48 Q 39.312 0 38.808 0.96 Q 38.304 1.92 38.208 2.64 Q 37.68 2.208 37.176 1.224 Q 36.672 0.24 36.624 -0.48 Q 36 0.192 35.472 1.416 Q 34.944 2.64 34.992 3.552 Q 34.368 2.88 33.72 1.416 Q 33.072 -0.048 32.544 -2.448 Z M 42.576 -20.112 L 42.576 -20.112 Q 42.816 -19.824 43.44 -19.488 Q 43.776 -19.584 44.28 -19.608 Q 44.784 -19.632 45.072 -19.584 Q 44.688 -19.872 44.304 -20.448 Q 43.296 -20.016 42.576 -20.112 Z M 42.576 -6.288 L 42.576 -6.288 Q 42.72 -6.096 43.056 -5.808 Q 43.44 -6.384 43.968 -6.816 Q 43.008 -6.624 42.576 -6.288 Z M 42.576 -3.984 L 42.576 -3.984 Q 42.912 -3.648 43.584 -3.408 Q 43.824 -3.6 44.28 -4.08 Q 44.736 -4.56 45.096 -5.064 Q 45.456 -5.568 45.504 -5.808 Q 45.12 -5.904 44.568 -5.808 Q 44.016 -5.712 43.536 -5.52 Q 44.112 -5.184 44.496 -5.136 Q 44.256 -4.752 43.632 -4.416 Q 43.008 -4.08 42.576 -3.984 Z " /><path d="M 72.624 -0.096 L 72.624 -0.096 Q 72.432 0.144 72.192 0.864 Q 71.952 1.584 71.712 2.472 Q 71.472 3.36 71.352 4.104 Q 71.232 4.848 71.28 5.136 Q 71.184 4.848 71.112 4.104 Q 71.04 3.36 71.04 2.448 Q 71.04 1.536 71.088 0.768 Q 71.136 0 71.28 -0.288 Q 70.752 0.144 70.248 0.984 Q 69.744 1.824 69.6 2.496 Q 69.168 1.968 69.072 0.96 Q 68.976 -0.048 69.216 -0.72 Q 69.024 -0.192 68.424 0.408 Q 67.824 1.008 67.344 1.248 Q 67.584 0.768 67.512 -0.096 Q 67.44 -0.96 67.2 -1.44 Q 66.432 -1.2 65.592 -0.384 Q 64.752 0.432 64.512 1.248 Q 64.368 0.432 64.704 -0.648 Q 65.04 -1.728 65.472 -2.304 Q 64.944 -1.584 63.864 -1.08 Q 62.784 -0.576 61.968 -0.48 Q 62.688 -1.008 63.216 -2.136 Q 63.744 -3.264 63.744 -4.176 Q 62.736 -4.128 61.488 -3.456 Q 60.24 -2.784 59.664 -1.92 Q 60.336 -3.216 61.728 -4.176 Q 60.624 -3.84 59.904 -3.984 Q 60.624 -4.224 61.464 -4.848 Q 62.304 -5.472 62.592 -6.144 Q 62.016 -6.576 60.888 -6.888 Q 59.76 -7.2 59.04 -7.056 Q 59.376 -7.68 60.216 -8.496 Q 61.056 -9.312 61.728 -9.504 Q 61.2 -10.176 59.976 -10.608 Q 58.752 -11.04 57.888 -11.04 Q 58.464 -11.712 59.616 -12.288 Q 60.768 -12.864 61.632 -12.912 Q 60.96 -13.68 59.64 -14.4 Q 58.32 -15.12 57.312 -15.216 Q 58.08 -15.888 59.52 -16.368 Q 60.96 -16.848 61.968 -16.752 Q 61.632 -17.52 60.648 -18.288 Q 59.664 -19.056 58.8 -19.296 Q 59.568 -19.632 60.696 -19.656 Q 61.824 -19.68 62.64 -19.392 Q 62.208 -19.584 61.776 -19.992 Q 61.344 -20.4 61.2 -20.832 Q 61.536 -20.448 62.208 -20.256 Q 62.88 -20.064 63.36 -20.064 Q 62.832 -20.544 62.28 -21.432 Q 61.728 -22.32 61.68 -23.04 Q 62.16 -22.512 63.168 -22.176 Q 64.176 -21.84 64.896 -21.84 Q 65.04 -22.608 64.608 -23.664 Q 64.176 -24.72 63.648 -25.344 Q 64.416 -25.104 65.328 -24.432 Q 66.24 -23.76 66.576 -23.04 Q 66.864 -24.096 66.552 -25.536 Q 66.24 -26.976 65.568 -27.792 Q 66.528 -27.36 67.392 -26.16 Q 68.256 -24.96 68.496 -23.952 Q 68.832 -24.768 68.664 -25.968 Q 68.496 -27.168 68.064 -27.984 Q 68.784 -27.408 69.336 -26.352 Q 69.888 -25.296 69.984 -24.384 Q 70.416 -24.72 70.92 -25.608 Q 71.424 -26.496 71.424 -27.024 Q 71.952 -26.832 72.672 -26.136 Q 73.392 -25.44 73.584 -24.912 Q 73.536 -25.584 73.824 -26.544 Q 74.112 -27.504 74.592 -27.984 Q 74.592 -27.312 74.928 -26.4 Q 75.264 -25.488 75.696 -24.96 Q 75.552 -25.68 75.888 -26.64 Q 76.224 -27.6 76.656 -28.176 Q 76.416 -27.456 76.632 -26.472 Q 76.848 -25.488 77.232 -24.864 Q 77.856 -25.152 78.48 -26.088 Q 79.104 -27.024 79.296 -27.696 Q 79.728 -27.168 80.04 -26.112 Q 80.352 -25.056 80.304 -24.384 Q 80.784 -24.672 81.216 -25.368 Q 81.648 -26.064 81.696 -26.688 Q 81.936 -26.16 81.888 -25.344 Q 81.84 -24.528 81.6 -24 Q 82.032 -24.096 82.608 -24.552 Q 83.184 -25.008 83.376 -25.392 Q 83.616 -25.008 83.664 -24.264 Q 83.712 -23.52 83.52 -23.136 Q 83.904 -23.568 84.792 -23.952 Q 85.68 -24.336 86.256 -24.288 Q 85.92 -23.808 85.8 -22.872 Q 85.68 -21.936 85.824 -21.36 Q 86.736 -21.12 88.104 -21.384 Q 89.472 -21.648 90.24 -22.176 Q 90.144 -21.216 89.328 -20.064 Q 88.512 -18.912 87.744 -18.432 Q 88.56 -18.096 89.784 -18.216 Q 91.008 -18.336 91.728 -18.816 Q 91.2 -18.096 90.168 -17.448 Q 89.136 -16.8 88.272 -16.8 Q 88.752 -16.8 89.52 -16.488 Q 90.288 -16.176 90.624 -15.792 Q 90.144 -15.648 89.496 -15.168 Q 88.848 -14.688 88.608 -14.256 Q 89.28 -13.824 90.36 -13.68 Q 91.44 -13.536 92.208 -13.776 Q 91.68 -13.392 90.816 -13.2 Q 91.872 -13.008 92.688 -12.576 Q 91.872 -12.912 90.648 -12.696 Q 89.424 -12.48 88.608 -12.048 Q 88.944 -11.52 89.784 -10.8 Q 90.624 -10.08 91.248 -9.888 Q 90.816 -9.408 89.856 -8.832 Q 88.896 -8.256 88.272 -8.208 Q 88.896 -8.256 89.664 -7.896 Q 90.432 -7.536 90.816 -7.056 Q 90.288 -7.392 89.448 -7.44 Q 88.608 -7.488 88.032 -7.248 Q 88.08 -6.768 88.464 -5.952 Q 88.848 -5.136 89.28 -4.848 Q 88.896 -4.56 87.984 -4.392 Q 87.072 -4.224 86.592 -4.32 Q 87.216 -3.888 87.768 -2.952 Q 88.32 -2.016 88.32 -1.248 Q 87.84 -1.824 86.88 -2.328 Q 85.92 -2.832 85.152 -2.784 Q 84.912 -2.448 84.672 -1.56 Q 84.432 -0.672 84.48 -0.24 Q 84.048 -0.144 83.184 -0.456 Q 82.32 -0.768 81.984 -1.008 Q 81.84 -0.72 81.792 0.12 Q 81.744 0.96 81.792 1.944 Q 81.84 2.928 81.912 3.768 Q 81.984 4.608 82.08 4.896 Q 81.84 4.656 81.288 3.792 Q 80.736 2.928 80.232 1.92 Q 79.728 0.912 79.488 0.24 Q 79.632 1.104 79.392 2.136 Q 79.152 3.168 78.816 3.888 Q 78.912 2.976 78.408 1.776 Q 77.904 0.576 77.232 -0.096 Q 77.232 0.384 76.92 1.032 Q 76.608 1.68 76.272 1.968 Q 76.224 1.536 75.552 0.888 Q 74.88 0.24 72.624 -0.096 Z M 75.936 -6.816 L 75.936 -6.816 Q 76.032 -7.248 75.864 -7.848 Q 75.696 -8.448 75.456 -8.832 Q 75.888 -8.784 76.44 -8.424 Q 76.992 -8.064 77.232 -7.728 Q 76.992 -8.16 76.416 -8.616 Q 75.84 -9.072 75.36 -9.12 Q 75.792 -9.36 76.512 -9.48 Q 77.232 -9.6 77.664 -9.408 Q 77.424 -9.744 76.896 -9.984 Q 76.368 -10.224 75.984 -10.272 Q 76.272 -10.512 76.824 -10.68 Q 77.376 -10.848 77.76 -10.848 Q 77.136 -10.896 76.704 -11.328 Q 76.944 -11.328 77.28 -11.472 Q 77.616 -11.616 77.808 -11.808 Q 77.472 -11.76 77.04 -11.904 Q 76.608 -12.048 76.368 -12.288 Q 76.704 -12.288 77.136 -12.408 Q 77.568 -12.528 77.808 -12.768 Q 77.472 -12.768 77.04 -12.936 Q 76.608 -13.104 76.416 -13.344 Q 76.752 -13.344 77.16 -13.536 Q 77.568 -13.728 77.76 -13.968 Q 77.568 -14.16 77.136 -14.328 Q 76.704 -14.496 76.416 -14.496 Q 76.608 -14.736 77.016 -14.952 Q 77.424 -15.168 77.712 -15.168 Q 77.328 -15.504 76.56 -15.624 Q 75.792 -15.744 75.36 -15.6 Q 75.552 -15.984 76.176 -16.416 Q 75.888 -16.368 75.648 -16.368 Q 75.984 -16.608 76.224 -17.088 Q 76.464 -17.568 76.464 -17.952 Q 76.128 -17.664 75.84 -17.208 Q 75.552 -16.752 75.408 -16.224 Q 75.36 -15.456 75.12 -14.976 Q 75.12 -14.976 75.12 -15.072 Q 75.024 -15.36 74.928 -15.744 Q 74.448 -15.552 73.752 -15.528 Q 73.056 -15.504 72.576 -15.744 Q 72.864 -15.408 73.392 -15.144 Q 73.92 -14.88 74.352 -14.88 Q 73.728 -14.448 72.912 -14.352 Q 73.728 -14.256 74.16 -13.776 Q 73.776 -13.872 73.272 -13.728 Q 72.768 -13.584 72.432 -13.344 Q 72.672 -13.104 73.128 -12.888 Q 73.584 -12.672 73.92 -12.672 Q 73.728 -12.384 73.248 -12.192 Q 72.768 -12 72.432 -12 Q 72.816 -12.048 73.32 -11.904 Q 73.824 -11.76 74.112 -11.52 Q 73.2 -11.616 72.48 -10.992 Q 72.96 -11.088 73.656 -10.896 Q 74.352 -10.704 74.736 -10.32 Q 74.208 -10.368 73.56 -10.056 Q 72.912 -9.744 72.576 -9.36 Q 72.912 -9.456 73.464 -9.336 Q 74.016 -9.216 74.304 -8.976 Q 73.968 -8.928 73.536 -8.544 Q 73.104 -8.16 72.96 -7.824 Q 73.152 -8.016 73.584 -8.136 Q 74.016 -8.256 74.208 -8.208 Q 74.496 -9.264 75.024 -9.888 Q 74.688 -9.264 74.856 -8.328 Q 75.024 -7.392 75.936 -6.816 Z M 72.96 -17.04 L 72.96 -17.04 Q 73.2 -16.608 73.824 -16.248 Q 74.448 -15.888 74.928 -15.792 Q 74.88 -15.936 74.88 -16.08 Q 74.688 -16.608 74.4 -17.112 Q 74.112 -17.616 73.728 -17.904 Q 73.824 -17.472 74.136 -16.92 Q 74.448 -16.368 74.832 -16.176 Q 74.4 -16.176 73.8 -16.44 Q 73.2 -16.704 72.96 -17.04 Z M 74.16 -6.864 L 74.16 -6.864 Q 74.064 -7.152 74.112 -7.44 Q 74.064 -7.056 74.16 -6.864 Z " /></g></svg>