<svg xmlns="http://www.w3.org/2000/svg" width="103.584" height="36.48" viewBox="0 -36.48 103.584 36.48"><title>eko</title><g transform=""><path d="M 11.568 -11.52 L 11.568 -11.52 L 11.568 -9.6 Q 11.568 -7.488 11.736 -6.24 Q 11.904 -4.992 12.552 -4.368 Q 13.2 -3.744 14.592 -3.552 Q 15.984 -3.36 18.384 -3.36 L 39.792 -3.36 Q 39.792 -1.296 38.736 -0.648 Q 37.68 0 36.432 0 L 18.384 0 Q 14.448 0 12.192 -0.408 Q 9.936 -0.816 8.856 -1.872 Q 7.776 -2.928 7.488 -4.8 Q 7.2 -6.672 7.2 -9.6 L 7.2 -11.568 Q 7.2 -15.696 7.776 -18.552 Q 8.352 -21.408 10.128 -23.136 Q 11.904 -24.864 15.432 -25.632 Q 18.96 -26.4 24.864 -26.4 Q 27.408 -26.4 28.296 -25.152 Q 29.184 -23.904 29.184 -22.128 Q 29.184 -17.184 27.912 -14.448 Q 26.64 -11.712 23.952 -10.632 Q 21.264 -9.552 16.896 -9.552 Q 15.6 -9.552 15.048 -10.056 Q 14.496 -10.56 14.496 -12.048 L 14.496 -13.056 L 18.288 -13.2 Q 20.064 -13.296 21.312 -13.584 Q 22.56 -13.872 23.352 -14.784 Q 24.144 -15.696 24.504 -17.544 Q 24.864 -19.392 24.864 -22.56 Q 20.496 -22.56 17.856 -22.2 Q 15.216 -21.84 13.848 -20.736 Q 12.48 -19.632 12.024 -17.424 Q 11.568 -15.216 11.568 -11.52 Z " /><path d="M 44.112 0 L 44.112 0 L 42.672 0 Q 40.704 0 39.744 -1.056 Q 38.784 -2.112 38.784 -4.368 Q 38.784 -5.664 39.048 -6.864 Q 39.312 -8.064 39.792 -9.168 L 39.792 -35.52 Q 39.792 -35.904 40.08 -36.192 Q 40.368 -36.48 40.752 -36.48 L 43.152 -36.48 Q 43.536 -36.48 43.824 -36.192 Q 44.112 -35.904 44.112 -35.52 L 44.112 -17.376 Q 45.744 -20.304 47.856 -22.416 Q 49.968 -24.528 52.296 -25.704 Q 54.624 -26.88 56.88 -26.88 Q 59.424 -26.88 60.312 -25.632 Q 61.2 -24.384 61.2 -22.56 L 61.2 -21.648 Q 61.2 -15.84 59.664 -12.912 Q 58.128 -9.984 54.528 -9.12 L 58.176 -3.36 L 71.952 -3.36 Q 71.952 -1.296 70.896 -0.648 Q 69.84 0 68.592 0 L 57.36 0 Q 56.688 0 56.016 -0.168 Q 55.344 -0.336 54.96 -0.96 L 50.304 -8.688 Q 48.24 -8.688 47.376 -9.24 Q 46.512 -9.792 46.512 -11.568 L 46.512 -12.048 L 50.304 -12.048 Q 52.608 -12.048 54.048 -12.792 Q 55.488 -13.536 56.184 -15.6 Q 56.88 -17.664 56.88 -21.648 L 56.88 -23.04 Q 55.152 -23.04 52.992 -21.912 Q 50.832 -20.784 48.792 -18.432 Q 46.752 -16.08 45.432 -12.432 Q 44.112 -8.784 44.112 -3.744 Z " /><path d="M 86.64 -25.536 L 86.64 -25.536 Q 86.64 -26.976 87.504 -28.008 Q 88.368 -29.04 90.096 -29.04 Q 91.728 -29.04 92.616 -28.128 Q 93.504 -27.216 93.6 -25.92 L 110.784 -25.92 Q 110.784 -23.856 109.728 -22.968 Q 108.672 -22.08 107.424 -22.08 L 94.416 -22.08 L 94.416 -17.28 Q 94.416 -8.592 89.952 -4.296 Q 85.488 0 76.272 0 Q 74.496 0 73.56 -0.576 Q 72.624 -1.152 72.288 -2.136 Q 71.952 -3.12 71.952 -4.32 L 71.952 -15.888 Q 71.952 -21.312 74.424 -23.856 Q 76.896 -26.4 82.848 -26.4 Q 84.192 -26.4 84.936 -25.632 Q 85.68 -24.864 85.68 -23.04 L 85.68 -22.56 L 82.848 -22.56 Q 80.592 -22.56 79.128 -22.032 Q 77.664 -21.504 76.968 -20.088 Q 76.272 -18.672 76.272 -15.888 L 76.272 -3.84 Q 81.072 -3.84 84.12 -5.064 Q 87.168 -6.288 88.632 -9.24 Q 90.096 -12.192 90.096 -17.28 L 90.096 -22.08 Q 88.368 -22.08 87.504 -23.088 Q 86.64 -24.096 86.64 -25.536 Z " /></g></svg>